G04 Layer_Color=16711935*
%FSLAX44Y44*%
%MOMM*%
G71*
G01*
G75*
%ADD30C,0.0000*%
D30*
X716980Y21916D02*
Y149932D01*
X848044D01*
X847790Y21840D02*
X848044Y149932D01*
X716980Y21916D02*
X847790Y21840D01*
X858040Y21916D02*
Y149932D01*
X989104D01*
X988850Y21840D02*
X989104Y149932D01*
X858040Y21916D02*
X988850Y21840D01*
X716980Y160006D02*
Y288022D01*
X848044D01*
X847790Y159930D02*
X848044Y288022D01*
X716980Y160006D02*
X847790Y159930D01*
X858040Y160006D02*
Y288022D01*
X989104D01*
X988850Y159930D02*
X989104Y288022D01*
X858040Y160006D02*
X988850Y159930D01*
X716980Y298096D02*
Y426112D01*
X848044D01*
X847790Y298020D02*
X848044Y426112D01*
X716980Y298096D02*
X847790Y298020D01*
X858040Y298096D02*
Y426112D01*
X989104D01*
X988850Y298020D02*
X989104Y426112D01*
X858040Y298096D02*
X988850Y298020D01*
X716980Y436186D02*
Y564202D01*
X848044D01*
X847790Y436110D02*
X848044Y564202D01*
X716980Y436186D02*
X847790Y436110D01*
X858040Y436186D02*
Y564202D01*
X989104D01*
X988850Y436110D02*
X989104Y564202D01*
X858040Y436186D02*
X988850Y436110D01*
X716980Y574276D02*
Y702292D01*
X848044D01*
X847790Y574200D02*
X848044Y702292D01*
X716980Y574276D02*
X847790Y574200D01*
X858040Y574276D02*
Y702292D01*
X989104D01*
X988850Y574200D02*
X989104Y702292D01*
X858040Y574276D02*
X988850Y574200D01*
X716980Y712366D02*
Y840382D01*
X848044D01*
X847790Y712290D02*
X848044Y840382D01*
X716980Y712366D02*
X847790Y712290D01*
X858040Y712366D02*
Y840382D01*
X989104D01*
X988850Y712290D02*
X989104Y840382D01*
X858040Y712366D02*
X988850Y712290D01*
X716980Y850456D02*
Y978472D01*
X848044D01*
X847790Y850380D02*
X848044Y978472D01*
X716980Y850456D02*
X847790Y850380D01*
X858040Y850456D02*
Y978472D01*
X989104D01*
X988850Y850380D02*
X989104Y978472D01*
X858040Y850456D02*
X988850Y850380D01*
X575920Y21916D02*
Y149932D01*
X706984D01*
X706730Y21840D02*
X706984Y149932D01*
X575920Y21916D02*
X706730Y21840D01*
X575920Y160006D02*
Y288022D01*
X706984D01*
X706730Y159930D02*
X706984Y288022D01*
X575920Y160006D02*
X706730Y159930D01*
X575920Y298096D02*
Y426112D01*
X706984D01*
X706730Y298020D02*
X706984Y426112D01*
X575920Y298096D02*
X706730Y298020D01*
X575920Y436186D02*
Y564202D01*
X706984D01*
X706730Y436110D02*
X706984Y564202D01*
X575920Y436186D02*
X706730Y436110D01*
X575920Y574276D02*
Y702292D01*
X706984D01*
X706730Y574200D02*
X706984Y702292D01*
X575920Y574276D02*
X706730Y574200D01*
X575920Y712366D02*
Y840382D01*
X706984D01*
X706730Y712290D02*
X706984Y840382D01*
X575920Y712366D02*
X706730Y712290D01*
X575920Y850456D02*
Y978472D01*
X706984D01*
X706730Y850380D02*
X706984Y978472D01*
X575920Y850456D02*
X706730Y850380D01*
X293800Y21916D02*
Y149932D01*
X424864D01*
X424610Y21840D02*
X424864Y149932D01*
X293800Y21916D02*
X424610Y21840D01*
X434860Y21916D02*
Y149932D01*
X565924D01*
X565670Y21840D02*
X565924Y149932D01*
X434860Y21916D02*
X565670Y21840D01*
X293800Y160006D02*
Y288022D01*
X424864D01*
X424610Y159930D02*
X424864Y288022D01*
X293800Y160006D02*
X424610Y159930D01*
X434860Y160006D02*
Y288022D01*
X565924D01*
X565670Y159930D02*
X565924Y288022D01*
X434860Y160006D02*
X565670Y159930D01*
X293800Y298096D02*
Y426112D01*
X424864D01*
X424610Y298020D02*
X424864Y426112D01*
X293800Y298096D02*
X424610Y298020D01*
X434860Y298096D02*
Y426112D01*
X565924D01*
X565670Y298020D02*
X565924Y426112D01*
X434860Y298096D02*
X565670Y298020D01*
X293800Y436186D02*
Y564202D01*
X424864D01*
X424610Y436110D02*
X424864Y564202D01*
X293800Y436186D02*
X424610Y436110D01*
X434860Y436186D02*
Y564202D01*
X565924D01*
X565670Y436110D02*
X565924Y564202D01*
X434860Y436186D02*
X565670Y436110D01*
X293800Y574276D02*
Y702292D01*
X424864D01*
X424610Y574200D02*
X424864Y702292D01*
X293800Y574276D02*
X424610Y574200D01*
X434860Y574276D02*
Y702292D01*
X565924D01*
X565670Y574200D02*
X565924Y702292D01*
X434860Y574276D02*
X565670Y574200D01*
X293800Y712366D02*
Y840382D01*
X424864D01*
X424610Y712290D02*
X424864Y840382D01*
X293800Y712366D02*
X424610Y712290D01*
X434860Y712366D02*
Y840382D01*
X565924D01*
X565670Y712290D02*
X565924Y840382D01*
X434860Y712366D02*
X565670Y712290D01*
X293800Y850456D02*
Y978472D01*
X424864D01*
X424610Y850380D02*
X424864Y978472D01*
X293800Y850456D02*
X424610Y850380D01*
X434860Y850456D02*
Y978472D01*
X565924D01*
X565670Y850380D02*
X565924Y978472D01*
X434860Y850456D02*
X565670Y850380D01*
X11685Y21921D02*
Y149937D01*
X142749D01*
X142495Y21845D02*
X142749Y149937D01*
X11685Y21921D02*
X142495Y21845D01*
X152745Y21921D02*
Y149937D01*
X283809D01*
X283555Y21845D02*
X283809Y149937D01*
X152745Y21921D02*
X283555Y21845D01*
X11685Y160011D02*
Y288027D01*
X142749D01*
X142495Y159935D02*
X142749Y288027D01*
X11685Y160011D02*
X142495Y159935D01*
X152745Y160011D02*
Y288027D01*
X283809D01*
X283555Y159935D02*
X283809Y288027D01*
X152745Y160011D02*
X283555Y159935D01*
X11685Y298101D02*
Y426117D01*
X142749D01*
X142495Y298025D02*
X142749Y426117D01*
X11685Y298101D02*
X142495Y298025D01*
X152745Y298101D02*
Y426117D01*
X283809D01*
X283555Y298025D02*
X283809Y426117D01*
X152745Y298101D02*
X283555Y298025D01*
X11685Y436191D02*
Y564207D01*
X142749D01*
X142495Y436115D02*
X142749Y564207D01*
X11685Y436191D02*
X142495Y436115D01*
X152745Y436191D02*
Y564207D01*
X283809D01*
X283555Y436115D02*
X283809Y564207D01*
X152745Y436191D02*
X283555Y436115D01*
X11685Y574281D02*
Y702297D01*
X142749D01*
X142495Y574205D02*
X142749Y702297D01*
X11685Y574281D02*
X142495Y574205D01*
X152745Y574281D02*
Y702297D01*
X283809D01*
X283555Y574205D02*
X283809Y702297D01*
X152745Y574281D02*
X283555Y574205D01*
X11685Y712371D02*
Y840387D01*
X142749D01*
X142495Y712295D02*
X142749Y840387D01*
X11685Y712371D02*
X142495Y712295D01*
X152745Y712371D02*
Y840387D01*
X283809D01*
X283555Y712295D02*
X283809Y840387D01*
X152745Y712371D02*
X283555Y712295D01*
X11685Y850461D02*
Y978477D01*
X142749D01*
X142495Y850385D02*
X142749Y978477D01*
X11685Y850461D02*
X142495Y850385D01*
X152745Y850461D02*
Y978477D01*
X283809D01*
X283555Y850385D02*
X283809Y978477D01*
X152745Y850461D02*
X283555Y850385D01*
M02*
