G04 Layer_Color=65535*
%FSLAX44Y44*%
%MOMM*%
G71*
G01*
G75*
%ADD14C,0.2540*%
%ADD15C,0.1270*%
%ADD16C,0.1524*%
%ADD17C,0.0553*%
%ADD18C,0.0967*%
%ADD19R,0.7620X0.3810*%
%ADD20R,0.3810X0.7620*%
%ADD21R,1.5240X0.3810*%
%ADD22R,0.3810X2.6670*%
%ADD23R,2.6670X0.3810*%
%ADD24C,0.0415*%
D14*
X832550Y39636D02*
Y45636D01*
X814516Y39636D02*
X832550D01*
X814516D02*
Y45636D01*
X750512D02*
X814516D01*
X750512Y39636D02*
Y45636D01*
X732512Y39636D02*
X750512D01*
X732512D02*
Y45636D01*
Y89734D02*
X832550D01*
Y45636D02*
Y89734D01*
X814516Y45636D02*
X832550D01*
X732512D02*
X750512D01*
X732512D02*
Y89734D01*
X832550Y52636D02*
Y82876D01*
X820612Y140788D02*
X839662D01*
Y121738D02*
Y140788D01*
X820612Y121738D02*
X839662D01*
X820612D02*
Y140788D01*
X973610Y39636D02*
Y45636D01*
X955576Y39636D02*
X973610D01*
X955576D02*
Y45636D01*
X891572D02*
X955576D01*
X891572Y39636D02*
Y45636D01*
X873572Y39636D02*
X891572D01*
X873572D02*
Y45636D01*
Y89734D02*
X973610D01*
Y45636D02*
Y89734D01*
X955576Y45636D02*
X973610D01*
X873572D02*
X891572D01*
X873572D02*
Y89734D01*
X973610Y52636D02*
Y82876D01*
X961672Y140788D02*
X980722D01*
Y121738D02*
Y140788D01*
X961672Y121738D02*
X980722D01*
X961672D02*
Y140788D01*
X832550Y177726D02*
Y183726D01*
X814516Y177726D02*
X832550D01*
X814516D02*
Y183726D01*
X750512D02*
X814516D01*
X750512Y177726D02*
Y183726D01*
X732512Y177726D02*
X750512D01*
X732512D02*
Y183726D01*
Y227824D02*
X832550D01*
Y183726D02*
Y227824D01*
X814516Y183726D02*
X832550D01*
X732512D02*
X750512D01*
X732512D02*
Y227824D01*
X832550Y190726D02*
Y220966D01*
X820612Y278878D02*
X839662D01*
Y259828D02*
Y278878D01*
X820612Y259828D02*
X839662D01*
X820612D02*
Y278878D01*
X973610Y177726D02*
Y183726D01*
X955576Y177726D02*
X973610D01*
X955576D02*
Y183726D01*
X891572D02*
X955576D01*
X891572Y177726D02*
Y183726D01*
X873572Y177726D02*
X891572D01*
X873572D02*
Y183726D01*
Y227824D02*
X973610D01*
Y183726D02*
Y227824D01*
X955576Y183726D02*
X973610D01*
X873572D02*
X891572D01*
X873572D02*
Y227824D01*
X973610Y190726D02*
Y220966D01*
X961672Y278878D02*
X980722D01*
Y259828D02*
Y278878D01*
X961672Y259828D02*
X980722D01*
X961672D02*
Y278878D01*
X832550Y315816D02*
Y321816D01*
X814516Y315816D02*
X832550D01*
X814516D02*
Y321816D01*
X750512D02*
X814516D01*
X750512Y315816D02*
Y321816D01*
X732512Y315816D02*
X750512D01*
X732512D02*
Y321816D01*
Y365914D02*
X832550D01*
Y321816D02*
Y365914D01*
X814516Y321816D02*
X832550D01*
X732512D02*
X750512D01*
X732512D02*
Y365914D01*
X832550Y328816D02*
Y359056D01*
X820612Y416968D02*
X839662D01*
Y397918D02*
Y416968D01*
X820612Y397918D02*
X839662D01*
X820612D02*
Y416968D01*
X973610Y315816D02*
Y321816D01*
X955576Y315816D02*
X973610D01*
X955576D02*
Y321816D01*
X891572D02*
X955576D01*
X891572Y315816D02*
Y321816D01*
X873572Y315816D02*
X891572D01*
X873572D02*
Y321816D01*
Y365914D02*
X973610D01*
Y321816D02*
Y365914D01*
X955576Y321816D02*
X973610D01*
X873572D02*
X891572D01*
X873572D02*
Y365914D01*
X973610Y328816D02*
Y359056D01*
X961672Y416968D02*
X980722D01*
Y397918D02*
Y416968D01*
X961672Y397918D02*
X980722D01*
X961672D02*
Y416968D01*
X832550Y453906D02*
Y459906D01*
X814516Y453906D02*
X832550D01*
X814516D02*
Y459906D01*
X750512D02*
X814516D01*
X750512Y453906D02*
Y459906D01*
X732512Y453906D02*
X750512D01*
X732512D02*
Y459906D01*
Y504004D02*
X832550D01*
Y459906D02*
Y504004D01*
X814516Y459906D02*
X832550D01*
X732512D02*
X750512D01*
X732512D02*
Y504004D01*
X832550Y466906D02*
Y497146D01*
X820612Y555058D02*
X839662D01*
Y536008D02*
Y555058D01*
X820612Y536008D02*
X839662D01*
X820612D02*
Y555058D01*
X973610Y453906D02*
Y459906D01*
X955576Y453906D02*
X973610D01*
X955576D02*
Y459906D01*
X891572D02*
X955576D01*
X891572Y453906D02*
Y459906D01*
X873572Y453906D02*
X891572D01*
X873572D02*
Y459906D01*
Y504004D02*
X973610D01*
Y459906D02*
Y504004D01*
X955576Y459906D02*
X973610D01*
X873572D02*
X891572D01*
X873572D02*
Y504004D01*
X973610Y466906D02*
Y497146D01*
X961672Y555058D02*
X980722D01*
Y536008D02*
Y555058D01*
X961672Y536008D02*
X980722D01*
X961672D02*
Y555058D01*
X832550Y591996D02*
Y597996D01*
X814516Y591996D02*
X832550D01*
X814516D02*
Y597996D01*
X750512D02*
X814516D01*
X750512Y591996D02*
Y597996D01*
X732512Y591996D02*
X750512D01*
X732512D02*
Y597996D01*
Y642094D02*
X832550D01*
Y597996D02*
Y642094D01*
X814516Y597996D02*
X832550D01*
X732512D02*
X750512D01*
X732512D02*
Y642094D01*
X832550Y604996D02*
Y635236D01*
X820612Y693148D02*
X839662D01*
Y674098D02*
Y693148D01*
X820612Y674098D02*
X839662D01*
X820612D02*
Y693148D01*
X973610Y591996D02*
Y597996D01*
X955576Y591996D02*
X973610D01*
X955576D02*
Y597996D01*
X891572D02*
X955576D01*
X891572Y591996D02*
Y597996D01*
X873572Y591996D02*
X891572D01*
X873572D02*
Y597996D01*
Y642094D02*
X973610D01*
Y597996D02*
Y642094D01*
X955576Y597996D02*
X973610D01*
X873572D02*
X891572D01*
X873572D02*
Y642094D01*
X973610Y604996D02*
Y635236D01*
X961672Y693148D02*
X980722D01*
Y674098D02*
Y693148D01*
X961672Y674098D02*
X980722D01*
X961672D02*
Y693148D01*
X832550Y730086D02*
Y736086D01*
X814516Y730086D02*
X832550D01*
X814516D02*
Y736086D01*
X750512D02*
X814516D01*
X750512Y730086D02*
Y736086D01*
X732512Y730086D02*
X750512D01*
X732512D02*
Y736086D01*
Y780184D02*
X832550D01*
Y736086D02*
Y780184D01*
X814516Y736086D02*
X832550D01*
X732512D02*
X750512D01*
X732512D02*
Y780184D01*
X832550Y743086D02*
Y773326D01*
X820612Y831238D02*
X839662D01*
Y812188D02*
Y831238D01*
X820612Y812188D02*
X839662D01*
X820612D02*
Y831238D01*
X973610Y730086D02*
Y736086D01*
X955576Y730086D02*
X973610D01*
X955576D02*
Y736086D01*
X891572D02*
X955576D01*
X891572Y730086D02*
Y736086D01*
X873572Y730086D02*
X891572D01*
X873572D02*
Y736086D01*
Y780184D02*
X973610D01*
Y736086D02*
Y780184D01*
X955576Y736086D02*
X973610D01*
X873572D02*
X891572D01*
X873572D02*
Y780184D01*
X973610Y743086D02*
Y773326D01*
X961672Y831238D02*
X980722D01*
Y812188D02*
Y831238D01*
X961672Y812188D02*
X980722D01*
X961672D02*
Y831238D01*
X832550Y868176D02*
Y874176D01*
X814516Y868176D02*
X832550D01*
X814516D02*
Y874176D01*
X750512D02*
X814516D01*
X750512Y868176D02*
Y874176D01*
X732512Y868176D02*
X750512D01*
X732512D02*
Y874176D01*
Y918274D02*
X832550D01*
Y874176D02*
Y918274D01*
X814516Y874176D02*
X832550D01*
X732512D02*
X750512D01*
X732512D02*
Y918274D01*
X832550Y881176D02*
Y911416D01*
X820612Y969328D02*
X839662D01*
Y950278D02*
Y969328D01*
X820612Y950278D02*
X839662D01*
X820612D02*
Y969328D01*
X973610Y868176D02*
Y874176D01*
X955576Y868176D02*
X973610D01*
X955576D02*
Y874176D01*
X891572D02*
X955576D01*
X891572Y868176D02*
Y874176D01*
X873572Y868176D02*
X891572D01*
X873572D02*
Y874176D01*
Y918274D02*
X973610D01*
Y874176D02*
Y918274D01*
X955576Y874176D02*
X973610D01*
X873572D02*
X891572D01*
X873572D02*
Y918274D01*
X973610Y881176D02*
Y911416D01*
X961672Y969328D02*
X980722D01*
Y950278D02*
Y969328D01*
X961672Y950278D02*
X980722D01*
X961672D02*
Y969328D01*
X691490Y39636D02*
Y45636D01*
X673456Y39636D02*
X691490D01*
X673456D02*
Y45636D01*
X609452D02*
X673456D01*
X609452Y39636D02*
Y45636D01*
X591452Y39636D02*
X609452D01*
X591452D02*
Y45636D01*
Y89734D02*
X691490D01*
Y45636D02*
Y89734D01*
X673456Y45636D02*
X691490D01*
X591452D02*
X609452D01*
X591452D02*
Y89734D01*
X691490Y52636D02*
Y82876D01*
X679552Y140788D02*
X698602D01*
Y121738D02*
Y140788D01*
X679552Y121738D02*
X698602D01*
X679552D02*
Y140788D01*
X691490Y177726D02*
Y183726D01*
X673456Y177726D02*
X691490D01*
X673456D02*
Y183726D01*
X609452D02*
X673456D01*
X609452Y177726D02*
Y183726D01*
X591452Y177726D02*
X609452D01*
X591452D02*
Y183726D01*
Y227824D02*
X691490D01*
Y183726D02*
Y227824D01*
X673456Y183726D02*
X691490D01*
X591452D02*
X609452D01*
X591452D02*
Y227824D01*
X691490Y190726D02*
Y220966D01*
X679552Y278878D02*
X698602D01*
Y259828D02*
Y278878D01*
X679552Y259828D02*
X698602D01*
X679552D02*
Y278878D01*
X691490Y315816D02*
Y321816D01*
X673456Y315816D02*
X691490D01*
X673456D02*
Y321816D01*
X609452D02*
X673456D01*
X609452Y315816D02*
Y321816D01*
X591452Y315816D02*
X609452D01*
X591452D02*
Y321816D01*
Y365914D02*
X691490D01*
Y321816D02*
Y365914D01*
X673456Y321816D02*
X691490D01*
X591452D02*
X609452D01*
X591452D02*
Y365914D01*
X691490Y328816D02*
Y359056D01*
X679552Y416968D02*
X698602D01*
Y397918D02*
Y416968D01*
X679552Y397918D02*
X698602D01*
X679552D02*
Y416968D01*
X691490Y453906D02*
Y459906D01*
X673456Y453906D02*
X691490D01*
X673456D02*
Y459906D01*
X609452D02*
X673456D01*
X609452Y453906D02*
Y459906D01*
X591452Y453906D02*
X609452D01*
X591452D02*
Y459906D01*
Y504004D02*
X691490D01*
Y459906D02*
Y504004D01*
X673456Y459906D02*
X691490D01*
X591452D02*
X609452D01*
X591452D02*
Y504004D01*
X691490Y466906D02*
Y497146D01*
X679552Y555058D02*
X698602D01*
Y536008D02*
Y555058D01*
X679552Y536008D02*
X698602D01*
X679552D02*
Y555058D01*
X691490Y591996D02*
Y597996D01*
X673456Y591996D02*
X691490D01*
X673456D02*
Y597996D01*
X609452D02*
X673456D01*
X609452Y591996D02*
Y597996D01*
X591452Y591996D02*
X609452D01*
X591452D02*
Y597996D01*
Y642094D02*
X691490D01*
Y597996D02*
Y642094D01*
X673456Y597996D02*
X691490D01*
X591452D02*
X609452D01*
X591452D02*
Y642094D01*
X691490Y604996D02*
Y635236D01*
X679552Y693148D02*
X698602D01*
Y674098D02*
Y693148D01*
X679552Y674098D02*
X698602D01*
X679552D02*
Y693148D01*
X691490Y730086D02*
Y736086D01*
X673456Y730086D02*
X691490D01*
X673456D02*
Y736086D01*
X609452D02*
X673456D01*
X609452Y730086D02*
Y736086D01*
X591452Y730086D02*
X609452D01*
X591452D02*
Y736086D01*
Y780184D02*
X691490D01*
Y736086D02*
Y780184D01*
X673456Y736086D02*
X691490D01*
X591452D02*
X609452D01*
X591452D02*
Y780184D01*
X691490Y743086D02*
Y773326D01*
X679552Y831238D02*
X698602D01*
Y812188D02*
Y831238D01*
X679552Y812188D02*
X698602D01*
X679552D02*
Y831238D01*
X691490Y868176D02*
Y874176D01*
X673456Y868176D02*
X691490D01*
X673456D02*
Y874176D01*
X609452D02*
X673456D01*
X609452Y868176D02*
Y874176D01*
X591452Y868176D02*
X609452D01*
X591452D02*
Y874176D01*
Y918274D02*
X691490D01*
Y874176D02*
Y918274D01*
X673456Y874176D02*
X691490D01*
X591452D02*
X609452D01*
X591452D02*
Y918274D01*
X691490Y881176D02*
Y911416D01*
X679552Y969328D02*
X698602D01*
Y950278D02*
Y969328D01*
X679552Y950278D02*
X698602D01*
X679552D02*
Y969328D01*
X409370Y39636D02*
Y45636D01*
X391336Y39636D02*
X409370D01*
X391336D02*
Y45636D01*
X327332D02*
X391336D01*
X327332Y39636D02*
Y45636D01*
X309332Y39636D02*
X327332D01*
X309332D02*
Y45636D01*
Y89734D02*
X409370D01*
Y45636D02*
Y89734D01*
X391336Y45636D02*
X409370D01*
X309332D02*
X327332D01*
X309332D02*
Y89734D01*
X409370Y52636D02*
Y82876D01*
X397432Y140788D02*
X416482D01*
Y121738D02*
Y140788D01*
X397432Y121738D02*
X416482D01*
X397432D02*
Y140788D01*
X550430Y39636D02*
Y45636D01*
X532396Y39636D02*
X550430D01*
X532396D02*
Y45636D01*
X468392D02*
X532396D01*
X468392Y39636D02*
Y45636D01*
X450392Y39636D02*
X468392D01*
X450392D02*
Y45636D01*
Y89734D02*
X550430D01*
Y45636D02*
Y89734D01*
X532396Y45636D02*
X550430D01*
X450392D02*
X468392D01*
X450392D02*
Y89734D01*
X550430Y52636D02*
Y82876D01*
X538492Y140788D02*
X557542D01*
Y121738D02*
Y140788D01*
X538492Y121738D02*
X557542D01*
X538492D02*
Y140788D01*
X409370Y177726D02*
Y183726D01*
X391336Y177726D02*
X409370D01*
X391336D02*
Y183726D01*
X327332D02*
X391336D01*
X327332Y177726D02*
Y183726D01*
X309332Y177726D02*
X327332D01*
X309332D02*
Y183726D01*
Y227824D02*
X409370D01*
Y183726D02*
Y227824D01*
X391336Y183726D02*
X409370D01*
X309332D02*
X327332D01*
X309332D02*
Y227824D01*
X409370Y190726D02*
Y220966D01*
X397432Y278878D02*
X416482D01*
Y259828D02*
Y278878D01*
X397432Y259828D02*
X416482D01*
X397432D02*
Y278878D01*
X550430Y177726D02*
Y183726D01*
X532396Y177726D02*
X550430D01*
X532396D02*
Y183726D01*
X468392D02*
X532396D01*
X468392Y177726D02*
Y183726D01*
X450392Y177726D02*
X468392D01*
X450392D02*
Y183726D01*
Y227824D02*
X550430D01*
Y183726D02*
Y227824D01*
X532396Y183726D02*
X550430D01*
X450392D02*
X468392D01*
X450392D02*
Y227824D01*
X550430Y190726D02*
Y220966D01*
X538492Y278878D02*
X557542D01*
Y259828D02*
Y278878D01*
X538492Y259828D02*
X557542D01*
X538492D02*
Y278878D01*
X409370Y315816D02*
Y321816D01*
X391336Y315816D02*
X409370D01*
X391336D02*
Y321816D01*
X327332D02*
X391336D01*
X327332Y315816D02*
Y321816D01*
X309332Y315816D02*
X327332D01*
X309332D02*
Y321816D01*
Y365914D02*
X409370D01*
Y321816D02*
Y365914D01*
X391336Y321816D02*
X409370D01*
X309332D02*
X327332D01*
X309332D02*
Y365914D01*
X409370Y328816D02*
Y359056D01*
X397432Y416968D02*
X416482D01*
Y397918D02*
Y416968D01*
X397432Y397918D02*
X416482D01*
X397432D02*
Y416968D01*
X550430Y315816D02*
Y321816D01*
X532396Y315816D02*
X550430D01*
X532396D02*
Y321816D01*
X468392D02*
X532396D01*
X468392Y315816D02*
Y321816D01*
X450392Y315816D02*
X468392D01*
X450392D02*
Y321816D01*
Y365914D02*
X550430D01*
Y321816D02*
Y365914D01*
X532396Y321816D02*
X550430D01*
X450392D02*
X468392D01*
X450392D02*
Y365914D01*
X550430Y328816D02*
Y359056D01*
X538492Y416968D02*
X557542D01*
Y397918D02*
Y416968D01*
X538492Y397918D02*
X557542D01*
X538492D02*
Y416968D01*
X409370Y453906D02*
Y459906D01*
X391336Y453906D02*
X409370D01*
X391336D02*
Y459906D01*
X327332D02*
X391336D01*
X327332Y453906D02*
Y459906D01*
X309332Y453906D02*
X327332D01*
X309332D02*
Y459906D01*
Y504004D02*
X409370D01*
Y459906D02*
Y504004D01*
X391336Y459906D02*
X409370D01*
X309332D02*
X327332D01*
X309332D02*
Y504004D01*
X409370Y466906D02*
Y497146D01*
X397432Y555058D02*
X416482D01*
Y536008D02*
Y555058D01*
X397432Y536008D02*
X416482D01*
X397432D02*
Y555058D01*
X550430Y453906D02*
Y459906D01*
X532396Y453906D02*
X550430D01*
X532396D02*
Y459906D01*
X468392D02*
X532396D01*
X468392Y453906D02*
Y459906D01*
X450392Y453906D02*
X468392D01*
X450392D02*
Y459906D01*
Y504004D02*
X550430D01*
Y459906D02*
Y504004D01*
X532396Y459906D02*
X550430D01*
X450392D02*
X468392D01*
X450392D02*
Y504004D01*
X550430Y466906D02*
Y497146D01*
X538492Y555058D02*
X557542D01*
Y536008D02*
Y555058D01*
X538492Y536008D02*
X557542D01*
X538492D02*
Y555058D01*
X409370Y591996D02*
Y597996D01*
X391336Y591996D02*
X409370D01*
X391336D02*
Y597996D01*
X327332D02*
X391336D01*
X327332Y591996D02*
Y597996D01*
X309332Y591996D02*
X327332D01*
X309332D02*
Y597996D01*
Y642094D02*
X409370D01*
Y597996D02*
Y642094D01*
X391336Y597996D02*
X409370D01*
X309332D02*
X327332D01*
X309332D02*
Y642094D01*
X409370Y604996D02*
Y635236D01*
X397432Y693148D02*
X416482D01*
Y674098D02*
Y693148D01*
X397432Y674098D02*
X416482D01*
X397432D02*
Y693148D01*
X550430Y591996D02*
Y597996D01*
X532396Y591996D02*
X550430D01*
X532396D02*
Y597996D01*
X468392D02*
X532396D01*
X468392Y591996D02*
Y597996D01*
X450392Y591996D02*
X468392D01*
X450392D02*
Y597996D01*
Y642094D02*
X550430D01*
Y597996D02*
Y642094D01*
X532396Y597996D02*
X550430D01*
X450392D02*
X468392D01*
X450392D02*
Y642094D01*
X550430Y604996D02*
Y635236D01*
X538492Y693148D02*
X557542D01*
Y674098D02*
Y693148D01*
X538492Y674098D02*
X557542D01*
X538492D02*
Y693148D01*
X409370Y730086D02*
Y736086D01*
X391336Y730086D02*
X409370D01*
X391336D02*
Y736086D01*
X327332D02*
X391336D01*
X327332Y730086D02*
Y736086D01*
X309332Y730086D02*
X327332D01*
X309332D02*
Y736086D01*
Y780184D02*
X409370D01*
Y736086D02*
Y780184D01*
X391336Y736086D02*
X409370D01*
X309332D02*
X327332D01*
X309332D02*
Y780184D01*
X409370Y743086D02*
Y773326D01*
X397432Y831238D02*
X416482D01*
Y812188D02*
Y831238D01*
X397432Y812188D02*
X416482D01*
X397432D02*
Y831238D01*
X550430Y730086D02*
Y736086D01*
X532396Y730086D02*
X550430D01*
X532396D02*
Y736086D01*
X468392D02*
X532396D01*
X468392Y730086D02*
Y736086D01*
X450392Y730086D02*
X468392D01*
X450392D02*
Y736086D01*
Y780184D02*
X550430D01*
Y736086D02*
Y780184D01*
X532396Y736086D02*
X550430D01*
X450392D02*
X468392D01*
X450392D02*
Y780184D01*
X550430Y743086D02*
Y773326D01*
X538492Y831238D02*
X557542D01*
Y812188D02*
Y831238D01*
X538492Y812188D02*
X557542D01*
X538492D02*
Y831238D01*
X409370Y868176D02*
Y874176D01*
X391336Y868176D02*
X409370D01*
X391336D02*
Y874176D01*
X327332D02*
X391336D01*
X327332Y868176D02*
Y874176D01*
X309332Y868176D02*
X327332D01*
X309332D02*
Y874176D01*
Y918274D02*
X409370D01*
Y874176D02*
Y918274D01*
X391336Y874176D02*
X409370D01*
X309332D02*
X327332D01*
X309332D02*
Y918274D01*
X409370Y881176D02*
Y911416D01*
X397432Y969328D02*
X416482D01*
Y950278D02*
Y969328D01*
X397432Y950278D02*
X416482D01*
X397432D02*
Y969328D01*
X550430Y868176D02*
Y874176D01*
X532396Y868176D02*
X550430D01*
X532396D02*
Y874176D01*
X468392D02*
X532396D01*
X468392Y868176D02*
Y874176D01*
X450392Y868176D02*
X468392D01*
X450392D02*
Y874176D01*
Y918274D02*
X550430D01*
Y874176D02*
Y918274D01*
X532396Y874176D02*
X550430D01*
X450392D02*
X468392D01*
X450392D02*
Y918274D01*
X550430Y881176D02*
Y911416D01*
X538492Y969328D02*
X557542D01*
Y950278D02*
Y969328D01*
X538492Y950278D02*
X557542D01*
X538492D02*
Y969328D01*
X127255Y39641D02*
Y45641D01*
X109221Y39641D02*
X127255D01*
X109221D02*
Y45641D01*
X45217D02*
X109221D01*
X45217Y39641D02*
Y45641D01*
X27217Y39641D02*
X45217D01*
X27217D02*
Y45641D01*
Y89739D02*
X127255D01*
Y45641D02*
Y89739D01*
X109221Y45641D02*
X127255D01*
X27217D02*
X45217D01*
X27217D02*
Y89739D01*
X127255Y52641D02*
Y82881D01*
X115317Y140793D02*
X134367D01*
Y121743D02*
Y140793D01*
X115317Y121743D02*
X134367D01*
X115317D02*
Y140793D01*
X268315Y39641D02*
Y45641D01*
X250281Y39641D02*
X268315D01*
X250281D02*
Y45641D01*
X186277D02*
X250281D01*
X186277Y39641D02*
Y45641D01*
X168277Y39641D02*
X186277D01*
X168277D02*
Y45641D01*
Y89739D02*
X268315D01*
Y45641D02*
Y89739D01*
X250281Y45641D02*
X268315D01*
X168277D02*
X186277D01*
X168277D02*
Y89739D01*
X268315Y52641D02*
Y82881D01*
X256377Y140793D02*
X275427D01*
Y121743D02*
Y140793D01*
X256377Y121743D02*
X275427D01*
X256377D02*
Y140793D01*
X127255Y177731D02*
Y183731D01*
X109221Y177731D02*
X127255D01*
X109221D02*
Y183731D01*
X45217D02*
X109221D01*
X45217Y177731D02*
Y183731D01*
X27217Y177731D02*
X45217D01*
X27217D02*
Y183731D01*
Y227829D02*
X127255D01*
Y183731D02*
Y227829D01*
X109221Y183731D02*
X127255D01*
X27217D02*
X45217D01*
X27217D02*
Y227829D01*
X127255Y190731D02*
Y220971D01*
X115317Y278883D02*
X134367D01*
Y259833D02*
Y278883D01*
X115317Y259833D02*
X134367D01*
X115317D02*
Y278883D01*
X268315Y177731D02*
Y183731D01*
X250281Y177731D02*
X268315D01*
X250281D02*
Y183731D01*
X186277D02*
X250281D01*
X186277Y177731D02*
Y183731D01*
X168277Y177731D02*
X186277D01*
X168277D02*
Y183731D01*
Y227829D02*
X268315D01*
Y183731D02*
Y227829D01*
X250281Y183731D02*
X268315D01*
X168277D02*
X186277D01*
X168277D02*
Y227829D01*
X268315Y190731D02*
Y220971D01*
X256377Y278883D02*
X275427D01*
Y259833D02*
Y278883D01*
X256377Y259833D02*
X275427D01*
X256377D02*
Y278883D01*
X127255Y315821D02*
Y321821D01*
X109221Y315821D02*
X127255D01*
X109221D02*
Y321821D01*
X45217D02*
X109221D01*
X45217Y315821D02*
Y321821D01*
X27217Y315821D02*
X45217D01*
X27217D02*
Y321821D01*
Y365919D02*
X127255D01*
Y321821D02*
Y365919D01*
X109221Y321821D02*
X127255D01*
X27217D02*
X45217D01*
X27217D02*
Y365919D01*
X127255Y328821D02*
Y359061D01*
X115317Y416973D02*
X134367D01*
Y397923D02*
Y416973D01*
X115317Y397923D02*
X134367D01*
X115317D02*
Y416973D01*
X268315Y315821D02*
Y321821D01*
X250281Y315821D02*
X268315D01*
X250281D02*
Y321821D01*
X186277D02*
X250281D01*
X186277Y315821D02*
Y321821D01*
X168277Y315821D02*
X186277D01*
X168277D02*
Y321821D01*
Y365919D02*
X268315D01*
Y321821D02*
Y365919D01*
X250281Y321821D02*
X268315D01*
X168277D02*
X186277D01*
X168277D02*
Y365919D01*
X268315Y328821D02*
Y359061D01*
X256377Y416973D02*
X275427D01*
Y397923D02*
Y416973D01*
X256377Y397923D02*
X275427D01*
X256377D02*
Y416973D01*
X127255Y453911D02*
Y459911D01*
X109221Y453911D02*
X127255D01*
X109221D02*
Y459911D01*
X45217D02*
X109221D01*
X45217Y453911D02*
Y459911D01*
X27217Y453911D02*
X45217D01*
X27217D02*
Y459911D01*
Y504009D02*
X127255D01*
Y459911D02*
Y504009D01*
X109221Y459911D02*
X127255D01*
X27217D02*
X45217D01*
X27217D02*
Y504009D01*
X127255Y466911D02*
Y497151D01*
X115317Y555063D02*
X134367D01*
Y536013D02*
Y555063D01*
X115317Y536013D02*
X134367D01*
X115317D02*
Y555063D01*
X268315Y453911D02*
Y459911D01*
X250281Y453911D02*
X268315D01*
X250281D02*
Y459911D01*
X186277D02*
X250281D01*
X186277Y453911D02*
Y459911D01*
X168277Y453911D02*
X186277D01*
X168277D02*
Y459911D01*
Y504009D02*
X268315D01*
Y459911D02*
Y504009D01*
X250281Y459911D02*
X268315D01*
X168277D02*
X186277D01*
X168277D02*
Y504009D01*
X268315Y466911D02*
Y497151D01*
X256377Y555063D02*
X275427D01*
Y536013D02*
Y555063D01*
X256377Y536013D02*
X275427D01*
X256377D02*
Y555063D01*
X127255Y592001D02*
Y598001D01*
X109221Y592001D02*
X127255D01*
X109221D02*
Y598001D01*
X45217D02*
X109221D01*
X45217Y592001D02*
Y598001D01*
X27217Y592001D02*
X45217D01*
X27217D02*
Y598001D01*
Y642099D02*
X127255D01*
Y598001D02*
Y642099D01*
X109221Y598001D02*
X127255D01*
X27217D02*
X45217D01*
X27217D02*
Y642099D01*
X127255Y605001D02*
Y635241D01*
X115317Y693153D02*
X134367D01*
Y674103D02*
Y693153D01*
X115317Y674103D02*
X134367D01*
X115317D02*
Y693153D01*
X268315Y592001D02*
Y598001D01*
X250281Y592001D02*
X268315D01*
X250281D02*
Y598001D01*
X186277D02*
X250281D01*
X186277Y592001D02*
Y598001D01*
X168277Y592001D02*
X186277D01*
X168277D02*
Y598001D01*
Y642099D02*
X268315D01*
Y598001D02*
Y642099D01*
X250281Y598001D02*
X268315D01*
X168277D02*
X186277D01*
X168277D02*
Y642099D01*
X268315Y605001D02*
Y635241D01*
X256377Y693153D02*
X275427D01*
Y674103D02*
Y693153D01*
X256377Y674103D02*
X275427D01*
X256377D02*
Y693153D01*
X127255Y730091D02*
Y736091D01*
X109221Y730091D02*
X127255D01*
X109221D02*
Y736091D01*
X45217D02*
X109221D01*
X45217Y730091D02*
Y736091D01*
X27217Y730091D02*
X45217D01*
X27217D02*
Y736091D01*
Y780189D02*
X127255D01*
Y736091D02*
Y780189D01*
X109221Y736091D02*
X127255D01*
X27217D02*
X45217D01*
X27217D02*
Y780189D01*
X127255Y743091D02*
Y773331D01*
X115317Y831243D02*
X134367D01*
Y812193D02*
Y831243D01*
X115317Y812193D02*
X134367D01*
X115317D02*
Y831243D01*
X268315Y730091D02*
Y736091D01*
X250281Y730091D02*
X268315D01*
X250281D02*
Y736091D01*
X186277D02*
X250281D01*
X186277Y730091D02*
Y736091D01*
X168277Y730091D02*
X186277D01*
X168277D02*
Y736091D01*
Y780189D02*
X268315D01*
Y736091D02*
Y780189D01*
X250281Y736091D02*
X268315D01*
X168277D02*
X186277D01*
X168277D02*
Y780189D01*
X268315Y743091D02*
Y773331D01*
X256377Y831243D02*
X275427D01*
Y812193D02*
Y831243D01*
X256377Y812193D02*
X275427D01*
X256377D02*
Y831243D01*
X127255Y868181D02*
Y874181D01*
X109221Y868181D02*
X127255D01*
X109221D02*
Y874181D01*
X45217D02*
X109221D01*
X45217Y868181D02*
Y874181D01*
X27217Y868181D02*
X45217D01*
X27217D02*
Y874181D01*
Y918279D02*
X127255D01*
Y874181D02*
Y918279D01*
X109221Y874181D02*
X127255D01*
X27217D02*
X45217D01*
X27217D02*
Y918279D01*
X127255Y881181D02*
Y911421D01*
X115317Y969333D02*
X134367D01*
Y950283D02*
Y969333D01*
X115317Y950283D02*
X134367D01*
X115317D02*
Y969333D01*
X268315Y868181D02*
Y874181D01*
X250281Y868181D02*
X268315D01*
X250281D02*
Y874181D01*
X186277D02*
X250281D01*
X186277Y868181D02*
Y874181D01*
X168277Y868181D02*
X186277D01*
X168277D02*
Y874181D01*
Y918279D02*
X268315D01*
Y874181D02*
Y918279D01*
X250281Y874181D02*
X268315D01*
X168277D02*
X186277D01*
X168277D02*
Y918279D01*
X268315Y881181D02*
Y911421D01*
X256377Y969333D02*
X275427D01*
Y950283D02*
Y969333D01*
X256377Y950283D02*
X275427D01*
X256377D02*
Y969333D01*
D15*
X732512Y57636D02*
Y77796D01*
X873572Y57636D02*
Y77796D01*
X732512Y195726D02*
Y215886D01*
X873572Y195726D02*
Y215886D01*
X732512Y333816D02*
Y353976D01*
X873572Y333816D02*
Y353976D01*
X732512Y471906D02*
Y492066D01*
X873572Y471906D02*
Y492066D01*
X732512Y609996D02*
Y630156D01*
X873572Y609996D02*
Y630156D01*
X732512Y748086D02*
Y768246D01*
X873572Y748086D02*
Y768246D01*
X732512Y886176D02*
Y906336D01*
X873572Y886176D02*
Y906336D01*
X591452Y57636D02*
Y77796D01*
Y195726D02*
Y215886D01*
Y333816D02*
Y353976D01*
Y471906D02*
Y492066D01*
Y609996D02*
Y630156D01*
Y748086D02*
Y768246D01*
Y886176D02*
Y906336D01*
X309332Y57636D02*
Y77796D01*
X450392Y57636D02*
Y77796D01*
X309332Y195726D02*
Y215886D01*
X450392Y195726D02*
Y215886D01*
X309332Y333816D02*
Y353976D01*
X450392Y333816D02*
Y353976D01*
X309332Y471906D02*
Y492066D01*
X450392Y471906D02*
Y492066D01*
X309332Y609996D02*
Y630156D01*
X450392Y609996D02*
Y630156D01*
X309332Y748086D02*
Y768246D01*
X450392Y748086D02*
Y768246D01*
X309332Y886176D02*
Y906336D01*
X450392Y886176D02*
Y906336D01*
X27217Y57641D02*
Y77801D01*
X168277Y57641D02*
Y77801D01*
X27217Y195731D02*
Y215891D01*
X168277Y195731D02*
Y215891D01*
X27217Y333821D02*
Y353981D01*
X168277Y333821D02*
Y353981D01*
X27217Y471911D02*
Y492071D01*
X168277Y471911D02*
Y492071D01*
X27217Y610001D02*
Y630161D01*
X168277Y610001D02*
Y630161D01*
X27217Y748091D02*
Y768251D01*
X168277Y748091D02*
Y768251D01*
X27217Y886181D02*
Y906341D01*
X168277Y886181D02*
Y906341D01*
D16*
X720512Y97862D02*
X763512D01*
X720512D02*
Y145468D01*
X844742D01*
Y97862D02*
Y145468D01*
X801562Y97862D02*
X844742D01*
X801562D02*
Y121770D01*
X763512D02*
X801562D01*
X763512Y97862D02*
Y121770D01*
X861572Y97862D02*
X904572D01*
X861572D02*
Y145468D01*
X985802D01*
Y97862D02*
Y145468D01*
X942622Y97862D02*
X985802D01*
X942622D02*
Y121770D01*
X904572D02*
X942622D01*
X904572Y97862D02*
Y121770D01*
X720512Y235952D02*
X763512D01*
X720512D02*
Y283558D01*
X844742D01*
Y235952D02*
Y283558D01*
X801562Y235952D02*
X844742D01*
X801562D02*
Y259860D01*
X763512D02*
X801562D01*
X763512Y235952D02*
Y259860D01*
X861572Y235952D02*
X904572D01*
X861572D02*
Y283558D01*
X985802D01*
Y235952D02*
Y283558D01*
X942622Y235952D02*
X985802D01*
X942622D02*
Y259860D01*
X904572D02*
X942622D01*
X904572Y235952D02*
Y259860D01*
X720512Y374042D02*
X763512D01*
X720512D02*
Y421648D01*
X844742D01*
Y374042D02*
Y421648D01*
X801562Y374042D02*
X844742D01*
X801562D02*
Y397950D01*
X763512D02*
X801562D01*
X763512Y374042D02*
Y397950D01*
X861572Y374042D02*
X904572D01*
X861572D02*
Y421648D01*
X985802D01*
Y374042D02*
Y421648D01*
X942622Y374042D02*
X985802D01*
X942622D02*
Y397950D01*
X904572D02*
X942622D01*
X904572Y374042D02*
Y397950D01*
X720512Y512132D02*
X763512D01*
X720512D02*
Y559738D01*
X844742D01*
Y512132D02*
Y559738D01*
X801562Y512132D02*
X844742D01*
X801562D02*
Y536040D01*
X763512D02*
X801562D01*
X763512Y512132D02*
Y536040D01*
X861572Y512132D02*
X904572D01*
X861572D02*
Y559738D01*
X985802D01*
Y512132D02*
Y559738D01*
X942622Y512132D02*
X985802D01*
X942622D02*
Y536040D01*
X904572D02*
X942622D01*
X904572Y512132D02*
Y536040D01*
X720512Y650222D02*
X763512D01*
X720512D02*
Y697828D01*
X844742D01*
Y650222D02*
Y697828D01*
X801562Y650222D02*
X844742D01*
X801562D02*
Y674130D01*
X763512D02*
X801562D01*
X763512Y650222D02*
Y674130D01*
X861572Y650222D02*
X904572D01*
X861572D02*
Y697828D01*
X985802D01*
Y650222D02*
Y697828D01*
X942622Y650222D02*
X985802D01*
X942622D02*
Y674130D01*
X904572D02*
X942622D01*
X904572Y650222D02*
Y674130D01*
X720512Y788312D02*
X763512D01*
X720512D02*
Y835918D01*
X844742D01*
Y788312D02*
Y835918D01*
X801562Y788312D02*
X844742D01*
X801562D02*
Y812220D01*
X763512D02*
X801562D01*
X763512Y788312D02*
Y812220D01*
X861572Y788312D02*
X904572D01*
X861572D02*
Y835918D01*
X985802D01*
Y788312D02*
Y835918D01*
X942622Y788312D02*
X985802D01*
X942622D02*
Y812220D01*
X904572D02*
X942622D01*
X904572Y788312D02*
Y812220D01*
X720512Y926402D02*
X763512D01*
X720512D02*
Y974008D01*
X844742D01*
Y926402D02*
Y974008D01*
X801562Y926402D02*
X844742D01*
X801562D02*
Y950310D01*
X763512D02*
X801562D01*
X763512Y926402D02*
Y950310D01*
X861572Y926402D02*
X904572D01*
X861572D02*
Y974008D01*
X985802D01*
Y926402D02*
Y974008D01*
X942622Y926402D02*
X985802D01*
X942622D02*
Y950310D01*
X904572D02*
X942622D01*
X904572Y926402D02*
Y950310D01*
X579452Y97862D02*
X622452D01*
X579452D02*
Y145468D01*
X703682D01*
Y97862D02*
Y145468D01*
X660502Y97862D02*
X703682D01*
X660502D02*
Y121770D01*
X622452D02*
X660502D01*
X622452Y97862D02*
Y121770D01*
X579452Y235952D02*
X622452D01*
X579452D02*
Y283558D01*
X703682D01*
Y235952D02*
Y283558D01*
X660502Y235952D02*
X703682D01*
X660502D02*
Y259860D01*
X622452D02*
X660502D01*
X622452Y235952D02*
Y259860D01*
X579452Y374042D02*
X622452D01*
X579452D02*
Y421648D01*
X703682D01*
Y374042D02*
Y421648D01*
X660502Y374042D02*
X703682D01*
X660502D02*
Y397950D01*
X622452D02*
X660502D01*
X622452Y374042D02*
Y397950D01*
X579452Y512132D02*
X622452D01*
X579452D02*
Y559738D01*
X703682D01*
Y512132D02*
Y559738D01*
X660502Y512132D02*
X703682D01*
X660502D02*
Y536040D01*
X622452D02*
X660502D01*
X622452Y512132D02*
Y536040D01*
X579452Y650222D02*
X622452D01*
X579452D02*
Y697828D01*
X703682D01*
Y650222D02*
Y697828D01*
X660502Y650222D02*
X703682D01*
X660502D02*
Y674130D01*
X622452D02*
X660502D01*
X622452Y650222D02*
Y674130D01*
X579452Y788312D02*
X622452D01*
X579452D02*
Y835918D01*
X703682D01*
Y788312D02*
Y835918D01*
X660502Y788312D02*
X703682D01*
X660502D02*
Y812220D01*
X622452D02*
X660502D01*
X622452Y788312D02*
Y812220D01*
X579452Y926402D02*
X622452D01*
X579452D02*
Y974008D01*
X703682D01*
Y926402D02*
Y974008D01*
X660502Y926402D02*
X703682D01*
X660502D02*
Y950310D01*
X622452D02*
X660502D01*
X622452Y926402D02*
Y950310D01*
X297332Y97862D02*
X340332D01*
X297332D02*
Y145468D01*
X421562D01*
Y97862D02*
Y145468D01*
X378382Y97862D02*
X421562D01*
X378382D02*
Y121770D01*
X340332D02*
X378382D01*
X340332Y97862D02*
Y121770D01*
X438392Y97862D02*
X481392D01*
X438392D02*
Y145468D01*
X562622D01*
Y97862D02*
Y145468D01*
X519442Y97862D02*
X562622D01*
X519442D02*
Y121770D01*
X481392D02*
X519442D01*
X481392Y97862D02*
Y121770D01*
X297332Y235952D02*
X340332D01*
X297332D02*
Y283558D01*
X421562D01*
Y235952D02*
Y283558D01*
X378382Y235952D02*
X421562D01*
X378382D02*
Y259860D01*
X340332D02*
X378382D01*
X340332Y235952D02*
Y259860D01*
X438392Y235952D02*
X481392D01*
X438392D02*
Y283558D01*
X562622D01*
Y235952D02*
Y283558D01*
X519442Y235952D02*
X562622D01*
X519442D02*
Y259860D01*
X481392D02*
X519442D01*
X481392Y235952D02*
Y259860D01*
X297332Y374042D02*
X340332D01*
X297332D02*
Y421648D01*
X421562D01*
Y374042D02*
Y421648D01*
X378382Y374042D02*
X421562D01*
X378382D02*
Y397950D01*
X340332D02*
X378382D01*
X340332Y374042D02*
Y397950D01*
X438392Y374042D02*
X481392D01*
X438392D02*
Y421648D01*
X562622D01*
Y374042D02*
Y421648D01*
X519442Y374042D02*
X562622D01*
X519442D02*
Y397950D01*
X481392D02*
X519442D01*
X481392Y374042D02*
Y397950D01*
X297332Y512132D02*
X340332D01*
X297332D02*
Y559738D01*
X421562D01*
Y512132D02*
Y559738D01*
X378382Y512132D02*
X421562D01*
X378382D02*
Y536040D01*
X340332D02*
X378382D01*
X340332Y512132D02*
Y536040D01*
X438392Y512132D02*
X481392D01*
X438392D02*
Y559738D01*
X562622D01*
Y512132D02*
Y559738D01*
X519442Y512132D02*
X562622D01*
X519442D02*
Y536040D01*
X481392D02*
X519442D01*
X481392Y512132D02*
Y536040D01*
X297332Y650222D02*
X340332D01*
X297332D02*
Y697828D01*
X421562D01*
Y650222D02*
Y697828D01*
X378382Y650222D02*
X421562D01*
X378382D02*
Y674130D01*
X340332D02*
X378382D01*
X340332Y650222D02*
Y674130D01*
X438392Y650222D02*
X481392D01*
X438392D02*
Y697828D01*
X562622D01*
Y650222D02*
Y697828D01*
X519442Y650222D02*
X562622D01*
X519442D02*
Y674130D01*
X481392D02*
X519442D01*
X481392Y650222D02*
Y674130D01*
X297332Y788312D02*
X340332D01*
X297332D02*
Y835918D01*
X421562D01*
Y788312D02*
Y835918D01*
X378382Y788312D02*
X421562D01*
X378382D02*
Y812220D01*
X340332D02*
X378382D01*
X340332Y788312D02*
Y812220D01*
X438392Y788312D02*
X481392D01*
X438392D02*
Y835918D01*
X562622D01*
Y788312D02*
Y835918D01*
X519442Y788312D02*
X562622D01*
X519442D02*
Y812220D01*
X481392D02*
X519442D01*
X481392Y788312D02*
Y812220D01*
X297332Y926402D02*
X340332D01*
X297332D02*
Y974008D01*
X421562D01*
Y926402D02*
Y974008D01*
X378382Y926402D02*
X421562D01*
X378382D02*
Y950310D01*
X340332D02*
X378382D01*
X340332Y926402D02*
Y950310D01*
X438392Y926402D02*
X481392D01*
X438392D02*
Y974008D01*
X562622D01*
Y926402D02*
Y974008D01*
X519442Y926402D02*
X562622D01*
X519442D02*
Y950310D01*
X481392D02*
X519442D01*
X481392Y926402D02*
Y950310D01*
X15217Y97867D02*
X58217D01*
X15217D02*
Y145473D01*
X139447D01*
Y97867D02*
Y145473D01*
X96267Y97867D02*
X139447D01*
X96267D02*
Y121775D01*
X58217D02*
X96267D01*
X58217Y97867D02*
Y121775D01*
X156277Y97867D02*
X199277D01*
X156277D02*
Y145473D01*
X280507D01*
Y97867D02*
Y145473D01*
X237327Y97867D02*
X280507D01*
X237327D02*
Y121775D01*
X199277D02*
X237327D01*
X199277Y97867D02*
Y121775D01*
X15217Y235957D02*
X58217D01*
X15217D02*
Y283563D01*
X139447D01*
Y235957D02*
Y283563D01*
X96267Y235957D02*
X139447D01*
X96267D02*
Y259865D01*
X58217D02*
X96267D01*
X58217Y235957D02*
Y259865D01*
X156277Y235957D02*
X199277D01*
X156277D02*
Y283563D01*
X280507D01*
Y235957D02*
Y283563D01*
X237327Y235957D02*
X280507D01*
X237327D02*
Y259865D01*
X199277D02*
X237327D01*
X199277Y235957D02*
Y259865D01*
X15217Y374047D02*
X58217D01*
X15217D02*
Y421653D01*
X139447D01*
Y374047D02*
Y421653D01*
X96267Y374047D02*
X139447D01*
X96267D02*
Y397955D01*
X58217D02*
X96267D01*
X58217Y374047D02*
Y397955D01*
X156277Y374047D02*
X199277D01*
X156277D02*
Y421653D01*
X280507D01*
Y374047D02*
Y421653D01*
X237327Y374047D02*
X280507D01*
X237327D02*
Y397955D01*
X199277D02*
X237327D01*
X199277Y374047D02*
Y397955D01*
X15217Y512137D02*
X58217D01*
X15217D02*
Y559743D01*
X139447D01*
Y512137D02*
Y559743D01*
X96267Y512137D02*
X139447D01*
X96267D02*
Y536045D01*
X58217D02*
X96267D01*
X58217Y512137D02*
Y536045D01*
X156277Y512137D02*
X199277D01*
X156277D02*
Y559743D01*
X280507D01*
Y512137D02*
Y559743D01*
X237327Y512137D02*
X280507D01*
X237327D02*
Y536045D01*
X199277D02*
X237327D01*
X199277Y512137D02*
Y536045D01*
X15217Y650227D02*
X58217D01*
X15217D02*
Y697833D01*
X139447D01*
Y650227D02*
Y697833D01*
X96267Y650227D02*
X139447D01*
X96267D02*
Y674135D01*
X58217D02*
X96267D01*
X58217Y650227D02*
Y674135D01*
X156277Y650227D02*
X199277D01*
X156277D02*
Y697833D01*
X280507D01*
Y650227D02*
Y697833D01*
X237327Y650227D02*
X280507D01*
X237327D02*
Y674135D01*
X199277D02*
X237327D01*
X199277Y650227D02*
Y674135D01*
X15217Y788317D02*
X58217D01*
X15217D02*
Y835923D01*
X139447D01*
Y788317D02*
Y835923D01*
X96267Y788317D02*
X139447D01*
X96267D02*
Y812225D01*
X58217D02*
X96267D01*
X58217Y788317D02*
Y812225D01*
X156277Y788317D02*
X199277D01*
X156277D02*
Y835923D01*
X280507D01*
Y788317D02*
Y835923D01*
X237327Y788317D02*
X280507D01*
X237327D02*
Y812225D01*
X199277D02*
X237327D01*
X199277Y788317D02*
Y812225D01*
X15217Y926407D02*
X58217D01*
X15217D02*
Y974013D01*
X139447D01*
Y926407D02*
Y974013D01*
X96267Y926407D02*
X139447D01*
X96267D02*
Y950315D01*
X58217D02*
X96267D01*
X58217Y926407D02*
Y950315D01*
X156277Y926407D02*
X199277D01*
X156277D02*
Y974013D01*
X280507D01*
Y926407D02*
Y974013D01*
X237327Y926407D02*
X280507D01*
X237327D02*
Y950315D01*
X199277D02*
X237327D01*
X199277Y926407D02*
Y950315D01*
D17*
X811554Y33632D02*
X810403Y32481D01*
Y30179D01*
X811554Y29028D01*
X816159D01*
X817310Y30179D01*
Y32481D01*
X816159Y33632D01*
X813857D01*
Y31330D01*
X791099Y31854D02*
Y27250D01*
X794553D01*
X793402Y29552D01*
Y30703D01*
X794553Y31854D01*
X796855D01*
X798006Y30703D01*
Y28401D01*
X796855Y27250D01*
X791099Y34157D02*
X795704D01*
X798006Y36459D01*
X795704Y38761D01*
X791099D01*
X770271Y27250D02*
X777178D01*
Y30703D01*
X776027Y31854D01*
X771423D01*
X770271Y30703D01*
Y27250D01*
X777178Y34157D02*
Y36459D01*
Y35308D01*
X770271D01*
X771423Y34157D01*
X753761Y26996D02*
X760668D01*
Y30449D01*
X759517Y31600D01*
X754912D01*
X753761Y30449D01*
Y26996D01*
X754912Y33903D02*
X753761Y35054D01*
Y37356D01*
X754912Y38507D01*
X759517D01*
X760668Y37356D01*
Y35054D01*
X759517Y33903D01*
X754912D01*
X952615Y33632D02*
X951463Y32481D01*
Y30179D01*
X952615Y29028D01*
X957219D01*
X958370Y30179D01*
Y32481D01*
X957219Y33632D01*
X954917D01*
Y31330D01*
X932159Y31854D02*
Y27250D01*
X935613D01*
X934462Y29552D01*
Y30703D01*
X935613Y31854D01*
X937915D01*
X939066Y30703D01*
Y28401D01*
X937915Y27250D01*
X932159Y34157D02*
X936764D01*
X939066Y36459D01*
X936764Y38761D01*
X932159D01*
X911331Y27250D02*
X918238D01*
Y30703D01*
X917087Y31854D01*
X912483D01*
X911331Y30703D01*
Y27250D01*
X918238Y34157D02*
Y36459D01*
Y35308D01*
X911331D01*
X912483Y34157D01*
X894821Y26996D02*
X901728D01*
Y30449D01*
X900577Y31600D01*
X895973D01*
X894821Y30449D01*
Y26996D01*
X895973Y33903D02*
X894821Y35054D01*
Y37356D01*
X895973Y38507D01*
X900577D01*
X901728Y37356D01*
Y35054D01*
X900577Y33903D01*
X895973D01*
X811554Y171722D02*
X810403Y170571D01*
Y168269D01*
X811554Y167118D01*
X816159D01*
X817310Y168269D01*
Y170571D01*
X816159Y171722D01*
X813857D01*
Y169420D01*
X791099Y169944D02*
Y165340D01*
X794553D01*
X793402Y167642D01*
Y168793D01*
X794553Y169944D01*
X796855D01*
X798006Y168793D01*
Y166491D01*
X796855Y165340D01*
X791099Y172247D02*
X795704D01*
X798006Y174549D01*
X795704Y176851D01*
X791099D01*
X770271Y165340D02*
X777178D01*
Y168793D01*
X776027Y169944D01*
X771423D01*
X770271Y168793D01*
Y165340D01*
X777178Y172247D02*
Y174549D01*
Y173398D01*
X770271D01*
X771423Y172247D01*
X753761Y165086D02*
X760668D01*
Y168539D01*
X759517Y169690D01*
X754912D01*
X753761Y168539D01*
Y165086D01*
X754912Y171993D02*
X753761Y173144D01*
Y175446D01*
X754912Y176597D01*
X759517D01*
X760668Y175446D01*
Y173144D01*
X759517Y171993D01*
X754912D01*
X952615Y171722D02*
X951463Y170571D01*
Y168269D01*
X952615Y167118D01*
X957219D01*
X958370Y168269D01*
Y170571D01*
X957219Y171722D01*
X954917D01*
Y169420D01*
X932159Y169944D02*
Y165340D01*
X935613D01*
X934462Y167642D01*
Y168793D01*
X935613Y169944D01*
X937915D01*
X939066Y168793D01*
Y166491D01*
X937915Y165340D01*
X932159Y172247D02*
X936764D01*
X939066Y174549D01*
X936764Y176851D01*
X932159D01*
X911331Y165340D02*
X918238D01*
Y168793D01*
X917087Y169944D01*
X912483D01*
X911331Y168793D01*
Y165340D01*
X918238Y172247D02*
Y174549D01*
Y173398D01*
X911331D01*
X912483Y172247D01*
X894821Y165086D02*
X901728D01*
Y168539D01*
X900577Y169690D01*
X895973D01*
X894821Y168539D01*
Y165086D01*
X895973Y171993D02*
X894821Y173144D01*
Y175446D01*
X895973Y176597D01*
X900577D01*
X901728Y175446D01*
Y173144D01*
X900577Y171993D01*
X895973D01*
X811554Y309812D02*
X810403Y308661D01*
Y306359D01*
X811554Y305208D01*
X816159D01*
X817310Y306359D01*
Y308661D01*
X816159Y309812D01*
X813857D01*
Y307510D01*
X791099Y308034D02*
Y303430D01*
X794553D01*
X793402Y305732D01*
Y306883D01*
X794553Y308034D01*
X796855D01*
X798006Y306883D01*
Y304581D01*
X796855Y303430D01*
X791099Y310337D02*
X795704D01*
X798006Y312639D01*
X795704Y314941D01*
X791099D01*
X770271Y303430D02*
X777178D01*
Y306883D01*
X776027Y308034D01*
X771423D01*
X770271Y306883D01*
Y303430D01*
X777178Y310337D02*
Y312639D01*
Y311488D01*
X770271D01*
X771423Y310337D01*
X753761Y303176D02*
X760668D01*
Y306629D01*
X759517Y307780D01*
X754912D01*
X753761Y306629D01*
Y303176D01*
X754912Y310083D02*
X753761Y311234D01*
Y313536D01*
X754912Y314687D01*
X759517D01*
X760668Y313536D01*
Y311234D01*
X759517Y310083D01*
X754912D01*
X952615Y309812D02*
X951463Y308661D01*
Y306359D01*
X952615Y305208D01*
X957219D01*
X958370Y306359D01*
Y308661D01*
X957219Y309812D01*
X954917D01*
Y307510D01*
X932159Y308034D02*
Y303430D01*
X935613D01*
X934462Y305732D01*
Y306883D01*
X935613Y308034D01*
X937915D01*
X939066Y306883D01*
Y304581D01*
X937915Y303430D01*
X932159Y310337D02*
X936764D01*
X939066Y312639D01*
X936764Y314941D01*
X932159D01*
X911331Y303430D02*
X918238D01*
Y306883D01*
X917087Y308034D01*
X912483D01*
X911331Y306883D01*
Y303430D01*
X918238Y310337D02*
Y312639D01*
Y311488D01*
X911331D01*
X912483Y310337D01*
X894821Y303176D02*
X901728D01*
Y306629D01*
X900577Y307780D01*
X895973D01*
X894821Y306629D01*
Y303176D01*
X895973Y310083D02*
X894821Y311234D01*
Y313536D01*
X895973Y314687D01*
X900577D01*
X901728Y313536D01*
Y311234D01*
X900577Y310083D01*
X895973D01*
X811554Y447902D02*
X810403Y446751D01*
Y444449D01*
X811554Y443298D01*
X816159D01*
X817310Y444449D01*
Y446751D01*
X816159Y447902D01*
X813857D01*
Y445600D01*
X791099Y446124D02*
Y441520D01*
X794553D01*
X793402Y443822D01*
Y444973D01*
X794553Y446124D01*
X796855D01*
X798006Y444973D01*
Y442671D01*
X796855Y441520D01*
X791099Y448427D02*
X795704D01*
X798006Y450729D01*
X795704Y453031D01*
X791099D01*
X770271Y441520D02*
X777178D01*
Y444973D01*
X776027Y446124D01*
X771423D01*
X770271Y444973D01*
Y441520D01*
X777178Y448427D02*
Y450729D01*
Y449578D01*
X770271D01*
X771423Y448427D01*
X753761Y441266D02*
X760668D01*
Y444719D01*
X759517Y445870D01*
X754912D01*
X753761Y444719D01*
Y441266D01*
X754912Y448173D02*
X753761Y449324D01*
Y451626D01*
X754912Y452777D01*
X759517D01*
X760668Y451626D01*
Y449324D01*
X759517Y448173D01*
X754912D01*
X952615Y447902D02*
X951463Y446751D01*
Y444449D01*
X952615Y443298D01*
X957219D01*
X958370Y444449D01*
Y446751D01*
X957219Y447902D01*
X954917D01*
Y445600D01*
X932159Y446124D02*
Y441520D01*
X935613D01*
X934462Y443822D01*
Y444973D01*
X935613Y446124D01*
X937915D01*
X939066Y444973D01*
Y442671D01*
X937915Y441520D01*
X932159Y448427D02*
X936764D01*
X939066Y450729D01*
X936764Y453031D01*
X932159D01*
X911331Y441520D02*
X918238D01*
Y444973D01*
X917087Y446124D01*
X912483D01*
X911331Y444973D01*
Y441520D01*
X918238Y448427D02*
Y450729D01*
Y449578D01*
X911331D01*
X912483Y448427D01*
X894821Y441266D02*
X901728D01*
Y444719D01*
X900577Y445870D01*
X895973D01*
X894821Y444719D01*
Y441266D01*
X895973Y448173D02*
X894821Y449324D01*
Y451626D01*
X895973Y452777D01*
X900577D01*
X901728Y451626D01*
Y449324D01*
X900577Y448173D01*
X895973D01*
X811554Y585992D02*
X810403Y584841D01*
Y582539D01*
X811554Y581388D01*
X816159D01*
X817310Y582539D01*
Y584841D01*
X816159Y585992D01*
X813857D01*
Y583690D01*
X791099Y584214D02*
Y579610D01*
X794553D01*
X793402Y581912D01*
Y583063D01*
X794553Y584214D01*
X796855D01*
X798006Y583063D01*
Y580761D01*
X796855Y579610D01*
X791099Y586517D02*
X795704D01*
X798006Y588819D01*
X795704Y591121D01*
X791099D01*
X770271Y579610D02*
X777178D01*
Y583063D01*
X776027Y584214D01*
X771423D01*
X770271Y583063D01*
Y579610D01*
X777178Y586517D02*
Y588819D01*
Y587668D01*
X770271D01*
X771423Y586517D01*
X753761Y579356D02*
X760668D01*
Y582809D01*
X759517Y583960D01*
X754912D01*
X753761Y582809D01*
Y579356D01*
X754912Y586263D02*
X753761Y587414D01*
Y589716D01*
X754912Y590867D01*
X759517D01*
X760668Y589716D01*
Y587414D01*
X759517Y586263D01*
X754912D01*
X952615Y585992D02*
X951463Y584841D01*
Y582539D01*
X952615Y581388D01*
X957219D01*
X958370Y582539D01*
Y584841D01*
X957219Y585992D01*
X954917D01*
Y583690D01*
X932159Y584214D02*
Y579610D01*
X935613D01*
X934462Y581912D01*
Y583063D01*
X935613Y584214D01*
X937915D01*
X939066Y583063D01*
Y580761D01*
X937915Y579610D01*
X932159Y586517D02*
X936764D01*
X939066Y588819D01*
X936764Y591121D01*
X932159D01*
X911331Y579610D02*
X918238D01*
Y583063D01*
X917087Y584214D01*
X912483D01*
X911331Y583063D01*
Y579610D01*
X918238Y586517D02*
Y588819D01*
Y587668D01*
X911331D01*
X912483Y586517D01*
X894821Y579356D02*
X901728D01*
Y582809D01*
X900577Y583960D01*
X895973D01*
X894821Y582809D01*
Y579356D01*
X895973Y586263D02*
X894821Y587414D01*
Y589716D01*
X895973Y590867D01*
X900577D01*
X901728Y589716D01*
Y587414D01*
X900577Y586263D01*
X895973D01*
X811554Y724082D02*
X810403Y722931D01*
Y720629D01*
X811554Y719478D01*
X816159D01*
X817310Y720629D01*
Y722931D01*
X816159Y724082D01*
X813857D01*
Y721780D01*
X791099Y722304D02*
Y717700D01*
X794553D01*
X793402Y720002D01*
Y721153D01*
X794553Y722304D01*
X796855D01*
X798006Y721153D01*
Y718851D01*
X796855Y717700D01*
X791099Y724607D02*
X795704D01*
X798006Y726909D01*
X795704Y729211D01*
X791099D01*
X770271Y717700D02*
X777178D01*
Y721153D01*
X776027Y722304D01*
X771423D01*
X770271Y721153D01*
Y717700D01*
X777178Y724607D02*
Y726909D01*
Y725758D01*
X770271D01*
X771423Y724607D01*
X753761Y717446D02*
X760668D01*
Y720899D01*
X759517Y722050D01*
X754912D01*
X753761Y720899D01*
Y717446D01*
X754912Y724353D02*
X753761Y725504D01*
Y727806D01*
X754912Y728957D01*
X759517D01*
X760668Y727806D01*
Y725504D01*
X759517Y724353D01*
X754912D01*
X952615Y724082D02*
X951463Y722931D01*
Y720629D01*
X952615Y719478D01*
X957219D01*
X958370Y720629D01*
Y722931D01*
X957219Y724082D01*
X954917D01*
Y721780D01*
X932159Y722304D02*
Y717700D01*
X935613D01*
X934462Y720002D01*
Y721153D01*
X935613Y722304D01*
X937915D01*
X939066Y721153D01*
Y718851D01*
X937915Y717700D01*
X932159Y724607D02*
X936764D01*
X939066Y726909D01*
X936764Y729211D01*
X932159D01*
X911331Y717700D02*
X918238D01*
Y721153D01*
X917087Y722304D01*
X912483D01*
X911331Y721153D01*
Y717700D01*
X918238Y724607D02*
Y726909D01*
Y725758D01*
X911331D01*
X912483Y724607D01*
X894821Y717446D02*
X901728D01*
Y720899D01*
X900577Y722050D01*
X895973D01*
X894821Y720899D01*
Y717446D01*
X895973Y724353D02*
X894821Y725504D01*
Y727806D01*
X895973Y728957D01*
X900577D01*
X901728Y727806D01*
Y725504D01*
X900577Y724353D01*
X895973D01*
X811554Y862172D02*
X810403Y861021D01*
Y858719D01*
X811554Y857568D01*
X816159D01*
X817310Y858719D01*
Y861021D01*
X816159Y862172D01*
X813857D01*
Y859870D01*
X791099Y860394D02*
Y855790D01*
X794553D01*
X793402Y858092D01*
Y859243D01*
X794553Y860394D01*
X796855D01*
X798006Y859243D01*
Y856941D01*
X796855Y855790D01*
X791099Y862697D02*
X795704D01*
X798006Y864999D01*
X795704Y867301D01*
X791099D01*
X770271Y855790D02*
X777178D01*
Y859243D01*
X776027Y860394D01*
X771423D01*
X770271Y859243D01*
Y855790D01*
X777178Y862697D02*
Y864999D01*
Y863848D01*
X770271D01*
X771423Y862697D01*
X753761Y855536D02*
X760668D01*
Y858989D01*
X759517Y860140D01*
X754912D01*
X753761Y858989D01*
Y855536D01*
X754912Y862442D02*
X753761Y863594D01*
Y865896D01*
X754912Y867047D01*
X759517D01*
X760668Y865896D01*
Y863594D01*
X759517Y862442D01*
X754912D01*
X952615Y862172D02*
X951463Y861021D01*
Y858719D01*
X952615Y857568D01*
X957219D01*
X958370Y858719D01*
Y861021D01*
X957219Y862172D01*
X954917D01*
Y859870D01*
X932159Y860394D02*
Y855790D01*
X935613D01*
X934462Y858092D01*
Y859243D01*
X935613Y860394D01*
X937915D01*
X939066Y859243D01*
Y856941D01*
X937915Y855790D01*
X932159Y862697D02*
X936764D01*
X939066Y864999D01*
X936764Y867301D01*
X932159D01*
X911331Y855790D02*
X918238D01*
Y859243D01*
X917087Y860394D01*
X912483D01*
X911331Y859243D01*
Y855790D01*
X918238Y862697D02*
Y864999D01*
Y863848D01*
X911331D01*
X912483Y862697D01*
X894821Y855536D02*
X901728D01*
Y858989D01*
X900577Y860140D01*
X895973D01*
X894821Y858989D01*
Y855536D01*
X895973Y862442D02*
X894821Y863594D01*
Y865896D01*
X895973Y867047D01*
X900577D01*
X901728Y865896D01*
Y863594D01*
X900577Y862442D01*
X895973D01*
X670749Y34140D02*
X669597Y32989D01*
Y30687D01*
X670749Y29536D01*
X675353D01*
X676504Y30687D01*
Y32989D01*
X675353Y34140D01*
X673051D01*
Y31838D01*
X650039Y30584D02*
Y25980D01*
X653493D01*
X652342Y28282D01*
Y29433D01*
X653493Y30584D01*
X655795D01*
X656946Y29433D01*
Y27131D01*
X655795Y25980D01*
X650039Y32887D02*
X654644D01*
X656946Y35189D01*
X654644Y37491D01*
X650039D01*
X628449Y26234D02*
Y30838D01*
Y28536D01*
X635356D01*
X630752Y33141D02*
X635356Y37745D01*
X633054Y35443D01*
X630752Y37745D01*
X635356Y33141D01*
X616814Y26234D02*
X609907D01*
Y29687D01*
X611059Y30838D01*
X613361D01*
X614512Y29687D01*
Y26234D01*
Y28536D02*
X616814Y30838D01*
X612210Y33141D02*
X616814Y37745D01*
X614512Y35443D01*
X612210Y37745D01*
X616814Y33141D01*
X670749Y172230D02*
X669597Y171079D01*
Y168777D01*
X670749Y167626D01*
X675353D01*
X676504Y168777D01*
Y171079D01*
X675353Y172230D01*
X673051D01*
Y169928D01*
X650039Y168674D02*
Y164070D01*
X653493D01*
X652342Y166372D01*
Y167523D01*
X653493Y168674D01*
X655795D01*
X656946Y167523D01*
Y165221D01*
X655795Y164070D01*
X650039Y170977D02*
X654644D01*
X656946Y173279D01*
X654644Y175581D01*
X650039D01*
X628449Y164324D02*
Y168928D01*
Y166626D01*
X635356D01*
X630752Y171231D02*
X635356Y175835D01*
X633054Y173533D01*
X630752Y175835D01*
X635356Y171231D01*
X616814Y164324D02*
X609907D01*
Y167777D01*
X611059Y168928D01*
X613361D01*
X614512Y167777D01*
Y164324D01*
Y166626D02*
X616814Y168928D01*
X612210Y171231D02*
X616814Y175835D01*
X614512Y173533D01*
X612210Y175835D01*
X616814Y171231D01*
X670749Y310320D02*
X669597Y309169D01*
Y306867D01*
X670749Y305716D01*
X675353D01*
X676504Y306867D01*
Y309169D01*
X675353Y310320D01*
X673051D01*
Y308018D01*
X650039Y306764D02*
Y302160D01*
X653493D01*
X652342Y304462D01*
Y305613D01*
X653493Y306764D01*
X655795D01*
X656946Y305613D01*
Y303311D01*
X655795Y302160D01*
X650039Y309067D02*
X654644D01*
X656946Y311369D01*
X654644Y313671D01*
X650039D01*
X628449Y302414D02*
Y307018D01*
Y304716D01*
X635356D01*
X630752Y309321D02*
X635356Y313925D01*
X633054Y311623D01*
X630752Y313925D01*
X635356Y309321D01*
X616814Y302414D02*
X609907D01*
Y305867D01*
X611059Y307018D01*
X613361D01*
X614512Y305867D01*
Y302414D01*
Y304716D02*
X616814Y307018D01*
X612210Y309321D02*
X616814Y313925D01*
X614512Y311623D01*
X612210Y313925D01*
X616814Y309321D01*
X670749Y448410D02*
X669597Y447259D01*
Y444957D01*
X670749Y443806D01*
X675353D01*
X676504Y444957D01*
Y447259D01*
X675353Y448410D01*
X673051D01*
Y446108D01*
X650039Y444854D02*
Y440250D01*
X653493D01*
X652342Y442552D01*
Y443703D01*
X653493Y444854D01*
X655795D01*
X656946Y443703D01*
Y441401D01*
X655795Y440250D01*
X650039Y447157D02*
X654644D01*
X656946Y449459D01*
X654644Y451761D01*
X650039D01*
X628449Y440504D02*
Y445108D01*
Y442806D01*
X635356D01*
X630752Y447411D02*
X635356Y452015D01*
X633054Y449713D01*
X630752Y452015D01*
X635356Y447411D01*
X616814Y440504D02*
X609907D01*
Y443957D01*
X611059Y445108D01*
X613361D01*
X614512Y443957D01*
Y440504D01*
Y442806D02*
X616814Y445108D01*
X612210Y447411D02*
X616814Y452015D01*
X614512Y449713D01*
X612210Y452015D01*
X616814Y447411D01*
X670749Y586500D02*
X669597Y585349D01*
Y583047D01*
X670749Y581896D01*
X675353D01*
X676504Y583047D01*
Y585349D01*
X675353Y586500D01*
X673051D01*
Y584198D01*
X650039Y582944D02*
Y578340D01*
X653493D01*
X652342Y580642D01*
Y581793D01*
X653493Y582944D01*
X655795D01*
X656946Y581793D01*
Y579491D01*
X655795Y578340D01*
X650039Y585247D02*
X654644D01*
X656946Y587549D01*
X654644Y589851D01*
X650039D01*
X628449Y578594D02*
Y583198D01*
Y580896D01*
X635356D01*
X630752Y585501D02*
X635356Y590105D01*
X633054Y587803D01*
X630752Y590105D01*
X635356Y585501D01*
X616814Y578594D02*
X609907D01*
Y582047D01*
X611059Y583198D01*
X613361D01*
X614512Y582047D01*
Y578594D01*
Y580896D02*
X616814Y583198D01*
X612210Y585501D02*
X616814Y590105D01*
X614512Y587803D01*
X612210Y590105D01*
X616814Y585501D01*
X670749Y724590D02*
X669597Y723439D01*
Y721137D01*
X670749Y719986D01*
X675353D01*
X676504Y721137D01*
Y723439D01*
X675353Y724590D01*
X673051D01*
Y722288D01*
X650039Y721034D02*
Y716430D01*
X653493D01*
X652342Y718732D01*
Y719883D01*
X653493Y721034D01*
X655795D01*
X656946Y719883D01*
Y717581D01*
X655795Y716430D01*
X650039Y723337D02*
X654644D01*
X656946Y725639D01*
X654644Y727941D01*
X650039D01*
X628449Y716684D02*
Y721288D01*
Y718986D01*
X635356D01*
X630752Y723591D02*
X635356Y728195D01*
X633054Y725893D01*
X630752Y728195D01*
X635356Y723591D01*
X616814Y716684D02*
X609907D01*
Y720137D01*
X611059Y721288D01*
X613361D01*
X614512Y720137D01*
Y716684D01*
Y718986D02*
X616814Y721288D01*
X612210Y723591D02*
X616814Y728195D01*
X614512Y725893D01*
X612210Y728195D01*
X616814Y723591D01*
X670749Y862680D02*
X669597Y861529D01*
Y859227D01*
X670749Y858076D01*
X675353D01*
X676504Y859227D01*
Y861529D01*
X675353Y862680D01*
X673051D01*
Y860378D01*
X650039Y859124D02*
Y854520D01*
X653493D01*
X652342Y856822D01*
Y857973D01*
X653493Y859124D01*
X655795D01*
X656946Y857973D01*
Y855671D01*
X655795Y854520D01*
X650039Y861426D02*
X654644D01*
X656946Y863729D01*
X654644Y866031D01*
X650039D01*
X628449Y854774D02*
Y859378D01*
Y857076D01*
X635356D01*
X630752Y861681D02*
X635356Y866285D01*
X633054Y863983D01*
X630752Y866285D01*
X635356Y861681D01*
X616814Y854774D02*
X609907D01*
Y858227D01*
X611059Y859378D01*
X613361D01*
X614512Y858227D01*
Y854774D01*
Y857076D02*
X616814Y859378D01*
X612210Y861681D02*
X616814Y866285D01*
X614512Y863983D01*
X612210Y866285D01*
X616814Y861681D01*
X388374Y33632D02*
X387223Y32481D01*
Y30179D01*
X388374Y29028D01*
X392979D01*
X394130Y30179D01*
Y32481D01*
X392979Y33632D01*
X390677D01*
Y31330D01*
X367411Y32870D02*
Y28266D01*
X370865D01*
X369714Y30568D01*
Y31719D01*
X370865Y32870D01*
X373167D01*
X374318Y31719D01*
Y29417D01*
X373167Y28266D01*
X367411Y35173D02*
X372016D01*
X374318Y37475D01*
X372016Y39777D01*
X367411D01*
X529435Y33632D02*
X528283Y32481D01*
Y30179D01*
X529435Y29028D01*
X534039D01*
X535190Y30179D01*
Y32481D01*
X534039Y33632D01*
X531737D01*
Y31330D01*
X508471Y32870D02*
Y28266D01*
X511925D01*
X510774Y30568D01*
Y31719D01*
X511925Y32870D01*
X514227D01*
X515378Y31719D01*
Y29417D01*
X514227Y28266D01*
X508471Y35173D02*
X513076D01*
X515378Y37475D01*
X513076Y39777D01*
X508471D01*
X388374Y171722D02*
X387223Y170571D01*
Y168269D01*
X388374Y167118D01*
X392979D01*
X394130Y168269D01*
Y170571D01*
X392979Y171722D01*
X390677D01*
Y169420D01*
X367411Y170960D02*
Y166356D01*
X370865D01*
X369714Y168658D01*
Y169809D01*
X370865Y170960D01*
X373167D01*
X374318Y169809D01*
Y167507D01*
X373167Y166356D01*
X367411Y173263D02*
X372016D01*
X374318Y175565D01*
X372016Y177867D01*
X367411D01*
X529435Y171722D02*
X528283Y170571D01*
Y168269D01*
X529435Y167118D01*
X534039D01*
X535190Y168269D01*
Y170571D01*
X534039Y171722D01*
X531737D01*
Y169420D01*
X508471Y170960D02*
Y166356D01*
X511925D01*
X510774Y168658D01*
Y169809D01*
X511925Y170960D01*
X514227D01*
X515378Y169809D01*
Y167507D01*
X514227Y166356D01*
X508471Y173263D02*
X513076D01*
X515378Y175565D01*
X513076Y177867D01*
X508471D01*
X388374Y309812D02*
X387223Y308661D01*
Y306359D01*
X388374Y305208D01*
X392979D01*
X394130Y306359D01*
Y308661D01*
X392979Y309812D01*
X390677D01*
Y307510D01*
X367411Y309050D02*
Y304446D01*
X370865D01*
X369714Y306748D01*
Y307899D01*
X370865Y309050D01*
X373167D01*
X374318Y307899D01*
Y305597D01*
X373167Y304446D01*
X367411Y311353D02*
X372016D01*
X374318Y313655D01*
X372016Y315957D01*
X367411D01*
X529435Y309812D02*
X528283Y308661D01*
Y306359D01*
X529435Y305208D01*
X534039D01*
X535190Y306359D01*
Y308661D01*
X534039Y309812D01*
X531737D01*
Y307510D01*
X508471Y309050D02*
Y304446D01*
X511925D01*
X510774Y306748D01*
Y307899D01*
X511925Y309050D01*
X514227D01*
X515378Y307899D01*
Y305597D01*
X514227Y304446D01*
X508471Y311353D02*
X513076D01*
X515378Y313655D01*
X513076Y315957D01*
X508471D01*
X388374Y447902D02*
X387223Y446751D01*
Y444449D01*
X388374Y443298D01*
X392979D01*
X394130Y444449D01*
Y446751D01*
X392979Y447902D01*
X390677D01*
Y445600D01*
X367411Y447140D02*
Y442536D01*
X370865D01*
X369714Y444838D01*
Y445989D01*
X370865Y447140D01*
X373167D01*
X374318Y445989D01*
Y443687D01*
X373167Y442536D01*
X367411Y449443D02*
X372016D01*
X374318Y451745D01*
X372016Y454047D01*
X367411D01*
X529435Y447902D02*
X528283Y446751D01*
Y444449D01*
X529435Y443298D01*
X534039D01*
X535190Y444449D01*
Y446751D01*
X534039Y447902D01*
X531737D01*
Y445600D01*
X508471Y447140D02*
Y442536D01*
X511925D01*
X510774Y444838D01*
Y445989D01*
X511925Y447140D01*
X514227D01*
X515378Y445989D01*
Y443687D01*
X514227Y442536D01*
X508471Y449443D02*
X513076D01*
X515378Y451745D01*
X513076Y454047D01*
X508471D01*
X388374Y585992D02*
X387223Y584841D01*
Y582539D01*
X388374Y581388D01*
X392979D01*
X394130Y582539D01*
Y584841D01*
X392979Y585992D01*
X390677D01*
Y583690D01*
X367411Y585230D02*
Y580626D01*
X370865D01*
X369714Y582928D01*
Y584079D01*
X370865Y585230D01*
X373167D01*
X374318Y584079D01*
Y581777D01*
X373167Y580626D01*
X367411Y587533D02*
X372016D01*
X374318Y589835D01*
X372016Y592137D01*
X367411D01*
X529435Y585992D02*
X528283Y584841D01*
Y582539D01*
X529435Y581388D01*
X534039D01*
X535190Y582539D01*
Y584841D01*
X534039Y585992D01*
X531737D01*
Y583690D01*
X508471Y585230D02*
Y580626D01*
X511925D01*
X510774Y582928D01*
Y584079D01*
X511925Y585230D01*
X514227D01*
X515378Y584079D01*
Y581777D01*
X514227Y580626D01*
X508471Y587533D02*
X513076D01*
X515378Y589835D01*
X513076Y592137D01*
X508471D01*
X388374Y724082D02*
X387223Y722931D01*
Y720629D01*
X388374Y719478D01*
X392979D01*
X394130Y720629D01*
Y722931D01*
X392979Y724082D01*
X390677D01*
Y721780D01*
X367411Y723320D02*
Y718716D01*
X370865D01*
X369714Y721018D01*
Y722169D01*
X370865Y723320D01*
X373167D01*
X374318Y722169D01*
Y719867D01*
X373167Y718716D01*
X367411Y725623D02*
X372016D01*
X374318Y727925D01*
X372016Y730227D01*
X367411D01*
X529435Y724082D02*
X528283Y722931D01*
Y720629D01*
X529435Y719478D01*
X534039D01*
X535190Y720629D01*
Y722931D01*
X534039Y724082D01*
X531737D01*
Y721780D01*
X508471Y723320D02*
Y718716D01*
X511925D01*
X510774Y721018D01*
Y722169D01*
X511925Y723320D01*
X514227D01*
X515378Y722169D01*
Y719867D01*
X514227Y718716D01*
X508471Y725623D02*
X513076D01*
X515378Y727925D01*
X513076Y730227D01*
X508471D01*
X388374Y862172D02*
X387223Y861021D01*
Y858719D01*
X388374Y857568D01*
X392979D01*
X394130Y858719D01*
Y861021D01*
X392979Y862172D01*
X390677D01*
Y859870D01*
X367411Y861410D02*
Y856806D01*
X370865D01*
X369714Y859108D01*
Y860259D01*
X370865Y861410D01*
X373167D01*
X374318Y860259D01*
Y857957D01*
X373167Y856806D01*
X367411Y863712D02*
X372016D01*
X374318Y866015D01*
X372016Y868317D01*
X367411D01*
X529435Y862172D02*
X528283Y861021D01*
Y858719D01*
X529435Y857568D01*
X534039D01*
X535190Y858719D01*
Y861021D01*
X534039Y862172D01*
X531737D01*
Y859870D01*
X508471Y861410D02*
Y856806D01*
X511925D01*
X510774Y859108D01*
Y860259D01*
X511925Y861410D01*
X514227D01*
X515378Y860259D01*
Y857957D01*
X514227Y856806D01*
X508471Y863712D02*
X513076D01*
X515378Y866015D01*
X513076Y868317D01*
X508471D01*
X50547Y25731D02*
X45943D01*
X43640Y28033D01*
X45943Y30335D01*
X50547D01*
X47094D01*
Y25731D01*
X50547Y32638D02*
Y34940D01*
Y33789D01*
X43640D01*
X44791Y32638D01*
X70867Y25477D02*
X66263D01*
X63960Y27779D01*
X66263Y30081D01*
X70867D01*
X67414D01*
Y25477D01*
X65111Y32384D02*
X63960Y33535D01*
Y35837D01*
X65111Y36988D01*
X69716D01*
X70867Y35837D01*
Y33535D01*
X69716Y32384D01*
X65111D01*
X106259Y33383D02*
X105108Y32232D01*
Y29930D01*
X106259Y28779D01*
X110864D01*
X112015Y29930D01*
Y32232D01*
X110864Y33383D01*
X108562D01*
Y31081D01*
X84788Y30335D02*
Y25731D01*
X88242D01*
X87091Y28033D01*
Y29184D01*
X88242Y30335D01*
X90544D01*
X91695Y29184D01*
Y26882D01*
X90544Y25731D01*
X84788Y32638D02*
X89393D01*
X91695Y34940D01*
X89393Y37242D01*
X84788D01*
X191607Y25731D02*
X187003D01*
X184700Y28033D01*
X187003Y30335D01*
X191607D01*
X188154D01*
Y25731D01*
X191607Y32638D02*
Y34940D01*
Y33789D01*
X184700D01*
X185851Y32638D01*
X211927Y25477D02*
X207323D01*
X205020Y27779D01*
X207323Y30081D01*
X211927D01*
X208474D01*
Y25477D01*
X206171Y32384D02*
X205020Y33535D01*
Y35837D01*
X206171Y36988D01*
X210776D01*
X211927Y35837D01*
Y33535D01*
X210776Y32384D01*
X206171D01*
X247320Y33383D02*
X246168Y32232D01*
Y29930D01*
X247320Y28779D01*
X251924D01*
X253075Y29930D01*
Y32232D01*
X251924Y33383D01*
X249622D01*
Y31081D01*
X225848Y30335D02*
Y25731D01*
X229302D01*
X228151Y28033D01*
Y29184D01*
X229302Y30335D01*
X231604D01*
X232755Y29184D01*
Y26882D01*
X231604Y25731D01*
X225848Y32638D02*
X230453D01*
X232755Y34940D01*
X230453Y37242D01*
X225848D01*
X50547Y163821D02*
X45943D01*
X43640Y166123D01*
X45943Y168425D01*
X50547D01*
X47094D01*
Y163821D01*
X50547Y170728D02*
Y173030D01*
Y171879D01*
X43640D01*
X44791Y170728D01*
X70867Y163567D02*
X66263D01*
X63960Y165869D01*
X66263Y168171D01*
X70867D01*
X67414D01*
Y163567D01*
X65111Y170473D02*
X63960Y171625D01*
Y173927D01*
X65111Y175078D01*
X69716D01*
X70867Y173927D01*
Y171625D01*
X69716Y170473D01*
X65111D01*
X106259Y171473D02*
X105108Y170322D01*
Y168020D01*
X106259Y166869D01*
X110864D01*
X112015Y168020D01*
Y170322D01*
X110864Y171473D01*
X108562D01*
Y169171D01*
X84788Y168425D02*
Y163821D01*
X88242D01*
X87091Y166123D01*
Y167274D01*
X88242Y168425D01*
X90544D01*
X91695Y167274D01*
Y164972D01*
X90544Y163821D01*
X84788Y170728D02*
X89393D01*
X91695Y173030D01*
X89393Y175332D01*
X84788D01*
X191607Y163821D02*
X187003D01*
X184700Y166123D01*
X187003Y168425D01*
X191607D01*
X188154D01*
Y163821D01*
X191607Y170728D02*
Y173030D01*
Y171879D01*
X184700D01*
X185851Y170728D01*
X211927Y163567D02*
X207323D01*
X205020Y165869D01*
X207323Y168171D01*
X211927D01*
X208474D01*
Y163567D01*
X206171Y170473D02*
X205020Y171625D01*
Y173927D01*
X206171Y175078D01*
X210776D01*
X211927Y173927D01*
Y171625D01*
X210776Y170473D01*
X206171D01*
X247320Y171473D02*
X246168Y170322D01*
Y168020D01*
X247320Y166869D01*
X251924D01*
X253075Y168020D01*
Y170322D01*
X251924Y171473D01*
X249622D01*
Y169171D01*
X225848Y168425D02*
Y163821D01*
X229302D01*
X228151Y166123D01*
Y167274D01*
X229302Y168425D01*
X231604D01*
X232755Y167274D01*
Y164972D01*
X231604Y163821D01*
X225848Y170728D02*
X230453D01*
X232755Y173030D01*
X230453Y175332D01*
X225848D01*
X50547Y301911D02*
X45943D01*
X43640Y304213D01*
X45943Y306515D01*
X50547D01*
X47094D01*
Y301911D01*
X50547Y308818D02*
Y311120D01*
Y309969D01*
X43640D01*
X44791Y308818D01*
X70867Y301657D02*
X66263D01*
X63960Y303959D01*
X66263Y306261D01*
X70867D01*
X67414D01*
Y301657D01*
X65111Y308563D02*
X63960Y309715D01*
Y312017D01*
X65111Y313168D01*
X69716D01*
X70867Y312017D01*
Y309715D01*
X69716Y308563D01*
X65111D01*
X106259Y309563D02*
X105108Y308412D01*
Y306110D01*
X106259Y304959D01*
X110864D01*
X112015Y306110D01*
Y308412D01*
X110864Y309563D01*
X108562D01*
Y307261D01*
X84788Y306515D02*
Y301911D01*
X88242D01*
X87091Y304213D01*
Y305364D01*
X88242Y306515D01*
X90544D01*
X91695Y305364D01*
Y303062D01*
X90544Y301911D01*
X84788Y308818D02*
X89393D01*
X91695Y311120D01*
X89393Y313422D01*
X84788D01*
X191607Y301911D02*
X187003D01*
X184700Y304213D01*
X187003Y306515D01*
X191607D01*
X188154D01*
Y301911D01*
X191607Y308818D02*
Y311120D01*
Y309969D01*
X184700D01*
X185851Y308818D01*
X211927Y301657D02*
X207323D01*
X205020Y303959D01*
X207323Y306261D01*
X211927D01*
X208474D01*
Y301657D01*
X206171Y308563D02*
X205020Y309715D01*
Y312017D01*
X206171Y313168D01*
X210776D01*
X211927Y312017D01*
Y309715D01*
X210776Y308563D01*
X206171D01*
X247320Y309563D02*
X246168Y308412D01*
Y306110D01*
X247320Y304959D01*
X251924D01*
X253075Y306110D01*
Y308412D01*
X251924Y309563D01*
X249622D01*
Y307261D01*
X225848Y306515D02*
Y301911D01*
X229302D01*
X228151Y304213D01*
Y305364D01*
X229302Y306515D01*
X231604D01*
X232755Y305364D01*
Y303062D01*
X231604Y301911D01*
X225848Y308818D02*
X230453D01*
X232755Y311120D01*
X230453Y313422D01*
X225848D01*
X50547Y440001D02*
X45943D01*
X43640Y442303D01*
X45943Y444605D01*
X50547D01*
X47094D01*
Y440001D01*
X50547Y446908D02*
Y449210D01*
Y448059D01*
X43640D01*
X44791Y446908D01*
X70867Y439747D02*
X66263D01*
X63960Y442049D01*
X66263Y444351D01*
X70867D01*
X67414D01*
Y439747D01*
X65111Y446654D02*
X63960Y447805D01*
Y450107D01*
X65111Y451258D01*
X69716D01*
X70867Y450107D01*
Y447805D01*
X69716Y446654D01*
X65111D01*
X106259Y447653D02*
X105108Y446502D01*
Y444200D01*
X106259Y443049D01*
X110864D01*
X112015Y444200D01*
Y446502D01*
X110864Y447653D01*
X108562D01*
Y445351D01*
X84788Y444605D02*
Y440001D01*
X88242D01*
X87091Y442303D01*
Y443454D01*
X88242Y444605D01*
X90544D01*
X91695Y443454D01*
Y441152D01*
X90544Y440001D01*
X84788Y446908D02*
X89393D01*
X91695Y449210D01*
X89393Y451512D01*
X84788D01*
X191607Y440001D02*
X187003D01*
X184700Y442303D01*
X187003Y444605D01*
X191607D01*
X188154D01*
Y440001D01*
X191607Y446908D02*
Y449210D01*
Y448059D01*
X184700D01*
X185851Y446908D01*
X211927Y439747D02*
X207323D01*
X205020Y442049D01*
X207323Y444351D01*
X211927D01*
X208474D01*
Y439747D01*
X206171Y446654D02*
X205020Y447805D01*
Y450107D01*
X206171Y451258D01*
X210776D01*
X211927Y450107D01*
Y447805D01*
X210776Y446654D01*
X206171D01*
X247320Y447653D02*
X246168Y446502D01*
Y444200D01*
X247320Y443049D01*
X251924D01*
X253075Y444200D01*
Y446502D01*
X251924Y447653D01*
X249622D01*
Y445351D01*
X225848Y444605D02*
Y440001D01*
X229302D01*
X228151Y442303D01*
Y443454D01*
X229302Y444605D01*
X231604D01*
X232755Y443454D01*
Y441152D01*
X231604Y440001D01*
X225848Y446908D02*
X230453D01*
X232755Y449210D01*
X230453Y451512D01*
X225848D01*
X50547Y578091D02*
X45943D01*
X43640Y580393D01*
X45943Y582695D01*
X50547D01*
X47094D01*
Y578091D01*
X50547Y584997D02*
Y587300D01*
Y586149D01*
X43640D01*
X44791Y584997D01*
X70867Y577837D02*
X66263D01*
X63960Y580139D01*
X66263Y582441D01*
X70867D01*
X67414D01*
Y577837D01*
X65111Y584743D02*
X63960Y585895D01*
Y588197D01*
X65111Y589348D01*
X69716D01*
X70867Y588197D01*
Y585895D01*
X69716Y584743D01*
X65111D01*
X106259Y585743D02*
X105108Y584592D01*
Y582290D01*
X106259Y581139D01*
X110864D01*
X112015Y582290D01*
Y584592D01*
X110864Y585743D01*
X108562D01*
Y583441D01*
X84788Y582695D02*
Y578091D01*
X88242D01*
X87091Y580393D01*
Y581544D01*
X88242Y582695D01*
X90544D01*
X91695Y581544D01*
Y579242D01*
X90544Y578091D01*
X84788Y584997D02*
X89393D01*
X91695Y587300D01*
X89393Y589602D01*
X84788D01*
X191607Y578091D02*
X187003D01*
X184700Y580393D01*
X187003Y582695D01*
X191607D01*
X188154D01*
Y578091D01*
X191607Y584997D02*
Y587300D01*
Y586149D01*
X184700D01*
X185851Y584997D01*
X211927Y577837D02*
X207323D01*
X205020Y580139D01*
X207323Y582441D01*
X211927D01*
X208474D01*
Y577837D01*
X206171Y584743D02*
X205020Y585895D01*
Y588197D01*
X206171Y589348D01*
X210776D01*
X211927Y588197D01*
Y585895D01*
X210776Y584743D01*
X206171D01*
X247320Y585743D02*
X246168Y584592D01*
Y582290D01*
X247320Y581139D01*
X251924D01*
X253075Y582290D01*
Y584592D01*
X251924Y585743D01*
X249622D01*
Y583441D01*
X225848Y582695D02*
Y578091D01*
X229302D01*
X228151Y580393D01*
Y581544D01*
X229302Y582695D01*
X231604D01*
X232755Y581544D01*
Y579242D01*
X231604Y578091D01*
X225848Y584997D02*
X230453D01*
X232755Y587300D01*
X230453Y589602D01*
X225848D01*
X50547Y716181D02*
X45943D01*
X43640Y718483D01*
X45943Y720785D01*
X50547D01*
X47094D01*
Y716181D01*
X50547Y723087D02*
Y725390D01*
Y724239D01*
X43640D01*
X44791Y723087D01*
X70867Y715927D02*
X66263D01*
X63960Y718229D01*
X66263Y720531D01*
X70867D01*
X67414D01*
Y715927D01*
X65111Y722833D02*
X63960Y723985D01*
Y726287D01*
X65111Y727438D01*
X69716D01*
X70867Y726287D01*
Y723985D01*
X69716Y722833D01*
X65111D01*
X106259Y723833D02*
X105108Y722682D01*
Y720380D01*
X106259Y719229D01*
X110864D01*
X112015Y720380D01*
Y722682D01*
X110864Y723833D01*
X108562D01*
Y721531D01*
X84788Y720785D02*
Y716181D01*
X88242D01*
X87091Y718483D01*
Y719634D01*
X88242Y720785D01*
X90544D01*
X91695Y719634D01*
Y717332D01*
X90544Y716181D01*
X84788Y723087D02*
X89393D01*
X91695Y725390D01*
X89393Y727692D01*
X84788D01*
X191607Y716181D02*
X187003D01*
X184700Y718483D01*
X187003Y720785D01*
X191607D01*
X188154D01*
Y716181D01*
X191607Y723087D02*
Y725390D01*
Y724239D01*
X184700D01*
X185851Y723087D01*
X211927Y715927D02*
X207323D01*
X205020Y718229D01*
X207323Y720531D01*
X211927D01*
X208474D01*
Y715927D01*
X206171Y722833D02*
X205020Y723985D01*
Y726287D01*
X206171Y727438D01*
X210776D01*
X211927Y726287D01*
Y723985D01*
X210776Y722833D01*
X206171D01*
X247320Y723833D02*
X246168Y722682D01*
Y720380D01*
X247320Y719229D01*
X251924D01*
X253075Y720380D01*
Y722682D01*
X251924Y723833D01*
X249622D01*
Y721531D01*
X225848Y720785D02*
Y716181D01*
X229302D01*
X228151Y718483D01*
Y719634D01*
X229302Y720785D01*
X231604D01*
X232755Y719634D01*
Y717332D01*
X231604Y716181D01*
X225848Y723087D02*
X230453D01*
X232755Y725390D01*
X230453Y727692D01*
X225848D01*
X50547Y854271D02*
X45943D01*
X43640Y856573D01*
X45943Y858875D01*
X50547D01*
X47094D01*
Y854271D01*
X50547Y861178D02*
Y863480D01*
Y862329D01*
X43640D01*
X44791Y861178D01*
X70867Y854017D02*
X66263D01*
X63960Y856319D01*
X66263Y858621D01*
X70867D01*
X67414D01*
Y854017D01*
X65111Y860923D02*
X63960Y862075D01*
Y864377D01*
X65111Y865528D01*
X69716D01*
X70867Y864377D01*
Y862075D01*
X69716Y860923D01*
X65111D01*
X106259Y861923D02*
X105108Y860772D01*
Y858470D01*
X106259Y857319D01*
X110864D01*
X112015Y858470D01*
Y860772D01*
X110864Y861923D01*
X108562D01*
Y859621D01*
X84788Y858875D02*
Y854271D01*
X88242D01*
X87091Y856573D01*
Y857724D01*
X88242Y858875D01*
X90544D01*
X91695Y857724D01*
Y855422D01*
X90544Y854271D01*
X84788Y861178D02*
X89393D01*
X91695Y863480D01*
X89393Y865782D01*
X84788D01*
X191607Y854271D02*
X187003D01*
X184700Y856573D01*
X187003Y858875D01*
X191607D01*
X188154D01*
Y854271D01*
X191607Y861178D02*
Y863480D01*
Y862329D01*
X184700D01*
X185851Y861178D01*
X211927Y854017D02*
X207323D01*
X205020Y856319D01*
X207323Y858621D01*
X211927D01*
X208474D01*
Y854017D01*
X206171Y860923D02*
X205020Y862075D01*
Y864377D01*
X206171Y865528D01*
X210776D01*
X211927Y864377D01*
Y862075D01*
X210776Y860923D01*
X206171D01*
X247320Y861923D02*
X246168Y860772D01*
Y858470D01*
X247320Y857319D01*
X251924D01*
X253075Y858470D01*
Y860772D01*
X251924Y861923D01*
X249622D01*
Y859621D01*
X225848Y858875D02*
Y854271D01*
X229302D01*
X228151Y856573D01*
Y857724D01*
X229302Y858875D01*
X231604D01*
X232755Y857724D01*
Y855422D01*
X231604Y854271D01*
X225848Y861178D02*
X230453D01*
X232755Y863480D01*
X230453Y865782D01*
X225848D01*
D18*
X825184Y136364D02*
X833242Y124278D01*
Y136364D02*
X825184Y124278D01*
X966244Y136364D02*
X974302Y124278D01*
Y136364D02*
X966244Y124278D01*
X825184Y274454D02*
X833242Y262368D01*
Y274454D02*
X825184Y262368D01*
X966244Y274454D02*
X974302Y262368D01*
Y274454D02*
X966244Y262368D01*
X825184Y412545D02*
X833242Y400458D01*
Y412545D02*
X825184Y400458D01*
X966244Y412545D02*
X974302Y400458D01*
Y412545D02*
X966244Y400458D01*
X825184Y550634D02*
X833242Y538548D01*
Y550634D02*
X825184Y538548D01*
X966244Y550634D02*
X974302Y538548D01*
Y550634D02*
X966244Y538548D01*
X825184Y688725D02*
X833242Y676638D01*
Y688725D02*
X825184Y676638D01*
X966244Y688725D02*
X974302Y676638D01*
Y688725D02*
X966244Y676638D01*
X825184Y826814D02*
X833242Y814728D01*
Y826814D02*
X825184Y814728D01*
X966244Y826814D02*
X974302Y814728D01*
Y826814D02*
X966244Y814728D01*
X825184Y964904D02*
X833242Y952818D01*
Y964904D02*
X825184Y952818D01*
X966244Y964904D02*
X974302Y952818D01*
Y964904D02*
X966244Y952818D01*
X683870Y136364D02*
Y126292D01*
X685884Y124278D01*
X689913D01*
X691928Y126292D01*
Y136364D01*
X683870Y274454D02*
Y264382D01*
X685884Y262368D01*
X689913D01*
X691928Y264382D01*
Y274454D01*
X683870Y412545D02*
Y402472D01*
X685884Y400458D01*
X689913D01*
X691928Y402472D01*
Y412545D01*
X683870Y550634D02*
Y540562D01*
X685884Y538548D01*
X689913D01*
X691928Y540562D01*
Y550634D01*
X683870Y688725D02*
Y678652D01*
X685884Y676638D01*
X689913D01*
X691928Y678652D01*
Y688725D01*
X683870Y826814D02*
Y816742D01*
X685884Y814728D01*
X689913D01*
X691928Y816742D01*
Y826814D01*
X683870Y964904D02*
Y954832D01*
X685884Y952818D01*
X689913D01*
X691928Y954832D01*
Y964904D01*
X403782Y136364D02*
X407811D01*
X405796D01*
Y124278D01*
X403782D01*
X407811D01*
X544842Y136364D02*
X548871D01*
X546856D01*
Y124278D01*
X544842D01*
X548871D01*
X403782Y274454D02*
X407811D01*
X405796D01*
Y262368D01*
X403782D01*
X407811D01*
X544842Y274454D02*
X548871D01*
X546856D01*
Y262368D01*
X544842D01*
X548871D01*
X403782Y412545D02*
X407811D01*
X405796D01*
Y400458D01*
X403782D01*
X407811D01*
X544842Y412545D02*
X548871D01*
X546856D01*
Y400458D01*
X544842D01*
X548871D01*
X403782Y550634D02*
X407811D01*
X405796D01*
Y538548D01*
X403782D01*
X407811D01*
X544842Y550634D02*
X548871D01*
X546856D01*
Y538548D01*
X544842D01*
X548871D01*
X403782Y688725D02*
X407811D01*
X405796D01*
Y676638D01*
X403782D01*
X407811D01*
X544842Y688725D02*
X548871D01*
X546856D01*
Y676638D01*
X544842D01*
X548871D01*
X403782Y826814D02*
X407811D01*
X405796D01*
Y814728D01*
X403782D01*
X407811D01*
X544842Y826814D02*
X548871D01*
X546856D01*
Y814728D01*
X544842D01*
X548871D01*
X403782Y964904D02*
X407811D01*
X405796D01*
Y952818D01*
X403782D01*
X407811D01*
X544842Y964904D02*
X548871D01*
X546856D01*
Y952818D01*
X544842D01*
X548871D01*
X120651Y124283D02*
Y132341D01*
X124680Y136369D01*
X128709Y132341D01*
Y124283D01*
Y130326D01*
X120651D01*
X261711Y124283D02*
Y132341D01*
X265740Y136369D01*
X269769Y132341D01*
Y124283D01*
Y130326D01*
X261711D01*
X120651Y262373D02*
Y270431D01*
X124680Y274459D01*
X128709Y270431D01*
Y262373D01*
Y268416D01*
X120651D01*
X261711Y262373D02*
Y270431D01*
X265740Y274459D01*
X269769Y270431D01*
Y262373D01*
Y268416D01*
X261711D01*
X120651Y400463D02*
Y408521D01*
X124680Y412550D01*
X128709Y408521D01*
Y400463D01*
Y406506D01*
X120651D01*
X261711Y400463D02*
Y408521D01*
X265740Y412550D01*
X269769Y408521D01*
Y400463D01*
Y406506D01*
X261711D01*
X120651Y538553D02*
Y546611D01*
X124680Y550639D01*
X128709Y546611D01*
Y538553D01*
Y544596D01*
X120651D01*
X261711Y538553D02*
Y546611D01*
X265740Y550639D01*
X269769Y546611D01*
Y538553D01*
Y544596D01*
X261711D01*
X120651Y676643D02*
Y684701D01*
X124680Y688729D01*
X128709Y684701D01*
Y676643D01*
Y682686D01*
X120651D01*
X261711Y676643D02*
Y684701D01*
X265740Y688729D01*
X269769Y684701D01*
Y676643D01*
Y682686D01*
X261711D01*
X120651Y814733D02*
Y822791D01*
X124680Y826820D01*
X128709Y822791D01*
Y814733D01*
Y820776D01*
X120651D01*
X261711Y814733D02*
Y822791D01*
X265740Y826820D01*
X269769Y822791D01*
Y814733D01*
Y820776D01*
X261711D01*
X120651Y952823D02*
Y960881D01*
X124680Y964909D01*
X128709Y960881D01*
Y952823D01*
Y958866D01*
X120651D01*
X261711Y952823D02*
Y960881D01*
X265740Y964909D01*
X269769Y960881D01*
Y952823D01*
Y958866D01*
X261711D01*
D19*
X737808Y126437D02*
D03*
X878868D02*
D03*
X737808Y264527D02*
D03*
X878868D02*
D03*
X737808Y402617D02*
D03*
X878868D02*
D03*
X737808Y540707D02*
D03*
X878868D02*
D03*
X737808Y678797D02*
D03*
X878868D02*
D03*
X737808Y816887D02*
D03*
X878868D02*
D03*
X737808Y954977D02*
D03*
X878868D02*
D03*
X596748Y126437D02*
D03*
Y264527D02*
D03*
Y402617D02*
D03*
Y540707D02*
D03*
Y678797D02*
D03*
Y816887D02*
D03*
Y954977D02*
D03*
X314374Y126691D02*
D03*
X455434D02*
D03*
X314374Y264781D02*
D03*
X455434D02*
D03*
X314374Y402871D02*
D03*
X455434D02*
D03*
X314374Y540961D02*
D03*
X455434D02*
D03*
X314374Y679051D02*
D03*
X455434D02*
D03*
X314374Y817141D02*
D03*
X455434D02*
D03*
X314374Y955231D02*
D03*
X455434D02*
D03*
X32513Y126696D02*
D03*
X173573D02*
D03*
X32513Y264786D02*
D03*
X173573D02*
D03*
X32513Y402876D02*
D03*
X173573D02*
D03*
X32513Y540966D02*
D03*
X173573D02*
D03*
X32513Y679056D02*
D03*
X173573D02*
D03*
X32513Y817146D02*
D03*
X173573D02*
D03*
X32513Y955236D02*
D03*
X173573D02*
D03*
D20*
X732093Y128342D02*
D03*
X873153D02*
D03*
X732093Y266432D02*
D03*
X873153D02*
D03*
X732093Y404522D02*
D03*
X873153D02*
D03*
X732093Y542612D02*
D03*
X873153D02*
D03*
X732093Y680702D02*
D03*
X873153D02*
D03*
X732093Y818792D02*
D03*
X873153D02*
D03*
X732093Y956882D02*
D03*
X873153D02*
D03*
X591033Y128342D02*
D03*
Y266432D02*
D03*
Y404522D02*
D03*
Y542612D02*
D03*
Y680702D02*
D03*
Y818792D02*
D03*
Y956882D02*
D03*
X308659Y128596D02*
D03*
X449719D02*
D03*
X308659Y266686D02*
D03*
X449719D02*
D03*
X308659Y404776D02*
D03*
X449719D02*
D03*
X308659Y542866D02*
D03*
X449719D02*
D03*
X308659Y680956D02*
D03*
X449719D02*
D03*
X308659Y819046D02*
D03*
X449719D02*
D03*
X308659Y957136D02*
D03*
X449719D02*
D03*
X26798Y128601D02*
D03*
X167858D02*
D03*
X26798Y266691D02*
D03*
X167858D02*
D03*
X26798Y404781D02*
D03*
X167858D02*
D03*
X26798Y542871D02*
D03*
X167858D02*
D03*
X26798Y680961D02*
D03*
X167858D02*
D03*
X26798Y819051D02*
D03*
X167858D02*
D03*
X26798Y957141D02*
D03*
X167858D02*
D03*
D21*
X737808Y134057D02*
D03*
X878868D02*
D03*
X737808Y272147D02*
D03*
X878868D02*
D03*
X737808Y410237D02*
D03*
X878868D02*
D03*
X737808Y548327D02*
D03*
X878868D02*
D03*
X737808Y686417D02*
D03*
X878868D02*
D03*
X737808Y824507D02*
D03*
X878868D02*
D03*
X737808Y962597D02*
D03*
X878868D02*
D03*
X596748Y134057D02*
D03*
Y272147D02*
D03*
Y410237D02*
D03*
Y548327D02*
D03*
Y686417D02*
D03*
Y824507D02*
D03*
Y962597D02*
D03*
X314374Y134311D02*
D03*
X455434D02*
D03*
X314374Y272401D02*
D03*
X455434D02*
D03*
X314374Y410491D02*
D03*
X455434D02*
D03*
X314374Y548581D02*
D03*
X455434D02*
D03*
X314374Y686671D02*
D03*
X455434D02*
D03*
X314374Y824761D02*
D03*
X455434D02*
D03*
X314374Y962851D02*
D03*
X455434D02*
D03*
X32513Y134316D02*
D03*
X173573D02*
D03*
X32513Y272406D02*
D03*
X173573D02*
D03*
X32513Y410496D02*
D03*
X173573D02*
D03*
X32513Y548586D02*
D03*
X173573D02*
D03*
X32513Y686676D02*
D03*
X173573D02*
D03*
X32513Y824766D02*
D03*
X173573D02*
D03*
X32513Y962856D02*
D03*
X173573D02*
D03*
D22*
X747333Y130247D02*
D03*
X724473D02*
D03*
X888393D02*
D03*
X865533D02*
D03*
X747333Y268337D02*
D03*
X724473D02*
D03*
X888393D02*
D03*
X865533D02*
D03*
X747333Y406427D02*
D03*
X724473D02*
D03*
X888393D02*
D03*
X865533D02*
D03*
X747333Y544517D02*
D03*
X724473D02*
D03*
X888393D02*
D03*
X865533D02*
D03*
X747333Y682607D02*
D03*
X724473D02*
D03*
X888393D02*
D03*
X865533D02*
D03*
X747333Y820697D02*
D03*
X724473D02*
D03*
X888393D02*
D03*
X865533D02*
D03*
X747333Y958787D02*
D03*
X724473D02*
D03*
X888393D02*
D03*
X865533D02*
D03*
X606273Y130247D02*
D03*
X583413D02*
D03*
X606273Y268337D02*
D03*
X583413D02*
D03*
X606273Y406427D02*
D03*
X583413D02*
D03*
X606273Y544517D02*
D03*
X583413D02*
D03*
X606273Y682607D02*
D03*
X583413D02*
D03*
X606273Y820697D02*
D03*
X583413D02*
D03*
X606273Y958787D02*
D03*
X583413D02*
D03*
X323899Y130501D02*
D03*
X301039D02*
D03*
X464959D02*
D03*
X442099D02*
D03*
X323899Y268591D02*
D03*
X301039D02*
D03*
X464959D02*
D03*
X442099D02*
D03*
X323899Y406681D02*
D03*
X301039D02*
D03*
X464959D02*
D03*
X442099D02*
D03*
X323899Y544771D02*
D03*
X301039D02*
D03*
X464959D02*
D03*
X442099D02*
D03*
X323899Y682861D02*
D03*
X301039D02*
D03*
X464959D02*
D03*
X442099D02*
D03*
X323899Y820951D02*
D03*
X301039D02*
D03*
X464959D02*
D03*
X442099D02*
D03*
X323899Y959041D02*
D03*
X301039D02*
D03*
X464959D02*
D03*
X442099D02*
D03*
X42038Y130506D02*
D03*
X19178D02*
D03*
X183098D02*
D03*
X160238D02*
D03*
X42038Y268596D02*
D03*
X19178D02*
D03*
X183098D02*
D03*
X160238D02*
D03*
X42038Y406686D02*
D03*
X19178D02*
D03*
X183098D02*
D03*
X160238D02*
D03*
X42038Y544776D02*
D03*
X19178D02*
D03*
X183098D02*
D03*
X160238D02*
D03*
X42038Y682866D02*
D03*
X19178D02*
D03*
X183098D02*
D03*
X160238D02*
D03*
X42038Y820956D02*
D03*
X19178D02*
D03*
X183098D02*
D03*
X160238D02*
D03*
X42038Y959046D02*
D03*
X19178D02*
D03*
X183098D02*
D03*
X160238D02*
D03*
D23*
X735903Y118817D02*
D03*
Y141677D02*
D03*
X876963Y118817D02*
D03*
Y141677D02*
D03*
X735903Y256907D02*
D03*
Y279767D02*
D03*
X876963Y256907D02*
D03*
Y279767D02*
D03*
X735903Y394997D02*
D03*
Y417857D02*
D03*
X876963Y394997D02*
D03*
Y417857D02*
D03*
X735903Y533087D02*
D03*
Y555947D02*
D03*
X876963Y533087D02*
D03*
Y555947D02*
D03*
X735903Y671177D02*
D03*
Y694037D02*
D03*
X876963Y671177D02*
D03*
Y694037D02*
D03*
X735903Y809267D02*
D03*
Y832127D02*
D03*
X876963Y809267D02*
D03*
Y832127D02*
D03*
X735903Y947357D02*
D03*
Y970217D02*
D03*
X876963Y947357D02*
D03*
Y970217D02*
D03*
X594843Y118817D02*
D03*
Y141677D02*
D03*
Y256907D02*
D03*
Y279767D02*
D03*
Y394997D02*
D03*
Y417857D02*
D03*
Y533087D02*
D03*
Y555947D02*
D03*
Y671177D02*
D03*
Y694037D02*
D03*
Y809267D02*
D03*
Y832127D02*
D03*
Y947357D02*
D03*
Y970217D02*
D03*
X312469Y119071D02*
D03*
Y141931D02*
D03*
X453529Y119071D02*
D03*
Y141931D02*
D03*
X312469Y257161D02*
D03*
Y280021D02*
D03*
X453529Y257161D02*
D03*
Y280021D02*
D03*
X312469Y395251D02*
D03*
Y418111D02*
D03*
X453529Y395251D02*
D03*
Y418111D02*
D03*
X312469Y533341D02*
D03*
Y556201D02*
D03*
X453529Y533341D02*
D03*
Y556201D02*
D03*
X312469Y671431D02*
D03*
Y694291D02*
D03*
X453529Y671431D02*
D03*
Y694291D02*
D03*
X312469Y809521D02*
D03*
Y832381D02*
D03*
X453529Y809521D02*
D03*
Y832381D02*
D03*
X312469Y947611D02*
D03*
Y970471D02*
D03*
X453529Y947611D02*
D03*
Y970471D02*
D03*
X30608Y119076D02*
D03*
Y141936D02*
D03*
X171668Y119076D02*
D03*
Y141936D02*
D03*
X30608Y257166D02*
D03*
Y280026D02*
D03*
X171668Y257166D02*
D03*
Y280026D02*
D03*
X30608Y395256D02*
D03*
Y418116D02*
D03*
X171668Y395256D02*
D03*
Y418116D02*
D03*
X30608Y533346D02*
D03*
Y556206D02*
D03*
X171668Y533346D02*
D03*
Y556206D02*
D03*
X30608Y671436D02*
D03*
Y694296D02*
D03*
X171668Y671436D02*
D03*
Y694296D02*
D03*
X30608Y809526D02*
D03*
Y832386D02*
D03*
X171668Y809526D02*
D03*
Y832386D02*
D03*
X30608Y947616D02*
D03*
Y970476D02*
D03*
X171668Y947616D02*
D03*
Y970476D02*
D03*
D24*
X347395Y29941D02*
X346532Y29078D01*
Y27351D01*
X347395Y26488D01*
X348259D01*
X349122Y27351D01*
Y29078D01*
X349985Y29941D01*
X350849D01*
X351712Y29078D01*
Y27351D01*
X350849Y26488D01*
X346532Y35121D02*
X351712D01*
Y32531D01*
X350849Y31668D01*
X349122D01*
X348259Y32531D01*
Y35121D01*
Y37711D02*
Y39438D01*
X349122Y40301D01*
X351712D01*
Y37711D01*
X350849Y36848D01*
X349985Y37711D01*
Y40301D01*
X330885Y30195D02*
X330022Y29332D01*
Y27605D01*
X330885Y26742D01*
X331749D01*
X332612Y27605D01*
Y29332D01*
X333475Y30195D01*
X334339D01*
X335202Y29332D01*
Y27605D01*
X334339Y26742D01*
X331749Y35375D02*
Y32785D01*
X332612Y31922D01*
X334339D01*
X335202Y32785D01*
Y35375D01*
Y37102D02*
Y38828D01*
Y37965D01*
X330022D01*
Y37102D01*
X488455Y29941D02*
X487592Y29078D01*
Y27351D01*
X488455Y26488D01*
X489319D01*
X490182Y27351D01*
Y29078D01*
X491045Y29941D01*
X491909D01*
X492772Y29078D01*
Y27351D01*
X491909Y26488D01*
X487592Y35121D02*
X492772D01*
Y32531D01*
X491909Y31668D01*
X490182D01*
X489319Y32531D01*
Y35121D01*
Y37711D02*
Y39438D01*
X490182Y40301D01*
X492772D01*
Y37711D01*
X491909Y36848D01*
X491045Y37711D01*
Y40301D01*
X471945Y30195D02*
X471082Y29332D01*
Y27605D01*
X471945Y26742D01*
X472809D01*
X473672Y27605D01*
Y29332D01*
X474535Y30195D01*
X475399D01*
X476262Y29332D01*
Y27605D01*
X475399Y26742D01*
X472809Y35375D02*
Y32785D01*
X473672Y31922D01*
X475399D01*
X476262Y32785D01*
Y35375D01*
Y37102D02*
Y38828D01*
Y37965D01*
X471082D01*
Y37102D01*
X347395Y168031D02*
X346532Y167168D01*
Y165441D01*
X347395Y164578D01*
X348259D01*
X349122Y165441D01*
Y167168D01*
X349985Y168031D01*
X350849D01*
X351712Y167168D01*
Y165441D01*
X350849Y164578D01*
X346532Y173211D02*
X351712D01*
Y170621D01*
X350849Y169758D01*
X349122D01*
X348259Y170621D01*
Y173211D01*
Y175801D02*
Y177528D01*
X349122Y178391D01*
X351712D01*
Y175801D01*
X350849Y174938D01*
X349985Y175801D01*
Y178391D01*
X330885Y168285D02*
X330022Y167422D01*
Y165695D01*
X330885Y164832D01*
X331749D01*
X332612Y165695D01*
Y167422D01*
X333475Y168285D01*
X334339D01*
X335202Y167422D01*
Y165695D01*
X334339Y164832D01*
X331749Y173465D02*
Y170875D01*
X332612Y170012D01*
X334339D01*
X335202Y170875D01*
Y173465D01*
Y175192D02*
Y176919D01*
Y176055D01*
X330022D01*
Y175192D01*
X488455Y168031D02*
X487592Y167168D01*
Y165441D01*
X488455Y164578D01*
X489319D01*
X490182Y165441D01*
Y167168D01*
X491045Y168031D01*
X491909D01*
X492772Y167168D01*
Y165441D01*
X491909Y164578D01*
X487592Y173211D02*
X492772D01*
Y170621D01*
X491909Y169758D01*
X490182D01*
X489319Y170621D01*
Y173211D01*
Y175801D02*
Y177528D01*
X490182Y178391D01*
X492772D01*
Y175801D01*
X491909Y174938D01*
X491045Y175801D01*
Y178391D01*
X471945Y168285D02*
X471082Y167422D01*
Y165695D01*
X471945Y164832D01*
X472809D01*
X473672Y165695D01*
Y167422D01*
X474535Y168285D01*
X475399D01*
X476262Y167422D01*
Y165695D01*
X475399Y164832D01*
X472809Y173465D02*
Y170875D01*
X473672Y170012D01*
X475399D01*
X476262Y170875D01*
Y173465D01*
Y175192D02*
Y176919D01*
Y176055D01*
X471082D01*
Y175192D01*
X347395Y306121D02*
X346532Y305258D01*
Y303531D01*
X347395Y302668D01*
X348259D01*
X349122Y303531D01*
Y305258D01*
X349985Y306121D01*
X350849D01*
X351712Y305258D01*
Y303531D01*
X350849Y302668D01*
X346532Y311301D02*
X351712D01*
Y308711D01*
X350849Y307848D01*
X349122D01*
X348259Y308711D01*
Y311301D01*
Y313891D02*
Y315618D01*
X349122Y316481D01*
X351712D01*
Y313891D01*
X350849Y313028D01*
X349985Y313891D01*
Y316481D01*
X330885Y306375D02*
X330022Y305512D01*
Y303785D01*
X330885Y302922D01*
X331749D01*
X332612Y303785D01*
Y305512D01*
X333475Y306375D01*
X334339D01*
X335202Y305512D01*
Y303785D01*
X334339Y302922D01*
X331749Y311555D02*
Y308965D01*
X332612Y308102D01*
X334339D01*
X335202Y308965D01*
Y311555D01*
Y313282D02*
Y315009D01*
Y314145D01*
X330022D01*
Y313282D01*
X488455Y306121D02*
X487592Y305258D01*
Y303531D01*
X488455Y302668D01*
X489319D01*
X490182Y303531D01*
Y305258D01*
X491045Y306121D01*
X491909D01*
X492772Y305258D01*
Y303531D01*
X491909Y302668D01*
X487592Y311301D02*
X492772D01*
Y308711D01*
X491909Y307848D01*
X490182D01*
X489319Y308711D01*
Y311301D01*
Y313891D02*
Y315618D01*
X490182Y316481D01*
X492772D01*
Y313891D01*
X491909Y313028D01*
X491045Y313891D01*
Y316481D01*
X471945Y306375D02*
X471082Y305512D01*
Y303785D01*
X471945Y302922D01*
X472809D01*
X473672Y303785D01*
Y305512D01*
X474535Y306375D01*
X475399D01*
X476262Y305512D01*
Y303785D01*
X475399Y302922D01*
X472809Y311555D02*
Y308965D01*
X473672Y308102D01*
X475399D01*
X476262Y308965D01*
Y311555D01*
Y313282D02*
Y315009D01*
Y314145D01*
X471082D01*
Y313282D01*
X347395Y444211D02*
X346532Y443348D01*
Y441621D01*
X347395Y440758D01*
X348259D01*
X349122Y441621D01*
Y443348D01*
X349985Y444211D01*
X350849D01*
X351712Y443348D01*
Y441621D01*
X350849Y440758D01*
X346532Y449391D02*
X351712D01*
Y446801D01*
X350849Y445938D01*
X349122D01*
X348259Y446801D01*
Y449391D01*
Y451981D02*
Y453708D01*
X349122Y454571D01*
X351712D01*
Y451981D01*
X350849Y451118D01*
X349985Y451981D01*
Y454571D01*
X330885Y444465D02*
X330022Y443602D01*
Y441875D01*
X330885Y441012D01*
X331749D01*
X332612Y441875D01*
Y443602D01*
X333475Y444465D01*
X334339D01*
X335202Y443602D01*
Y441875D01*
X334339Y441012D01*
X331749Y449645D02*
Y447055D01*
X332612Y446192D01*
X334339D01*
X335202Y447055D01*
Y449645D01*
Y451372D02*
Y453098D01*
Y452235D01*
X330022D01*
Y451372D01*
X488455Y444211D02*
X487592Y443348D01*
Y441621D01*
X488455Y440758D01*
X489319D01*
X490182Y441621D01*
Y443348D01*
X491045Y444211D01*
X491909D01*
X492772Y443348D01*
Y441621D01*
X491909Y440758D01*
X487592Y449391D02*
X492772D01*
Y446801D01*
X491909Y445938D01*
X490182D01*
X489319Y446801D01*
Y449391D01*
Y451981D02*
Y453708D01*
X490182Y454571D01*
X492772D01*
Y451981D01*
X491909Y451118D01*
X491045Y451981D01*
Y454571D01*
X471945Y444465D02*
X471082Y443602D01*
Y441875D01*
X471945Y441012D01*
X472809D01*
X473672Y441875D01*
Y443602D01*
X474535Y444465D01*
X475399D01*
X476262Y443602D01*
Y441875D01*
X475399Y441012D01*
X472809Y449645D02*
Y447055D01*
X473672Y446192D01*
X475399D01*
X476262Y447055D01*
Y449645D01*
Y451372D02*
Y453098D01*
Y452235D01*
X471082D01*
Y451372D01*
X347395Y582301D02*
X346532Y581438D01*
Y579711D01*
X347395Y578848D01*
X348259D01*
X349122Y579711D01*
Y581438D01*
X349985Y582301D01*
X350849D01*
X351712Y581438D01*
Y579711D01*
X350849Y578848D01*
X346532Y587481D02*
X351712D01*
Y584891D01*
X350849Y584028D01*
X349122D01*
X348259Y584891D01*
Y587481D01*
Y590071D02*
Y591798D01*
X349122Y592661D01*
X351712D01*
Y590071D01*
X350849Y589208D01*
X349985Y590071D01*
Y592661D01*
X330885Y582555D02*
X330022Y581692D01*
Y579965D01*
X330885Y579102D01*
X331749D01*
X332612Y579965D01*
Y581692D01*
X333475Y582555D01*
X334339D01*
X335202Y581692D01*
Y579965D01*
X334339Y579102D01*
X331749Y587735D02*
Y585145D01*
X332612Y584282D01*
X334339D01*
X335202Y585145D01*
Y587735D01*
Y589462D02*
Y591189D01*
Y590325D01*
X330022D01*
Y589462D01*
X488455Y582301D02*
X487592Y581438D01*
Y579711D01*
X488455Y578848D01*
X489319D01*
X490182Y579711D01*
Y581438D01*
X491045Y582301D01*
X491909D01*
X492772Y581438D01*
Y579711D01*
X491909Y578848D01*
X487592Y587481D02*
X492772D01*
Y584891D01*
X491909Y584028D01*
X490182D01*
X489319Y584891D01*
Y587481D01*
Y590071D02*
Y591798D01*
X490182Y592661D01*
X492772D01*
Y590071D01*
X491909Y589208D01*
X491045Y590071D01*
Y592661D01*
X471945Y582555D02*
X471082Y581692D01*
Y579965D01*
X471945Y579102D01*
X472809D01*
X473672Y579965D01*
Y581692D01*
X474535Y582555D01*
X475399D01*
X476262Y581692D01*
Y579965D01*
X475399Y579102D01*
X472809Y587735D02*
Y585145D01*
X473672Y584282D01*
X475399D01*
X476262Y585145D01*
Y587735D01*
Y589462D02*
Y591189D01*
Y590325D01*
X471082D01*
Y589462D01*
X347395Y720391D02*
X346532Y719528D01*
Y717801D01*
X347395Y716938D01*
X348259D01*
X349122Y717801D01*
Y719528D01*
X349985Y720391D01*
X350849D01*
X351712Y719528D01*
Y717801D01*
X350849Y716938D01*
X346532Y725571D02*
X351712D01*
Y722981D01*
X350849Y722118D01*
X349122D01*
X348259Y722981D01*
Y725571D01*
Y728161D02*
Y729888D01*
X349122Y730751D01*
X351712D01*
Y728161D01*
X350849Y727298D01*
X349985Y728161D01*
Y730751D01*
X330885Y720645D02*
X330022Y719782D01*
Y718055D01*
X330885Y717192D01*
X331749D01*
X332612Y718055D01*
Y719782D01*
X333475Y720645D01*
X334339D01*
X335202Y719782D01*
Y718055D01*
X334339Y717192D01*
X331749Y725825D02*
Y723235D01*
X332612Y722372D01*
X334339D01*
X335202Y723235D01*
Y725825D01*
Y727552D02*
Y729278D01*
Y728415D01*
X330022D01*
Y727552D01*
X488455Y720391D02*
X487592Y719528D01*
Y717801D01*
X488455Y716938D01*
X489319D01*
X490182Y717801D01*
Y719528D01*
X491045Y720391D01*
X491909D01*
X492772Y719528D01*
Y717801D01*
X491909Y716938D01*
X487592Y725571D02*
X492772D01*
Y722981D01*
X491909Y722118D01*
X490182D01*
X489319Y722981D01*
Y725571D01*
Y728161D02*
Y729888D01*
X490182Y730751D01*
X492772D01*
Y728161D01*
X491909Y727298D01*
X491045Y728161D01*
Y730751D01*
X471945Y720645D02*
X471082Y719782D01*
Y718055D01*
X471945Y717192D01*
X472809D01*
X473672Y718055D01*
Y719782D01*
X474535Y720645D01*
X475399D01*
X476262Y719782D01*
Y718055D01*
X475399Y717192D01*
X472809Y725825D02*
Y723235D01*
X473672Y722372D01*
X475399D01*
X476262Y723235D01*
Y725825D01*
Y727552D02*
Y729278D01*
Y728415D01*
X471082D01*
Y727552D01*
X347395Y858481D02*
X346532Y857618D01*
Y855891D01*
X347395Y855028D01*
X348259D01*
X349122Y855891D01*
Y857618D01*
X349985Y858481D01*
X350849D01*
X351712Y857618D01*
Y855891D01*
X350849Y855028D01*
X346532Y863661D02*
X351712D01*
Y861071D01*
X350849Y860208D01*
X349122D01*
X348259Y861071D01*
Y863661D01*
Y866251D02*
Y867978D01*
X349122Y868841D01*
X351712D01*
Y866251D01*
X350849Y865388D01*
X349985Y866251D01*
Y868841D01*
X330885Y858735D02*
X330022Y857872D01*
Y856145D01*
X330885Y855282D01*
X331749D01*
X332612Y856145D01*
Y857872D01*
X333475Y858735D01*
X334339D01*
X335202Y857872D01*
Y856145D01*
X334339Y855282D01*
X331749Y863915D02*
Y861325D01*
X332612Y860462D01*
X334339D01*
X335202Y861325D01*
Y863915D01*
Y865642D02*
Y867368D01*
Y866505D01*
X330022D01*
Y865642D01*
X488455Y858481D02*
X487592Y857618D01*
Y855891D01*
X488455Y855028D01*
X489319D01*
X490182Y855891D01*
Y857618D01*
X491045Y858481D01*
X491909D01*
X492772Y857618D01*
Y855891D01*
X491909Y855028D01*
X487592Y863661D02*
X492772D01*
Y861071D01*
X491909Y860208D01*
X490182D01*
X489319Y861071D01*
Y863661D01*
Y866251D02*
Y867978D01*
X490182Y868841D01*
X492772D01*
Y866251D01*
X491909Y865388D01*
X491045Y866251D01*
Y868841D01*
X471945Y858735D02*
X471082Y857872D01*
Y856145D01*
X471945Y855282D01*
X472809D01*
X473672Y856145D01*
Y857872D01*
X474535Y858735D01*
X475399D01*
X476262Y857872D01*
Y856145D01*
X475399Y855282D01*
X472809Y863915D02*
Y861325D01*
X473672Y860462D01*
X475399D01*
X476262Y861325D01*
Y863915D01*
Y865642D02*
Y867368D01*
Y866505D01*
X471082D01*
Y865642D01*
M02*
