M48
;Layer_Color=9474304
;FILE_FORMAT=2:5
INCH,LZ
;TYPE=PLATED
T1F00S00C0.02400
T2F00S00C0.03200
%
T01
X00204Y004543
X00254
X00304
X00354
X00404
Y005043
X00354
X00304
X00254
X00204
X0075936
X0080936
X0085936
X0090936
X0095936
Y004543
X0090936
X0085936
X0080936
X0075936
X0131469Y0045428
X0136469
X0141469
X0146469
X0151469
Y0050428
X0146469
X0141469
X0136469
X0131469
X0187005
X0192005
X0197005
X0202005
X0207005
Y0045428
X0202005
X0197005
X0192005
X0187005
X024254
X024754
X025254
X025754
X026254
Y0050428
X025754
X025254
X024754
X024254
X0298076
X0303076
X0308076
X0313076
X0318076
Y0045428
X0313076
X0308076
X0303076
X0298076
X0353611
X0358611
X0363611
X0368611
Y0050428
X0363611
X0358611
X0353611
X0373611
Y0045428
Y0099795
Y0104795
Y0154161
Y0159161
Y0208527
X0368611
X0363611
X0358611
X0353611
X0318076
X0313076
X0308076
X0303076
X0298076
X026254
X025754
X025254
X024754
X024254
Y0159161
X024754
X025254
X025754
X026254
Y0154161
X025754
X025254
X024754
X024254
Y0104795
X024754
X025254
X025754
X026254
Y0099795
X025754
X025254
X024754
X024254
X0298076
X0303076
X0308076
X0313076
X0318076
Y0104795
X0313076
X0308076
X0303076
X0298076
Y0154161
X0303076
X0308076
X0313076
X0318076
Y0159161
X0313076
X0308076
X0303076
X0298076
X0353611
X0358611
X0363611
X0368611
Y0154161
X0363611
X0358611
X0353611
Y0104795
X0358611
X0363611
X0368611
Y0099795
X0363611
X0358611
X0353611
X0207005
Y0104795
X0202005
Y0099795
X0197005
Y0104795
X0192005
Y0099795
X0187005
Y0104795
X0151469
Y0099795
X0146469
Y0104795
X0141469
Y0099795
X0136469
Y0104795
X0131469
Y0099795
X0095936Y0099796
Y0104797
X0090936
Y0099796
X0085936
Y0104797
X0080936
Y0099796
X0075936
Y0104797
Y0154163
X0080936
X0085936
X0090936
X0095936
Y0159163
X0090936
X0085936
X0080936
X0075936
Y0208529
X0080936
X0085936
X0090936
X0095936
X0131469Y0208527
X0136469
X0141469
X0146469
X0151469
X0187005
X0192005
X0197005
X0202005
X0207005
Y0159161
Y0154161
X0202005
Y0159161
X0197005
Y0154161
X0192005
Y0159161
X0187005
Y0154161
X0151469
Y0159161
X0146469
Y0154161
X0141469
Y0159161
X0136469
Y0154161
X0131469
Y0159161
X00404Y0159163
Y0154163
X00354
Y0159163
X00304
Y0154163
X00254
Y0159163
X00204
Y0154163
Y0104797
X00254
X00304
X00354
X00404
Y0099796
X00354
X00304
X00254
X00204
Y0208529
X00254
X00304
X00354
X00404
Y0213529
X00354
X00304
X00254
X00204
Y0262895
X00254
X00304
X00354
X00404
Y0267895
X00354
X00304
X00254
X00204
Y0317261
X00254
X00304
X00354
X00404
Y0322261
X00354
X00304
X00254
X00204
X0075936
X0080936
X0085936
X0090936
X0095936
Y0317261
X0090936
X0085936
X0080936
X0075936
Y0267895
X0080936
X0085936
X0090936
X0095936
Y0262895
X0090936
X0085936
X0080936
X0075936
Y0213529
X0080936
X0085936
X0090936
X0095936
X0131469Y0213527
X0136469
X0141469
X0146469
X0151469
X0187005
X0192005
X0197005
X0202005
X0207005
Y0262893
Y0267893
X0202005
Y0262893
X0197005
Y0267893
X0192005
Y0262893
X0187005
Y0267893
X0151469
Y0262893
X0146469
Y0267893
X0141469
Y0262893
X0136469
Y0267893
X0131469
Y0262893
Y0317259
X0136469
X0141469
X0146469
X0151469
Y0322259
X0146469
X0141469
X0136469
X0131469
X0187005
X0192005
X0197005
X0202005
X0207005
Y0317259
X0202005
X0197005
X0192005
X0187005
X024254
X024754
X025254
X025754
X026254
Y0322259
X025754
X025254
X024754
X024254
Y0267893
X024754
X025254
X025754
X026254
Y0262893
X025754
X025254
X024754
X024254
Y0213527
X024754
X025254
X025754
X026254
X0298076
X0303076
X0308076
X0313076
X0318076
X0353611
X0358611
X0363611
X0368611
Y0262893
Y0267893
X0363611
Y0262893
X0358611
Y0267893
X0353611
Y0262893
X0318076
Y0267893
X0313076
Y0262893
X0308076
Y0267893
X0303076
Y0262893
X0298076
Y0267893
Y0317259
X0303076
X0308076
X0313076
X0318076
Y0322259
X0313076
X0308076
X0303076
X0298076
X0353611
X0358611
X0363611
X0368611
Y0317259
X0363611
X0358611
X0353611
X0373611
Y0322259
Y0267893
Y0262893
Y0213527
Y0371625
Y0376625
X0368611
Y0371625
X0363611
Y0376625
X0358611
Y0371625
X0353611
Y0376625
X0318076
Y0371625
X0313076
Y0376625
X0308076
Y0371625
X0303076
Y0376625
X0298076
Y0371625
X026254
Y0376625
X025754
Y0371625
X025254
Y0376625
X024754
Y0371625
X024254
Y0376625
X0207005
Y0371625
X0202005
Y0376625
X0197005
Y0371625
X0192005
Y0376625
X0187005
Y0371625
X0151469
Y0376625
X0146469
Y0371625
X0141469
Y0376625
X0136469
Y0371625
X0131469
Y0376625
X0095936Y0376627
Y0371627
X0090936
Y0376627
X0085936
Y0371627
X0080936
Y0376627
X0075936
Y0371627
X00404
Y0376627
X00354
Y0371627
X00304
Y0376627
X00254
Y0371627
X00204
Y0376627
T02
X0018589Y002663
X0026463
X00344
X00423
X0074125
X0081999
X0089936
X0097836
X0129658Y0026628
X0137532
X0145469
X0153369
X0185194
X0193068
X0201005
X0208905
X0240729
X0248603
X025654
X026444
X0296265
X0304139
X0312076
X0319976
X03518
X0359674
X0367611
X0375511
Y0080994
Y0135361
Y0189727
X0367611
X0359674
X03518
X0319976
X0312076
X0304139
X0296265
X026444
X025654
X0248603
X0240729
Y0135361
X0248603
X025654
X026444
X0296265
X0304139
X0312076
X0319976
X03518
X0359674
X0367611
Y0080994
X0359674
X03518
X0319976
X0312076
X0304139
X0296265
X026444
X025654
X0248603
X0240729
X0208905
X0201005
X0193068
X0185194
X0153369
X0145469
X0137532
X0129658
X0097836Y0080997
X0089936
X0081999
X0074125
Y0135363
X0081999
X0089936
X0097836
X0129658Y0135361
X0137532
X0145469
X0153369
X0185194
X0193068
X0201005
X0208905
Y0189727
X0201005
X0193068
X0185194
X0153369
X0145469
X0137532
X0129658
X0097836Y0189729
X0089936
X0081999
X0074125
X00423
X00344
X0026463
X0018589
Y0135363
X0026463
X00344
X00423
Y0080997
X00344
X0026463
X0018589
Y0244095
X0026463
X00344
X00423
Y0298461
X00344
X0026463
X0018589
Y0352827
X0026463
X00344
X00423
X0074125
X0081999
X0089936
X0097836
X0129658Y0352825
X0137532
X0145469
X0153369
X0185194
X0193068
X0201005
X0208905
Y0298459
X0201005
X0193068
X0185194
X0153369
X0145469
X0137532
X0129658
X0097836Y0298461
X0089936
X0081999
X0074125
Y0244095
X0081999
X0089936
X0097836
X0129658Y0244093
X0137532
X0145469
X0153369
X0185194
X0193068
X0201005
X0208905
X0240729
X0248603
X025654
X026444
X0296265
X0304139
X0312076
X0319976
X03518
X0359674
X0367611
Y0298459
X0359674
X03518
X0319976
X0312076
X0304139
X0296265
X026444
X025654
X0248603
X0240729
Y0352825
X0248603
X025654
X026444
X0296265
X0304139
X0312076
X0319976
X03518
X0359674
X0367611
X0375511
Y0298459
Y0244093
M30
