G04 Layer_Color=2752767*
%FSLAX44Y44*%
%MOMM*%
G71*
G01*
G75*
%ADD15C,0.1270*%
%ADD32C,0.1693*%
D15*
X802832Y123008D02*
Y133168D01*
X812992D01*
Y123008D01*
X802832D01*
Y110308D02*
Y120468D01*
X812992D01*
Y110308D01*
X802832D01*
X790132Y123008D02*
Y133168D01*
X800292D01*
Y123008D01*
X790132D01*
Y110308D02*
Y120468D01*
X800292D01*
Y110308D01*
X790132D01*
X777432Y123008D02*
Y133168D01*
X787592D01*
Y123008D01*
X777432D01*
Y110308D02*
Y120468D01*
X787592D01*
Y110308D01*
X777432D01*
X764732Y123008D02*
Y133168D01*
X774892D01*
Y123008D01*
X764732D01*
Y110308D02*
Y120468D01*
X774892D01*
Y110308D01*
X764732D01*
X752032Y123008D02*
Y133168D01*
X762192D01*
Y123008D01*
X752032D01*
Y110308D02*
Y120468D01*
X762192D01*
Y110308D01*
X752032D01*
X943892Y123008D02*
Y133168D01*
X954052D01*
Y123008D01*
X943892D01*
Y110308D02*
Y120468D01*
X954052D01*
Y110308D01*
X943892D01*
X931192Y123008D02*
Y133168D01*
X941352D01*
Y123008D01*
X931192D01*
Y110308D02*
Y120468D01*
X941352D01*
Y110308D01*
X931192D01*
X918492Y123008D02*
Y133168D01*
X928652D01*
Y123008D01*
X918492D01*
Y110308D02*
Y120468D01*
X928652D01*
Y110308D01*
X918492D01*
X905792Y123008D02*
Y133168D01*
X915952D01*
Y123008D01*
X905792D01*
Y110308D02*
Y120468D01*
X915952D01*
Y110308D01*
X905792D01*
X893092Y123008D02*
Y133168D01*
X903252D01*
Y123008D01*
X893092D01*
Y110308D02*
Y120468D01*
X903252D01*
Y110308D01*
X893092D01*
X802832Y261098D02*
Y271258D01*
X812992D01*
Y261098D01*
X802832D01*
Y248398D02*
Y258558D01*
X812992D01*
Y248398D01*
X802832D01*
X790132Y261098D02*
Y271258D01*
X800292D01*
Y261098D01*
X790132D01*
Y248398D02*
Y258558D01*
X800292D01*
Y248398D01*
X790132D01*
X777432Y261098D02*
Y271258D01*
X787592D01*
Y261098D01*
X777432D01*
Y248398D02*
Y258558D01*
X787592D01*
Y248398D01*
X777432D01*
X764732Y261098D02*
Y271258D01*
X774892D01*
Y261098D01*
X764732D01*
Y248398D02*
Y258558D01*
X774892D01*
Y248398D01*
X764732D01*
X752032Y261098D02*
Y271258D01*
X762192D01*
Y261098D01*
X752032D01*
Y248398D02*
Y258558D01*
X762192D01*
Y248398D01*
X752032D01*
X943892Y261098D02*
Y271258D01*
X954052D01*
Y261098D01*
X943892D01*
Y248398D02*
Y258558D01*
X954052D01*
Y248398D01*
X943892D01*
X931192Y261098D02*
Y271258D01*
X941352D01*
Y261098D01*
X931192D01*
Y248398D02*
Y258558D01*
X941352D01*
Y248398D01*
X931192D01*
X918492Y261098D02*
Y271258D01*
X928652D01*
Y261098D01*
X918492D01*
Y248398D02*
Y258558D01*
X928652D01*
Y248398D01*
X918492D01*
X905792Y261098D02*
Y271258D01*
X915952D01*
Y261098D01*
X905792D01*
Y248398D02*
Y258558D01*
X915952D01*
Y248398D01*
X905792D01*
X893092Y261098D02*
Y271258D01*
X903252D01*
Y261098D01*
X893092D01*
Y248398D02*
Y258558D01*
X903252D01*
Y248398D01*
X893092D01*
X802832Y399188D02*
Y409348D01*
X812992D01*
Y399188D01*
X802832D01*
Y386488D02*
Y396648D01*
X812992D01*
Y386488D01*
X802832D01*
X790132Y399188D02*
Y409348D01*
X800292D01*
Y399188D01*
X790132D01*
Y386488D02*
Y396648D01*
X800292D01*
Y386488D01*
X790132D01*
X777432Y399188D02*
Y409348D01*
X787592D01*
Y399188D01*
X777432D01*
Y386488D02*
Y396648D01*
X787592D01*
Y386488D01*
X777432D01*
X764732Y399188D02*
Y409348D01*
X774892D01*
Y399188D01*
X764732D01*
Y386488D02*
Y396648D01*
X774892D01*
Y386488D01*
X764732D01*
X752032Y399188D02*
Y409348D01*
X762192D01*
Y399188D01*
X752032D01*
Y386488D02*
Y396648D01*
X762192D01*
Y386488D01*
X752032D01*
X943892Y399188D02*
Y409348D01*
X954052D01*
Y399188D01*
X943892D01*
Y386488D02*
Y396648D01*
X954052D01*
Y386488D01*
X943892D01*
X931192Y399188D02*
Y409348D01*
X941352D01*
Y399188D01*
X931192D01*
Y386488D02*
Y396648D01*
X941352D01*
Y386488D01*
X931192D01*
X918492Y399188D02*
Y409348D01*
X928652D01*
Y399188D01*
X918492D01*
Y386488D02*
Y396648D01*
X928652D01*
Y386488D01*
X918492D01*
X905792Y399188D02*
Y409348D01*
X915952D01*
Y399188D01*
X905792D01*
Y386488D02*
Y396648D01*
X915952D01*
Y386488D01*
X905792D01*
X893092Y399188D02*
Y409348D01*
X903252D01*
Y399188D01*
X893092D01*
Y386488D02*
Y396648D01*
X903252D01*
Y386488D01*
X893092D01*
X802832Y537278D02*
Y547438D01*
X812992D01*
Y537278D01*
X802832D01*
Y524578D02*
Y534738D01*
X812992D01*
Y524578D01*
X802832D01*
X790132Y537278D02*
Y547438D01*
X800292D01*
Y537278D01*
X790132D01*
Y524578D02*
Y534738D01*
X800292D01*
Y524578D01*
X790132D01*
X777432Y537278D02*
Y547438D01*
X787592D01*
Y537278D01*
X777432D01*
Y524578D02*
Y534738D01*
X787592D01*
Y524578D01*
X777432D01*
X764732Y537278D02*
Y547438D01*
X774892D01*
Y537278D01*
X764732D01*
Y524578D02*
Y534738D01*
X774892D01*
Y524578D01*
X764732D01*
X752032Y537278D02*
Y547438D01*
X762192D01*
Y537278D01*
X752032D01*
Y524578D02*
Y534738D01*
X762192D01*
Y524578D01*
X752032D01*
X943892Y537278D02*
Y547438D01*
X954052D01*
Y537278D01*
X943892D01*
Y524578D02*
Y534738D01*
X954052D01*
Y524578D01*
X943892D01*
X931192Y537278D02*
Y547438D01*
X941352D01*
Y537278D01*
X931192D01*
Y524578D02*
Y534738D01*
X941352D01*
Y524578D01*
X931192D01*
X918492Y537278D02*
Y547438D01*
X928652D01*
Y537278D01*
X918492D01*
Y524578D02*
Y534738D01*
X928652D01*
Y524578D01*
X918492D01*
X905792Y537278D02*
Y547438D01*
X915952D01*
Y537278D01*
X905792D01*
Y524578D02*
Y534738D01*
X915952D01*
Y524578D01*
X905792D01*
X893092Y537278D02*
Y547438D01*
X903252D01*
Y537278D01*
X893092D01*
Y524578D02*
Y534738D01*
X903252D01*
Y524578D01*
X893092D01*
X802832Y675368D02*
Y685528D01*
X812992D01*
Y675368D01*
X802832D01*
Y662668D02*
Y672828D01*
X812992D01*
Y662668D01*
X802832D01*
X790132Y675368D02*
Y685528D01*
X800292D01*
Y675368D01*
X790132D01*
Y662668D02*
Y672828D01*
X800292D01*
Y662668D01*
X790132D01*
X777432Y675368D02*
Y685528D01*
X787592D01*
Y675368D01*
X777432D01*
Y662668D02*
Y672828D01*
X787592D01*
Y662668D01*
X777432D01*
X764732Y675368D02*
Y685528D01*
X774892D01*
Y675368D01*
X764732D01*
Y662668D02*
Y672828D01*
X774892D01*
Y662668D01*
X764732D01*
X752032Y675368D02*
Y685528D01*
X762192D01*
Y675368D01*
X752032D01*
Y662668D02*
Y672828D01*
X762192D01*
Y662668D01*
X752032D01*
X943892Y675368D02*
Y685528D01*
X954052D01*
Y675368D01*
X943892D01*
Y662668D02*
Y672828D01*
X954052D01*
Y662668D01*
X943892D01*
X931192Y675368D02*
Y685528D01*
X941352D01*
Y675368D01*
X931192D01*
Y662668D02*
Y672828D01*
X941352D01*
Y662668D01*
X931192D01*
X918492Y675368D02*
Y685528D01*
X928652D01*
Y675368D01*
X918492D01*
Y662668D02*
Y672828D01*
X928652D01*
Y662668D01*
X918492D01*
X905792Y675368D02*
Y685528D01*
X915952D01*
Y675368D01*
X905792D01*
Y662668D02*
Y672828D01*
X915952D01*
Y662668D01*
X905792D01*
X893092Y675368D02*
Y685528D01*
X903252D01*
Y675368D01*
X893092D01*
Y662668D02*
Y672828D01*
X903252D01*
Y662668D01*
X893092D01*
X802832Y813458D02*
Y823618D01*
X812992D01*
Y813458D01*
X802832D01*
Y800758D02*
Y810918D01*
X812992D01*
Y800758D01*
X802832D01*
X790132Y813458D02*
Y823618D01*
X800292D01*
Y813458D01*
X790132D01*
Y800758D02*
Y810918D01*
X800292D01*
Y800758D01*
X790132D01*
X777432Y813458D02*
Y823618D01*
X787592D01*
Y813458D01*
X777432D01*
Y800758D02*
Y810918D01*
X787592D01*
Y800758D01*
X777432D01*
X764732Y813458D02*
Y823618D01*
X774892D01*
Y813458D01*
X764732D01*
Y800758D02*
Y810918D01*
X774892D01*
Y800758D01*
X764732D01*
X752032Y813458D02*
Y823618D01*
X762192D01*
Y813458D01*
X752032D01*
Y800758D02*
Y810918D01*
X762192D01*
Y800758D01*
X752032D01*
X943892Y813458D02*
Y823618D01*
X954052D01*
Y813458D01*
X943892D01*
Y800758D02*
Y810918D01*
X954052D01*
Y800758D01*
X943892D01*
X931192Y813458D02*
Y823618D01*
X941352D01*
Y813458D01*
X931192D01*
Y800758D02*
Y810918D01*
X941352D01*
Y800758D01*
X931192D01*
X918492Y813458D02*
Y823618D01*
X928652D01*
Y813458D01*
X918492D01*
Y800758D02*
Y810918D01*
X928652D01*
Y800758D01*
X918492D01*
X905792Y813458D02*
Y823618D01*
X915952D01*
Y813458D01*
X905792D01*
Y800758D02*
Y810918D01*
X915952D01*
Y800758D01*
X905792D01*
X893092Y813458D02*
Y823618D01*
X903252D01*
Y813458D01*
X893092D01*
Y800758D02*
Y810918D01*
X903252D01*
Y800758D01*
X893092D01*
X802832Y951548D02*
Y961708D01*
X812992D01*
Y951548D01*
X802832D01*
Y938848D02*
Y949008D01*
X812992D01*
Y938848D01*
X802832D01*
X790132Y951548D02*
Y961708D01*
X800292D01*
Y951548D01*
X790132D01*
Y938848D02*
Y949008D01*
X800292D01*
Y938848D01*
X790132D01*
X777432Y951548D02*
Y961708D01*
X787592D01*
Y951548D01*
X777432D01*
Y938848D02*
Y949008D01*
X787592D01*
Y938848D01*
X777432D01*
X764732Y951548D02*
Y961708D01*
X774892D01*
Y951548D01*
X764732D01*
Y938848D02*
Y949008D01*
X774892D01*
Y938848D01*
X764732D01*
X752032Y951548D02*
Y961708D01*
X762192D01*
Y951548D01*
X752032D01*
Y938848D02*
Y949008D01*
X762192D01*
Y938848D01*
X752032D01*
X943892Y951548D02*
Y961708D01*
X954052D01*
Y951548D01*
X943892D01*
Y938848D02*
Y949008D01*
X954052D01*
Y938848D01*
X943892D01*
X931192Y951548D02*
Y961708D01*
X941352D01*
Y951548D01*
X931192D01*
Y938848D02*
Y949008D01*
X941352D01*
Y938848D01*
X931192D01*
X918492Y951548D02*
Y961708D01*
X928652D01*
Y951548D01*
X918492D01*
Y938848D02*
Y949008D01*
X928652D01*
Y938848D01*
X918492D01*
X905792Y951548D02*
Y961708D01*
X915952D01*
Y951548D01*
X905792D01*
Y938848D02*
Y949008D01*
X915952D01*
Y938848D01*
X905792D01*
X893092Y951548D02*
Y961708D01*
X903252D01*
Y951548D01*
X893092D01*
Y938848D02*
Y949008D01*
X903252D01*
Y938848D01*
X893092D01*
X661772Y123008D02*
Y133168D01*
X671932D01*
Y123008D01*
X661772D01*
Y110308D02*
Y120468D01*
X671932D01*
Y110308D01*
X661772D01*
X649072Y123008D02*
Y133168D01*
X659232D01*
Y123008D01*
X649072D01*
Y110308D02*
Y120468D01*
X659232D01*
Y110308D01*
X649072D01*
X636372Y123008D02*
Y133168D01*
X646532D01*
Y123008D01*
X636372D01*
Y110308D02*
Y120468D01*
X646532D01*
Y110308D01*
X636372D01*
X623672Y123008D02*
Y133168D01*
X633832D01*
Y123008D01*
X623672D01*
Y110308D02*
Y120468D01*
X633832D01*
Y110308D01*
X623672D01*
X610972Y123008D02*
Y133168D01*
X621132D01*
Y123008D01*
X610972D01*
Y110308D02*
Y120468D01*
X621132D01*
Y110308D01*
X610972D01*
X661772Y261098D02*
Y271258D01*
X671932D01*
Y261098D01*
X661772D01*
Y248398D02*
Y258558D01*
X671932D01*
Y248398D01*
X661772D01*
X649072Y261098D02*
Y271258D01*
X659232D01*
Y261098D01*
X649072D01*
Y248398D02*
Y258558D01*
X659232D01*
Y248398D01*
X649072D01*
X636372Y261098D02*
Y271258D01*
X646532D01*
Y261098D01*
X636372D01*
Y248398D02*
Y258558D01*
X646532D01*
Y248398D01*
X636372D01*
X623672Y261098D02*
Y271258D01*
X633832D01*
Y261098D01*
X623672D01*
Y248398D02*
Y258558D01*
X633832D01*
Y248398D01*
X623672D01*
X610972Y261098D02*
Y271258D01*
X621132D01*
Y261098D01*
X610972D01*
Y248398D02*
Y258558D01*
X621132D01*
Y248398D01*
X610972D01*
X661772Y399188D02*
Y409348D01*
X671932D01*
Y399188D01*
X661772D01*
Y386488D02*
Y396648D01*
X671932D01*
Y386488D01*
X661772D01*
X649072Y399188D02*
Y409348D01*
X659232D01*
Y399188D01*
X649072D01*
Y386488D02*
Y396648D01*
X659232D01*
Y386488D01*
X649072D01*
X636372Y399188D02*
Y409348D01*
X646532D01*
Y399188D01*
X636372D01*
Y386488D02*
Y396648D01*
X646532D01*
Y386488D01*
X636372D01*
X623672Y399188D02*
Y409348D01*
X633832D01*
Y399188D01*
X623672D01*
Y386488D02*
Y396648D01*
X633832D01*
Y386488D01*
X623672D01*
X610972Y399188D02*
Y409348D01*
X621132D01*
Y399188D01*
X610972D01*
Y386488D02*
Y396648D01*
X621132D01*
Y386488D01*
X610972D01*
X661772Y537278D02*
Y547438D01*
X671932D01*
Y537278D01*
X661772D01*
Y524578D02*
Y534738D01*
X671932D01*
Y524578D01*
X661772D01*
X649072Y537278D02*
Y547438D01*
X659232D01*
Y537278D01*
X649072D01*
Y524578D02*
Y534738D01*
X659232D01*
Y524578D01*
X649072D01*
X636372Y537278D02*
Y547438D01*
X646532D01*
Y537278D01*
X636372D01*
Y524578D02*
Y534738D01*
X646532D01*
Y524578D01*
X636372D01*
X623672Y537278D02*
Y547438D01*
X633832D01*
Y537278D01*
X623672D01*
Y524578D02*
Y534738D01*
X633832D01*
Y524578D01*
X623672D01*
X610972Y537278D02*
Y547438D01*
X621132D01*
Y537278D01*
X610972D01*
Y524578D02*
Y534738D01*
X621132D01*
Y524578D01*
X610972D01*
X661772Y675368D02*
Y685528D01*
X671932D01*
Y675368D01*
X661772D01*
Y662668D02*
Y672828D01*
X671932D01*
Y662668D01*
X661772D01*
X649072Y675368D02*
Y685528D01*
X659232D01*
Y675368D01*
X649072D01*
Y662668D02*
Y672828D01*
X659232D01*
Y662668D01*
X649072D01*
X636372Y675368D02*
Y685528D01*
X646532D01*
Y675368D01*
X636372D01*
Y662668D02*
Y672828D01*
X646532D01*
Y662668D01*
X636372D01*
X623672Y675368D02*
Y685528D01*
X633832D01*
Y675368D01*
X623672D01*
Y662668D02*
Y672828D01*
X633832D01*
Y662668D01*
X623672D01*
X610972Y675368D02*
Y685528D01*
X621132D01*
Y675368D01*
X610972D01*
Y662668D02*
Y672828D01*
X621132D01*
Y662668D01*
X610972D01*
X661772Y813458D02*
Y823618D01*
X671932D01*
Y813458D01*
X661772D01*
Y800758D02*
Y810918D01*
X671932D01*
Y800758D01*
X661772D01*
X649072Y813458D02*
Y823618D01*
X659232D01*
Y813458D01*
X649072D01*
Y800758D02*
Y810918D01*
X659232D01*
Y800758D01*
X649072D01*
X636372Y813458D02*
Y823618D01*
X646532D01*
Y813458D01*
X636372D01*
Y800758D02*
Y810918D01*
X646532D01*
Y800758D01*
X636372D01*
X623672Y813458D02*
Y823618D01*
X633832D01*
Y813458D01*
X623672D01*
Y800758D02*
Y810918D01*
X633832D01*
Y800758D01*
X623672D01*
X610972Y813458D02*
Y823618D01*
X621132D01*
Y813458D01*
X610972D01*
Y800758D02*
Y810918D01*
X621132D01*
Y800758D01*
X610972D01*
X661772Y951548D02*
Y961708D01*
X671932D01*
Y951548D01*
X661772D01*
Y938848D02*
Y949008D01*
X671932D01*
Y938848D01*
X661772D01*
X649072Y951548D02*
Y961708D01*
X659232D01*
Y951548D01*
X649072D01*
Y938848D02*
Y949008D01*
X659232D01*
Y938848D01*
X649072D01*
X636372Y951548D02*
Y961708D01*
X646532D01*
Y951548D01*
X636372D01*
Y938848D02*
Y949008D01*
X646532D01*
Y938848D01*
X636372D01*
X623672Y951548D02*
Y961708D01*
X633832D01*
Y951548D01*
X623672D01*
Y938848D02*
Y949008D01*
X633832D01*
Y938848D01*
X623672D01*
X610972Y951548D02*
Y961708D01*
X621132D01*
Y951548D01*
X610972D01*
Y938848D02*
Y949008D01*
X621132D01*
Y938848D01*
X610972D01*
X379652Y123008D02*
Y133168D01*
X389812D01*
Y123008D01*
X379652D01*
Y110308D02*
Y120468D01*
X389812D01*
Y110308D01*
X379652D01*
X366952Y123008D02*
Y133168D01*
X377112D01*
Y123008D01*
X366952D01*
Y110308D02*
Y120468D01*
X377112D01*
Y110308D01*
X366952D01*
X354252Y123008D02*
Y133168D01*
X364412D01*
Y123008D01*
X354252D01*
Y110308D02*
Y120468D01*
X364412D01*
Y110308D01*
X354252D01*
X341552Y123008D02*
Y133168D01*
X351712D01*
Y123008D01*
X341552D01*
Y110308D02*
Y120468D01*
X351712D01*
Y110308D01*
X341552D01*
X328852Y123008D02*
Y133168D01*
X339012D01*
Y123008D01*
X328852D01*
Y110308D02*
Y120468D01*
X339012D01*
Y110308D01*
X328852D01*
X520712Y123008D02*
Y133168D01*
X530872D01*
Y123008D01*
X520712D01*
Y110308D02*
Y120468D01*
X530872D01*
Y110308D01*
X520712D01*
X508012Y123008D02*
Y133168D01*
X518172D01*
Y123008D01*
X508012D01*
Y110308D02*
Y120468D01*
X518172D01*
Y110308D01*
X508012D01*
X495312Y123008D02*
Y133168D01*
X505472D01*
Y123008D01*
X495312D01*
Y110308D02*
Y120468D01*
X505472D01*
Y110308D01*
X495312D01*
X482612Y123008D02*
Y133168D01*
X492772D01*
Y123008D01*
X482612D01*
Y110308D02*
Y120468D01*
X492772D01*
Y110308D01*
X482612D01*
X469912Y123008D02*
Y133168D01*
X480072D01*
Y123008D01*
X469912D01*
Y110308D02*
Y120468D01*
X480072D01*
Y110308D01*
X469912D01*
X379652Y261098D02*
Y271258D01*
X389812D01*
Y261098D01*
X379652D01*
Y248398D02*
Y258558D01*
X389812D01*
Y248398D01*
X379652D01*
X366952Y261098D02*
Y271258D01*
X377112D01*
Y261098D01*
X366952D01*
Y248398D02*
Y258558D01*
X377112D01*
Y248398D01*
X366952D01*
X354252Y261098D02*
Y271258D01*
X364412D01*
Y261098D01*
X354252D01*
Y248398D02*
Y258558D01*
X364412D01*
Y248398D01*
X354252D01*
X341552Y261098D02*
Y271258D01*
X351712D01*
Y261098D01*
X341552D01*
Y248398D02*
Y258558D01*
X351712D01*
Y248398D01*
X341552D01*
X328852Y261098D02*
Y271258D01*
X339012D01*
Y261098D01*
X328852D01*
Y248398D02*
Y258558D01*
X339012D01*
Y248398D01*
X328852D01*
X520712Y261098D02*
Y271258D01*
X530872D01*
Y261098D01*
X520712D01*
Y248398D02*
Y258558D01*
X530872D01*
Y248398D01*
X520712D01*
X508012Y261098D02*
Y271258D01*
X518172D01*
Y261098D01*
X508012D01*
Y248398D02*
Y258558D01*
X518172D01*
Y248398D01*
X508012D01*
X495312Y261098D02*
Y271258D01*
X505472D01*
Y261098D01*
X495312D01*
Y248398D02*
Y258558D01*
X505472D01*
Y248398D01*
X495312D01*
X482612Y261098D02*
Y271258D01*
X492772D01*
Y261098D01*
X482612D01*
Y248398D02*
Y258558D01*
X492772D01*
Y248398D01*
X482612D01*
X469912Y261098D02*
Y271258D01*
X480072D01*
Y261098D01*
X469912D01*
Y248398D02*
Y258558D01*
X480072D01*
Y248398D01*
X469912D01*
X379652Y399188D02*
Y409348D01*
X389812D01*
Y399188D01*
X379652D01*
Y386488D02*
Y396648D01*
X389812D01*
Y386488D01*
X379652D01*
X366952Y399188D02*
Y409348D01*
X377112D01*
Y399188D01*
X366952D01*
Y386488D02*
Y396648D01*
X377112D01*
Y386488D01*
X366952D01*
X354252Y399188D02*
Y409348D01*
X364412D01*
Y399188D01*
X354252D01*
Y386488D02*
Y396648D01*
X364412D01*
Y386488D01*
X354252D01*
X341552Y399188D02*
Y409348D01*
X351712D01*
Y399188D01*
X341552D01*
Y386488D02*
Y396648D01*
X351712D01*
Y386488D01*
X341552D01*
X328852Y399188D02*
Y409348D01*
X339012D01*
Y399188D01*
X328852D01*
Y386488D02*
Y396648D01*
X339012D01*
Y386488D01*
X328852D01*
X520712Y399188D02*
Y409348D01*
X530872D01*
Y399188D01*
X520712D01*
Y386488D02*
Y396648D01*
X530872D01*
Y386488D01*
X520712D01*
X508012Y399188D02*
Y409348D01*
X518172D01*
Y399188D01*
X508012D01*
Y386488D02*
Y396648D01*
X518172D01*
Y386488D01*
X508012D01*
X495312Y399188D02*
Y409348D01*
X505472D01*
Y399188D01*
X495312D01*
Y386488D02*
Y396648D01*
X505472D01*
Y386488D01*
X495312D01*
X482612Y399188D02*
Y409348D01*
X492772D01*
Y399188D01*
X482612D01*
Y386488D02*
Y396648D01*
X492772D01*
Y386488D01*
X482612D01*
X469912Y399188D02*
Y409348D01*
X480072D01*
Y399188D01*
X469912D01*
Y386488D02*
Y396648D01*
X480072D01*
Y386488D01*
X469912D01*
X379652Y537278D02*
Y547438D01*
X389812D01*
Y537278D01*
X379652D01*
Y524578D02*
Y534738D01*
X389812D01*
Y524578D01*
X379652D01*
X366952Y537278D02*
Y547438D01*
X377112D01*
Y537278D01*
X366952D01*
Y524578D02*
Y534738D01*
X377112D01*
Y524578D01*
X366952D01*
X354252Y537278D02*
Y547438D01*
X364412D01*
Y537278D01*
X354252D01*
Y524578D02*
Y534738D01*
X364412D01*
Y524578D01*
X354252D01*
X341552Y537278D02*
Y547438D01*
X351712D01*
Y537278D01*
X341552D01*
Y524578D02*
Y534738D01*
X351712D01*
Y524578D01*
X341552D01*
X328852Y537278D02*
Y547438D01*
X339012D01*
Y537278D01*
X328852D01*
Y524578D02*
Y534738D01*
X339012D01*
Y524578D01*
X328852D01*
X520712Y537278D02*
Y547438D01*
X530872D01*
Y537278D01*
X520712D01*
Y524578D02*
Y534738D01*
X530872D01*
Y524578D01*
X520712D01*
X508012Y537278D02*
Y547438D01*
X518172D01*
Y537278D01*
X508012D01*
Y524578D02*
Y534738D01*
X518172D01*
Y524578D01*
X508012D01*
X495312Y537278D02*
Y547438D01*
X505472D01*
Y537278D01*
X495312D01*
Y524578D02*
Y534738D01*
X505472D01*
Y524578D01*
X495312D01*
X482612Y537278D02*
Y547438D01*
X492772D01*
Y537278D01*
X482612D01*
Y524578D02*
Y534738D01*
X492772D01*
Y524578D01*
X482612D01*
X469912Y537278D02*
Y547438D01*
X480072D01*
Y537278D01*
X469912D01*
Y524578D02*
Y534738D01*
X480072D01*
Y524578D01*
X469912D01*
X379652Y675368D02*
Y685528D01*
X389812D01*
Y675368D01*
X379652D01*
Y662668D02*
Y672828D01*
X389812D01*
Y662668D01*
X379652D01*
X366952Y675368D02*
Y685528D01*
X377112D01*
Y675368D01*
X366952D01*
Y662668D02*
Y672828D01*
X377112D01*
Y662668D01*
X366952D01*
X354252Y675368D02*
Y685528D01*
X364412D01*
Y675368D01*
X354252D01*
Y662668D02*
Y672828D01*
X364412D01*
Y662668D01*
X354252D01*
X341552Y675368D02*
Y685528D01*
X351712D01*
Y675368D01*
X341552D01*
Y662668D02*
Y672828D01*
X351712D01*
Y662668D01*
X341552D01*
X328852Y675368D02*
Y685528D01*
X339012D01*
Y675368D01*
X328852D01*
Y662668D02*
Y672828D01*
X339012D01*
Y662668D01*
X328852D01*
X520712Y675368D02*
Y685528D01*
X530872D01*
Y675368D01*
X520712D01*
Y662668D02*
Y672828D01*
X530872D01*
Y662668D01*
X520712D01*
X508012Y675368D02*
Y685528D01*
X518172D01*
Y675368D01*
X508012D01*
Y662668D02*
Y672828D01*
X518172D01*
Y662668D01*
X508012D01*
X495312Y675368D02*
Y685528D01*
X505472D01*
Y675368D01*
X495312D01*
Y662668D02*
Y672828D01*
X505472D01*
Y662668D01*
X495312D01*
X482612Y675368D02*
Y685528D01*
X492772D01*
Y675368D01*
X482612D01*
Y662668D02*
Y672828D01*
X492772D01*
Y662668D01*
X482612D01*
X469912Y675368D02*
Y685528D01*
X480072D01*
Y675368D01*
X469912D01*
Y662668D02*
Y672828D01*
X480072D01*
Y662668D01*
X469912D01*
X379652Y813458D02*
Y823618D01*
X389812D01*
Y813458D01*
X379652D01*
Y800758D02*
Y810918D01*
X389812D01*
Y800758D01*
X379652D01*
X366952Y813458D02*
Y823618D01*
X377112D01*
Y813458D01*
X366952D01*
Y800758D02*
Y810918D01*
X377112D01*
Y800758D01*
X366952D01*
X354252Y813458D02*
Y823618D01*
X364412D01*
Y813458D01*
X354252D01*
Y800758D02*
Y810918D01*
X364412D01*
Y800758D01*
X354252D01*
X341552Y813458D02*
Y823618D01*
X351712D01*
Y813458D01*
X341552D01*
Y800758D02*
Y810918D01*
X351712D01*
Y800758D01*
X341552D01*
X328852Y813458D02*
Y823618D01*
X339012D01*
Y813458D01*
X328852D01*
Y800758D02*
Y810918D01*
X339012D01*
Y800758D01*
X328852D01*
X520712Y813458D02*
Y823618D01*
X530872D01*
Y813458D01*
X520712D01*
Y800758D02*
Y810918D01*
X530872D01*
Y800758D01*
X520712D01*
X508012Y813458D02*
Y823618D01*
X518172D01*
Y813458D01*
X508012D01*
Y800758D02*
Y810918D01*
X518172D01*
Y800758D01*
X508012D01*
X495312Y813458D02*
Y823618D01*
X505472D01*
Y813458D01*
X495312D01*
Y800758D02*
Y810918D01*
X505472D01*
Y800758D01*
X495312D01*
X482612Y813458D02*
Y823618D01*
X492772D01*
Y813458D01*
X482612D01*
Y800758D02*
Y810918D01*
X492772D01*
Y800758D01*
X482612D01*
X469912Y813458D02*
Y823618D01*
X480072D01*
Y813458D01*
X469912D01*
Y800758D02*
Y810918D01*
X480072D01*
Y800758D01*
X469912D01*
X379652Y951548D02*
Y961708D01*
X389812D01*
Y951548D01*
X379652D01*
Y938848D02*
Y949008D01*
X389812D01*
Y938848D01*
X379652D01*
X366952Y951548D02*
Y961708D01*
X377112D01*
Y951548D01*
X366952D01*
Y938848D02*
Y949008D01*
X377112D01*
Y938848D01*
X366952D01*
X354252Y951548D02*
Y961708D01*
X364412D01*
Y951548D01*
X354252D01*
Y938848D02*
Y949008D01*
X364412D01*
Y938848D01*
X354252D01*
X341552Y951548D02*
Y961708D01*
X351712D01*
Y951548D01*
X341552D01*
Y938848D02*
Y949008D01*
X351712D01*
Y938848D01*
X341552D01*
X328852Y951548D02*
Y961708D01*
X339012D01*
Y951548D01*
X328852D01*
Y938848D02*
Y949008D01*
X339012D01*
Y938848D01*
X328852D01*
X520712Y951548D02*
Y961708D01*
X530872D01*
Y951548D01*
X520712D01*
Y938848D02*
Y949008D01*
X530872D01*
Y938848D01*
X520712D01*
X508012Y951548D02*
Y961708D01*
X518172D01*
Y951548D01*
X508012D01*
Y938848D02*
Y949008D01*
X518172D01*
Y938848D01*
X508012D01*
X495312Y951548D02*
Y961708D01*
X505472D01*
Y951548D01*
X495312D01*
Y938848D02*
Y949008D01*
X505472D01*
Y938848D01*
X495312D01*
X482612Y951548D02*
Y961708D01*
X492772D01*
Y951548D01*
X482612D01*
Y938848D02*
Y949008D01*
X492772D01*
Y938848D01*
X482612D01*
X469912Y951548D02*
Y961708D01*
X480072D01*
Y951548D01*
X469912D01*
Y938848D02*
Y949008D01*
X480072D01*
Y938848D01*
X469912D01*
X97537Y123013D02*
Y133173D01*
X107697D01*
Y123013D01*
X97537D01*
Y110313D02*
Y120473D01*
X107697D01*
Y110313D01*
X97537D01*
X84837Y123013D02*
Y133173D01*
X94997D01*
Y123013D01*
X84837D01*
Y110313D02*
Y120473D01*
X94997D01*
Y110313D01*
X84837D01*
X72137Y123013D02*
Y133173D01*
X82297D01*
Y123013D01*
X72137D01*
Y110313D02*
Y120473D01*
X82297D01*
Y110313D01*
X72137D01*
X59437Y123013D02*
Y133173D01*
X69597D01*
Y123013D01*
X59437D01*
Y110313D02*
Y120473D01*
X69597D01*
Y110313D01*
X59437D01*
X46737Y123013D02*
Y133173D01*
X56897D01*
Y123013D01*
X46737D01*
Y110313D02*
Y120473D01*
X56897D01*
Y110313D01*
X46737D01*
X238597Y123013D02*
Y133173D01*
X248757D01*
Y123013D01*
X238597D01*
Y110313D02*
Y120473D01*
X248757D01*
Y110313D01*
X238597D01*
X225897Y123013D02*
Y133173D01*
X236057D01*
Y123013D01*
X225897D01*
Y110313D02*
Y120473D01*
X236057D01*
Y110313D01*
X225897D01*
X213197Y123013D02*
Y133173D01*
X223357D01*
Y123013D01*
X213197D01*
Y110313D02*
Y120473D01*
X223357D01*
Y110313D01*
X213197D01*
X200497Y123013D02*
Y133173D01*
X210657D01*
Y123013D01*
X200497D01*
Y110313D02*
Y120473D01*
X210657D01*
Y110313D01*
X200497D01*
X187797Y123013D02*
Y133173D01*
X197957D01*
Y123013D01*
X187797D01*
Y110313D02*
Y120473D01*
X197957D01*
Y110313D01*
X187797D01*
X97537Y261103D02*
Y271263D01*
X107697D01*
Y261103D01*
X97537D01*
Y248403D02*
Y258563D01*
X107697D01*
Y248403D01*
X97537D01*
X84837Y261103D02*
Y271263D01*
X94997D01*
Y261103D01*
X84837D01*
Y248403D02*
Y258563D01*
X94997D01*
Y248403D01*
X84837D01*
X72137Y261103D02*
Y271263D01*
X82297D01*
Y261103D01*
X72137D01*
Y248403D02*
Y258563D01*
X82297D01*
Y248403D01*
X72137D01*
X59437Y261103D02*
Y271263D01*
X69597D01*
Y261103D01*
X59437D01*
Y248403D02*
Y258563D01*
X69597D01*
Y248403D01*
X59437D01*
X46737Y261103D02*
Y271263D01*
X56897D01*
Y261103D01*
X46737D01*
Y248403D02*
Y258563D01*
X56897D01*
Y248403D01*
X46737D01*
X238597Y261103D02*
Y271263D01*
X248757D01*
Y261103D01*
X238597D01*
Y248403D02*
Y258563D01*
X248757D01*
Y248403D01*
X238597D01*
X225897Y261103D02*
Y271263D01*
X236057D01*
Y261103D01*
X225897D01*
Y248403D02*
Y258563D01*
X236057D01*
Y248403D01*
X225897D01*
X213197Y261103D02*
Y271263D01*
X223357D01*
Y261103D01*
X213197D01*
Y248403D02*
Y258563D01*
X223357D01*
Y248403D01*
X213197D01*
X200497Y261103D02*
Y271263D01*
X210657D01*
Y261103D01*
X200497D01*
Y248403D02*
Y258563D01*
X210657D01*
Y248403D01*
X200497D01*
X187797Y261103D02*
Y271263D01*
X197957D01*
Y261103D01*
X187797D01*
Y248403D02*
Y258563D01*
X197957D01*
Y248403D01*
X187797D01*
X97537Y399193D02*
Y409353D01*
X107697D01*
Y399193D01*
X97537D01*
Y386493D02*
Y396653D01*
X107697D01*
Y386493D01*
X97537D01*
X84837Y399193D02*
Y409353D01*
X94997D01*
Y399193D01*
X84837D01*
Y386493D02*
Y396653D01*
X94997D01*
Y386493D01*
X84837D01*
X72137Y399193D02*
Y409353D01*
X82297D01*
Y399193D01*
X72137D01*
Y386493D02*
Y396653D01*
X82297D01*
Y386493D01*
X72137D01*
X59437Y399193D02*
Y409353D01*
X69597D01*
Y399193D01*
X59437D01*
Y386493D02*
Y396653D01*
X69597D01*
Y386493D01*
X59437D01*
X46737Y399193D02*
Y409353D01*
X56897D01*
Y399193D01*
X46737D01*
Y386493D02*
Y396653D01*
X56897D01*
Y386493D01*
X46737D01*
X238597Y399193D02*
Y409353D01*
X248757D01*
Y399193D01*
X238597D01*
Y386493D02*
Y396653D01*
X248757D01*
Y386493D01*
X238597D01*
X225897Y399193D02*
Y409353D01*
X236057D01*
Y399193D01*
X225897D01*
Y386493D02*
Y396653D01*
X236057D01*
Y386493D01*
X225897D01*
X213197Y399193D02*
Y409353D01*
X223357D01*
Y399193D01*
X213197D01*
Y386493D02*
Y396653D01*
X223357D01*
Y386493D01*
X213197D01*
X200497Y399193D02*
Y409353D01*
X210657D01*
Y399193D01*
X200497D01*
Y386493D02*
Y396653D01*
X210657D01*
Y386493D01*
X200497D01*
X187797Y399193D02*
Y409353D01*
X197957D01*
Y399193D01*
X187797D01*
Y386493D02*
Y396653D01*
X197957D01*
Y386493D01*
X187797D01*
X97537Y537283D02*
Y547443D01*
X107697D01*
Y537283D01*
X97537D01*
Y524583D02*
Y534743D01*
X107697D01*
Y524583D01*
X97537D01*
X84837Y537283D02*
Y547443D01*
X94997D01*
Y537283D01*
X84837D01*
Y524583D02*
Y534743D01*
X94997D01*
Y524583D01*
X84837D01*
X72137Y537283D02*
Y547443D01*
X82297D01*
Y537283D01*
X72137D01*
Y524583D02*
Y534743D01*
X82297D01*
Y524583D01*
X72137D01*
X59437Y537283D02*
Y547443D01*
X69597D01*
Y537283D01*
X59437D01*
Y524583D02*
Y534743D01*
X69597D01*
Y524583D01*
X59437D01*
X46737Y537283D02*
Y547443D01*
X56897D01*
Y537283D01*
X46737D01*
Y524583D02*
Y534743D01*
X56897D01*
Y524583D01*
X46737D01*
X238597Y537283D02*
Y547443D01*
X248757D01*
Y537283D01*
X238597D01*
Y524583D02*
Y534743D01*
X248757D01*
Y524583D01*
X238597D01*
X225897Y537283D02*
Y547443D01*
X236057D01*
Y537283D01*
X225897D01*
Y524583D02*
Y534743D01*
X236057D01*
Y524583D01*
X225897D01*
X213197Y537283D02*
Y547443D01*
X223357D01*
Y537283D01*
X213197D01*
Y524583D02*
Y534743D01*
X223357D01*
Y524583D01*
X213197D01*
X200497Y537283D02*
Y547443D01*
X210657D01*
Y537283D01*
X200497D01*
Y524583D02*
Y534743D01*
X210657D01*
Y524583D01*
X200497D01*
X187797Y537283D02*
Y547443D01*
X197957D01*
Y537283D01*
X187797D01*
Y524583D02*
Y534743D01*
X197957D01*
Y524583D01*
X187797D01*
X97537Y675373D02*
Y685533D01*
X107697D01*
Y675373D01*
X97537D01*
Y662673D02*
Y672833D01*
X107697D01*
Y662673D01*
X97537D01*
X84837Y675373D02*
Y685533D01*
X94997D01*
Y675373D01*
X84837D01*
Y662673D02*
Y672833D01*
X94997D01*
Y662673D01*
X84837D01*
X72137Y675373D02*
Y685533D01*
X82297D01*
Y675373D01*
X72137D01*
Y662673D02*
Y672833D01*
X82297D01*
Y662673D01*
X72137D01*
X59437Y675373D02*
Y685533D01*
X69597D01*
Y675373D01*
X59437D01*
Y662673D02*
Y672833D01*
X69597D01*
Y662673D01*
X59437D01*
X46737Y675373D02*
Y685533D01*
X56897D01*
Y675373D01*
X46737D01*
Y662673D02*
Y672833D01*
X56897D01*
Y662673D01*
X46737D01*
X238597Y675373D02*
Y685533D01*
X248757D01*
Y675373D01*
X238597D01*
Y662673D02*
Y672833D01*
X248757D01*
Y662673D01*
X238597D01*
X225897Y675373D02*
Y685533D01*
X236057D01*
Y675373D01*
X225897D01*
Y662673D02*
Y672833D01*
X236057D01*
Y662673D01*
X225897D01*
X213197Y675373D02*
Y685533D01*
X223357D01*
Y675373D01*
X213197D01*
Y662673D02*
Y672833D01*
X223357D01*
Y662673D01*
X213197D01*
X200497Y675373D02*
Y685533D01*
X210657D01*
Y675373D01*
X200497D01*
Y662673D02*
Y672833D01*
X210657D01*
Y662673D01*
X200497D01*
X187797Y675373D02*
Y685533D01*
X197957D01*
Y675373D01*
X187797D01*
Y662673D02*
Y672833D01*
X197957D01*
Y662673D01*
X187797D01*
X97537Y813463D02*
Y823623D01*
X107697D01*
Y813463D01*
X97537D01*
Y800763D02*
Y810923D01*
X107697D01*
Y800763D01*
X97537D01*
X84837Y813463D02*
Y823623D01*
X94997D01*
Y813463D01*
X84837D01*
Y800763D02*
Y810923D01*
X94997D01*
Y800763D01*
X84837D01*
X72137Y813463D02*
Y823623D01*
X82297D01*
Y813463D01*
X72137D01*
Y800763D02*
Y810923D01*
X82297D01*
Y800763D01*
X72137D01*
X59437Y813463D02*
Y823623D01*
X69597D01*
Y813463D01*
X59437D01*
Y800763D02*
Y810923D01*
X69597D01*
Y800763D01*
X59437D01*
X46737Y813463D02*
Y823623D01*
X56897D01*
Y813463D01*
X46737D01*
Y800763D02*
Y810923D01*
X56897D01*
Y800763D01*
X46737D01*
X238597Y813463D02*
Y823623D01*
X248757D01*
Y813463D01*
X238597D01*
Y800763D02*
Y810923D01*
X248757D01*
Y800763D01*
X238597D01*
X225897Y813463D02*
Y823623D01*
X236057D01*
Y813463D01*
X225897D01*
Y800763D02*
Y810923D01*
X236057D01*
Y800763D01*
X225897D01*
X213197Y813463D02*
Y823623D01*
X223357D01*
Y813463D01*
X213197D01*
Y800763D02*
Y810923D01*
X223357D01*
Y800763D01*
X213197D01*
X200497Y813463D02*
Y823623D01*
X210657D01*
Y813463D01*
X200497D01*
Y800763D02*
Y810923D01*
X210657D01*
Y800763D01*
X200497D01*
X187797Y813463D02*
Y823623D01*
X197957D01*
Y813463D01*
X187797D01*
Y800763D02*
Y810923D01*
X197957D01*
Y800763D01*
X187797D01*
X97537Y951553D02*
Y961713D01*
X107697D01*
Y951553D01*
X97537D01*
Y938853D02*
Y949013D01*
X107697D01*
Y938853D01*
X97537D01*
X84837Y951553D02*
Y961713D01*
X94997D01*
Y951553D01*
X84837D01*
Y938853D02*
Y949013D01*
X94997D01*
Y938853D01*
X84837D01*
X72137Y951553D02*
Y961713D01*
X82297D01*
Y951553D01*
X72137D01*
Y938853D02*
Y949013D01*
X82297D01*
Y938853D01*
X72137D01*
X59437Y951553D02*
Y961713D01*
X69597D01*
Y951553D01*
X59437D01*
Y938853D02*
Y949013D01*
X69597D01*
Y938853D01*
X59437D01*
X46737Y951553D02*
Y961713D01*
X56897D01*
Y951553D01*
X46737D01*
Y938853D02*
Y949013D01*
X56897D01*
Y938853D01*
X46737D01*
X238597Y951553D02*
Y961713D01*
X248757D01*
Y951553D01*
X238597D01*
Y938853D02*
Y949013D01*
X248757D01*
Y938853D01*
X238597D01*
X225897Y951553D02*
Y961713D01*
X236057D01*
Y951553D01*
X225897D01*
Y938853D02*
Y949013D01*
X236057D01*
Y938853D01*
X225897D01*
X213197Y951553D02*
Y961713D01*
X223357D01*
Y951553D01*
X213197D01*
Y938853D02*
Y949013D01*
X223357D01*
Y938853D01*
X213197D01*
X200497Y951553D02*
Y961713D01*
X210657D01*
Y951553D01*
X200497D01*
Y938853D02*
Y949013D01*
X210657D01*
Y938853D01*
X200497D01*
X187797Y951553D02*
Y961713D01*
X197957D01*
Y951553D01*
X187797D01*
Y938853D02*
Y949013D01*
X197957D01*
Y938853D01*
X187797D01*
D32*
X817818Y67636D02*
G03*
X817818Y67636I-5080J0D01*
G01*
X797752D02*
G03*
X797752Y67636I-5080J0D01*
G01*
X777592D02*
G03*
X777592Y67636I-5080J0D01*
G01*
X757592D02*
G03*
X757592Y67636I-5080J0D01*
G01*
X958878D02*
G03*
X958878Y67636I-5080J0D01*
G01*
X938812D02*
G03*
X938812Y67636I-5080J0D01*
G01*
X918652D02*
G03*
X918652Y67636I-5080J0D01*
G01*
X898652D02*
G03*
X898652Y67636I-5080J0D01*
G01*
X817818Y205726D02*
G03*
X817818Y205726I-5080J0D01*
G01*
X797752D02*
G03*
X797752Y205726I-5080J0D01*
G01*
X777592D02*
G03*
X777592Y205726I-5080J0D01*
G01*
X757592D02*
G03*
X757592Y205726I-5080J0D01*
G01*
X958878D02*
G03*
X958878Y205726I-5080J0D01*
G01*
X938812D02*
G03*
X938812Y205726I-5080J0D01*
G01*
X918652D02*
G03*
X918652Y205726I-5080J0D01*
G01*
X898652D02*
G03*
X898652Y205726I-5080J0D01*
G01*
X817818Y343816D02*
G03*
X817818Y343816I-5080J0D01*
G01*
X797752D02*
G03*
X797752Y343816I-5080J0D01*
G01*
X777592D02*
G03*
X777592Y343816I-5080J0D01*
G01*
X757592D02*
G03*
X757592Y343816I-5080J0D01*
G01*
X958878D02*
G03*
X958878Y343816I-5080J0D01*
G01*
X938812D02*
G03*
X938812Y343816I-5080J0D01*
G01*
X918652D02*
G03*
X918652Y343816I-5080J0D01*
G01*
X898652D02*
G03*
X898652Y343816I-5080J0D01*
G01*
X817818Y481906D02*
G03*
X817818Y481906I-5080J0D01*
G01*
X797752D02*
G03*
X797752Y481906I-5080J0D01*
G01*
X777592D02*
G03*
X777592Y481906I-5080J0D01*
G01*
X757592D02*
G03*
X757592Y481906I-5080J0D01*
G01*
X958878D02*
G03*
X958878Y481906I-5080J0D01*
G01*
X938812D02*
G03*
X938812Y481906I-5080J0D01*
G01*
X918652D02*
G03*
X918652Y481906I-5080J0D01*
G01*
X898652D02*
G03*
X898652Y481906I-5080J0D01*
G01*
X817818Y619996D02*
G03*
X817818Y619996I-5080J0D01*
G01*
X797752D02*
G03*
X797752Y619996I-5080J0D01*
G01*
X777592D02*
G03*
X777592Y619996I-5080J0D01*
G01*
X757592D02*
G03*
X757592Y619996I-5080J0D01*
G01*
X958878D02*
G03*
X958878Y619996I-5080J0D01*
G01*
X938812D02*
G03*
X938812Y619996I-5080J0D01*
G01*
X918652D02*
G03*
X918652Y619996I-5080J0D01*
G01*
X898652D02*
G03*
X898652Y619996I-5080J0D01*
G01*
X817818Y758086D02*
G03*
X817818Y758086I-5080J0D01*
G01*
X797752D02*
G03*
X797752Y758086I-5080J0D01*
G01*
X777592D02*
G03*
X777592Y758086I-5080J0D01*
G01*
X757592D02*
G03*
X757592Y758086I-5080J0D01*
G01*
X958878D02*
G03*
X958878Y758086I-5080J0D01*
G01*
X938812D02*
G03*
X938812Y758086I-5080J0D01*
G01*
X918652D02*
G03*
X918652Y758086I-5080J0D01*
G01*
X898652D02*
G03*
X898652Y758086I-5080J0D01*
G01*
X817818Y896176D02*
G03*
X817818Y896176I-5080J0D01*
G01*
X797752D02*
G03*
X797752Y896176I-5080J0D01*
G01*
X777592D02*
G03*
X777592Y896176I-5080J0D01*
G01*
X757592D02*
G03*
X757592Y896176I-5080J0D01*
G01*
X958878D02*
G03*
X958878Y896176I-5080J0D01*
G01*
X938812D02*
G03*
X938812Y896176I-5080J0D01*
G01*
X918652D02*
G03*
X918652Y896176I-5080J0D01*
G01*
X898652D02*
G03*
X898652Y896176I-5080J0D01*
G01*
X676758Y67636D02*
G03*
X676758Y67636I-5080J0D01*
G01*
X656692D02*
G03*
X656692Y67636I-5080J0D01*
G01*
X636532D02*
G03*
X636532Y67636I-5080J0D01*
G01*
X616532D02*
G03*
X616532Y67636I-5080J0D01*
G01*
X676758Y205726D02*
G03*
X676758Y205726I-5080J0D01*
G01*
X656692D02*
G03*
X656692Y205726I-5080J0D01*
G01*
X636532D02*
G03*
X636532Y205726I-5080J0D01*
G01*
X616532D02*
G03*
X616532Y205726I-5080J0D01*
G01*
X676758Y343816D02*
G03*
X676758Y343816I-5080J0D01*
G01*
X656692D02*
G03*
X656692Y343816I-5080J0D01*
G01*
X636532D02*
G03*
X636532Y343816I-5080J0D01*
G01*
X616532D02*
G03*
X616532Y343816I-5080J0D01*
G01*
X676758Y481906D02*
G03*
X676758Y481906I-5080J0D01*
G01*
X656692D02*
G03*
X656692Y481906I-5080J0D01*
G01*
X636532D02*
G03*
X636532Y481906I-5080J0D01*
G01*
X616532D02*
G03*
X616532Y481906I-5080J0D01*
G01*
X676758Y619996D02*
G03*
X676758Y619996I-5080J0D01*
G01*
X656692D02*
G03*
X656692Y619996I-5080J0D01*
G01*
X636532D02*
G03*
X636532Y619996I-5080J0D01*
G01*
X616532D02*
G03*
X616532Y619996I-5080J0D01*
G01*
X676758Y758086D02*
G03*
X676758Y758086I-5080J0D01*
G01*
X656692D02*
G03*
X656692Y758086I-5080J0D01*
G01*
X636532D02*
G03*
X636532Y758086I-5080J0D01*
G01*
X616532D02*
G03*
X616532Y758086I-5080J0D01*
G01*
X676758Y896176D02*
G03*
X676758Y896176I-5080J0D01*
G01*
X656692D02*
G03*
X656692Y896176I-5080J0D01*
G01*
X636532D02*
G03*
X636532Y896176I-5080J0D01*
G01*
X616532D02*
G03*
X616532Y896176I-5080J0D01*
G01*
X394638Y67636D02*
G03*
X394638Y67636I-5080J0D01*
G01*
X374572D02*
G03*
X374572Y67636I-5080J0D01*
G01*
X354412D02*
G03*
X354412Y67636I-5080J0D01*
G01*
X334412D02*
G03*
X334412Y67636I-5080J0D01*
G01*
X535698D02*
G03*
X535698Y67636I-5080J0D01*
G01*
X515632D02*
G03*
X515632Y67636I-5080J0D01*
G01*
X495472D02*
G03*
X495472Y67636I-5080J0D01*
G01*
X475472D02*
G03*
X475472Y67636I-5080J0D01*
G01*
X394638Y205726D02*
G03*
X394638Y205726I-5080J0D01*
G01*
X374572D02*
G03*
X374572Y205726I-5080J0D01*
G01*
X354412D02*
G03*
X354412Y205726I-5080J0D01*
G01*
X334412D02*
G03*
X334412Y205726I-5080J0D01*
G01*
X535698D02*
G03*
X535698Y205726I-5080J0D01*
G01*
X515632D02*
G03*
X515632Y205726I-5080J0D01*
G01*
X495472D02*
G03*
X495472Y205726I-5080J0D01*
G01*
X475472D02*
G03*
X475472Y205726I-5080J0D01*
G01*
X394638Y343816D02*
G03*
X394638Y343816I-5080J0D01*
G01*
X374572D02*
G03*
X374572Y343816I-5080J0D01*
G01*
X354412D02*
G03*
X354412Y343816I-5080J0D01*
G01*
X334412D02*
G03*
X334412Y343816I-5080J0D01*
G01*
X535698D02*
G03*
X535698Y343816I-5080J0D01*
G01*
X515632D02*
G03*
X515632Y343816I-5080J0D01*
G01*
X495472D02*
G03*
X495472Y343816I-5080J0D01*
G01*
X475472D02*
G03*
X475472Y343816I-5080J0D01*
G01*
X394638Y481906D02*
G03*
X394638Y481906I-5080J0D01*
G01*
X374572D02*
G03*
X374572Y481906I-5080J0D01*
G01*
X354412D02*
G03*
X354412Y481906I-5080J0D01*
G01*
X334412D02*
G03*
X334412Y481906I-5080J0D01*
G01*
X535698D02*
G03*
X535698Y481906I-5080J0D01*
G01*
X515632D02*
G03*
X515632Y481906I-5080J0D01*
G01*
X495472D02*
G03*
X495472Y481906I-5080J0D01*
G01*
X475472D02*
G03*
X475472Y481906I-5080J0D01*
G01*
X394638Y619996D02*
G03*
X394638Y619996I-5080J0D01*
G01*
X374572D02*
G03*
X374572Y619996I-5080J0D01*
G01*
X354412D02*
G03*
X354412Y619996I-5080J0D01*
G01*
X334412D02*
G03*
X334412Y619996I-5080J0D01*
G01*
X535698D02*
G03*
X535698Y619996I-5080J0D01*
G01*
X515632D02*
G03*
X515632Y619996I-5080J0D01*
G01*
X495472D02*
G03*
X495472Y619996I-5080J0D01*
G01*
X475472D02*
G03*
X475472Y619996I-5080J0D01*
G01*
X394638Y758086D02*
G03*
X394638Y758086I-5080J0D01*
G01*
X374572D02*
G03*
X374572Y758086I-5080J0D01*
G01*
X354412D02*
G03*
X354412Y758086I-5080J0D01*
G01*
X334412D02*
G03*
X334412Y758086I-5080J0D01*
G01*
X535698D02*
G03*
X535698Y758086I-5080J0D01*
G01*
X515632D02*
G03*
X515632Y758086I-5080J0D01*
G01*
X495472D02*
G03*
X495472Y758086I-5080J0D01*
G01*
X475472D02*
G03*
X475472Y758086I-5080J0D01*
G01*
X394638Y896176D02*
G03*
X394638Y896176I-5080J0D01*
G01*
X374572D02*
G03*
X374572Y896176I-5080J0D01*
G01*
X354412D02*
G03*
X354412Y896176I-5080J0D01*
G01*
X334412D02*
G03*
X334412Y896176I-5080J0D01*
G01*
X535698D02*
G03*
X535698Y896176I-5080J0D01*
G01*
X515632D02*
G03*
X515632Y896176I-5080J0D01*
G01*
X495472D02*
G03*
X495472Y896176I-5080J0D01*
G01*
X475472D02*
G03*
X475472Y896176I-5080J0D01*
G01*
X112523Y67641D02*
G03*
X112523Y67641I-5080J0D01*
G01*
X92457D02*
G03*
X92457Y67641I-5080J0D01*
G01*
X72297D02*
G03*
X72297Y67641I-5080J0D01*
G01*
X52297D02*
G03*
X52297Y67641I-5080J0D01*
G01*
X253583D02*
G03*
X253583Y67641I-5080J0D01*
G01*
X233517D02*
G03*
X233517Y67641I-5080J0D01*
G01*
X213357D02*
G03*
X213357Y67641I-5080J0D01*
G01*
X193357D02*
G03*
X193357Y67641I-5080J0D01*
G01*
X112523Y205731D02*
G03*
X112523Y205731I-5080J0D01*
G01*
X92457D02*
G03*
X92457Y205731I-5080J0D01*
G01*
X72297D02*
G03*
X72297Y205731I-5080J0D01*
G01*
X52297D02*
G03*
X52297Y205731I-5080J0D01*
G01*
X253583D02*
G03*
X253583Y205731I-5080J0D01*
G01*
X233517D02*
G03*
X233517Y205731I-5080J0D01*
G01*
X213357D02*
G03*
X213357Y205731I-5080J0D01*
G01*
X193357D02*
G03*
X193357Y205731I-5080J0D01*
G01*
X112523Y343821D02*
G03*
X112523Y343821I-5080J0D01*
G01*
X92457D02*
G03*
X92457Y343821I-5080J0D01*
G01*
X72297D02*
G03*
X72297Y343821I-5080J0D01*
G01*
X52297D02*
G03*
X52297Y343821I-5080J0D01*
G01*
X253583D02*
G03*
X253583Y343821I-5080J0D01*
G01*
X233517D02*
G03*
X233517Y343821I-5080J0D01*
G01*
X213357D02*
G03*
X213357Y343821I-5080J0D01*
G01*
X193357D02*
G03*
X193357Y343821I-5080J0D01*
G01*
X112523Y481911D02*
G03*
X112523Y481911I-5080J0D01*
G01*
X92457D02*
G03*
X92457Y481911I-5080J0D01*
G01*
X72297D02*
G03*
X72297Y481911I-5080J0D01*
G01*
X52297D02*
G03*
X52297Y481911I-5080J0D01*
G01*
X253583D02*
G03*
X253583Y481911I-5080J0D01*
G01*
X233517D02*
G03*
X233517Y481911I-5080J0D01*
G01*
X213357D02*
G03*
X213357Y481911I-5080J0D01*
G01*
X193357D02*
G03*
X193357Y481911I-5080J0D01*
G01*
X112523Y620001D02*
G03*
X112523Y620001I-5080J0D01*
G01*
X92457D02*
G03*
X92457Y620001I-5080J0D01*
G01*
X72297D02*
G03*
X72297Y620001I-5080J0D01*
G01*
X52297D02*
G03*
X52297Y620001I-5080J0D01*
G01*
X253583D02*
G03*
X253583Y620001I-5080J0D01*
G01*
X233517D02*
G03*
X233517Y620001I-5080J0D01*
G01*
X213357D02*
G03*
X213357Y620001I-5080J0D01*
G01*
X193357D02*
G03*
X193357Y620001I-5080J0D01*
G01*
X112523Y758091D02*
G03*
X112523Y758091I-5080J0D01*
G01*
X92457D02*
G03*
X92457Y758091I-5080J0D01*
G01*
X72297D02*
G03*
X72297Y758091I-5080J0D01*
G01*
X52297D02*
G03*
X52297Y758091I-5080J0D01*
G01*
X253583D02*
G03*
X253583Y758091I-5080J0D01*
G01*
X233517D02*
G03*
X233517Y758091I-5080J0D01*
G01*
X213357D02*
G03*
X213357Y758091I-5080J0D01*
G01*
X193357D02*
G03*
X193357Y758091I-5080J0D01*
G01*
X112523Y896181D02*
G03*
X112523Y896181I-5080J0D01*
G01*
X92457D02*
G03*
X92457Y896181I-5080J0D01*
G01*
X72297D02*
G03*
X72297Y896181I-5080J0D01*
G01*
X52297D02*
G03*
X52297Y896181I-5080J0D01*
G01*
X253583D02*
G03*
X253583Y896181I-5080J0D01*
G01*
X233517D02*
G03*
X233517Y896181I-5080J0D01*
G01*
X213357D02*
G03*
X213357Y896181I-5080J0D01*
G01*
X193357D02*
G03*
X193357Y896181I-5080J0D01*
G01*
M02*
