G04 Layer_Color=128*
%FSLAX44Y44*%
%MOMM*%
G71*
G01*
G75*
%ADD15C,0.1270*%
D15*
X804864Y128088D02*
X810960D01*
X807912Y125040D02*
Y131136D01*
X804864Y115388D02*
X810960D01*
X807912Y112340D02*
Y118436D01*
X792164Y128088D02*
X798260D01*
X795212Y125040D02*
Y131136D01*
X792164Y115388D02*
X798260D01*
X795212Y112340D02*
Y118436D01*
X779464Y128088D02*
X785560D01*
X782512Y125040D02*
Y131136D01*
X779464Y115388D02*
X785560D01*
X782512Y112340D02*
Y118436D01*
X766764Y128088D02*
X772860D01*
X769812Y125040D02*
Y131136D01*
X766764Y115388D02*
X772860D01*
X769812Y112340D02*
Y118436D01*
X754064Y128088D02*
X760160D01*
X757112Y125040D02*
Y131136D01*
X754064Y115388D02*
X760160D01*
X757112Y112340D02*
Y118436D01*
X808674Y67636D02*
X816802D01*
X812738Y63572D02*
Y71700D01*
X788608Y67636D02*
X796736D01*
X792672Y63572D02*
Y71700D01*
X768448Y67636D02*
X776576D01*
X772512Y63572D02*
Y71700D01*
X748448Y67636D02*
X756576D01*
X752512Y63572D02*
Y71700D01*
X945924Y128088D02*
X952020D01*
X948972Y125040D02*
Y131136D01*
X945924Y115388D02*
X952020D01*
X948972Y112340D02*
Y118436D01*
X933224Y128088D02*
X939320D01*
X936272Y125040D02*
Y131136D01*
X933224Y115388D02*
X939320D01*
X936272Y112340D02*
Y118436D01*
X920524Y128088D02*
X926620D01*
X923572Y125040D02*
Y131136D01*
X920524Y115388D02*
X926620D01*
X923572Y112340D02*
Y118436D01*
X907824Y128088D02*
X913920D01*
X910872Y125040D02*
Y131136D01*
X907824Y115388D02*
X913920D01*
X910872Y112340D02*
Y118436D01*
X895124Y128088D02*
X901220D01*
X898172Y125040D02*
Y131136D01*
X895124Y115388D02*
X901220D01*
X898172Y112340D02*
Y118436D01*
X949734Y67636D02*
X957862D01*
X953798Y63572D02*
Y71700D01*
X929668Y67636D02*
X937796D01*
X933732Y63572D02*
Y71700D01*
X909508Y67636D02*
X917636D01*
X913572Y63572D02*
Y71700D01*
X889508Y67636D02*
X897636D01*
X893572Y63572D02*
Y71700D01*
X804864Y266178D02*
X810960D01*
X807912Y263130D02*
Y269226D01*
X804864Y253478D02*
X810960D01*
X807912Y250430D02*
Y256526D01*
X792164Y266178D02*
X798260D01*
X795212Y263130D02*
Y269226D01*
X792164Y253478D02*
X798260D01*
X795212Y250430D02*
Y256526D01*
X779464Y266178D02*
X785560D01*
X782512Y263130D02*
Y269226D01*
X779464Y253478D02*
X785560D01*
X782512Y250430D02*
Y256526D01*
X766764Y266178D02*
X772860D01*
X769812Y263130D02*
Y269226D01*
X766764Y253478D02*
X772860D01*
X769812Y250430D02*
Y256526D01*
X754064Y266178D02*
X760160D01*
X757112Y263130D02*
Y269226D01*
X754064Y253478D02*
X760160D01*
X757112Y250430D02*
Y256526D01*
X808674Y205726D02*
X816802D01*
X812738Y201662D02*
Y209790D01*
X788608Y205726D02*
X796736D01*
X792672Y201662D02*
Y209790D01*
X768448Y205726D02*
X776576D01*
X772512Y201662D02*
Y209790D01*
X748448Y205726D02*
X756576D01*
X752512Y201662D02*
Y209790D01*
X945924Y266178D02*
X952020D01*
X948972Y263130D02*
Y269226D01*
X945924Y253478D02*
X952020D01*
X948972Y250430D02*
Y256526D01*
X933224Y266178D02*
X939320D01*
X936272Y263130D02*
Y269226D01*
X933224Y253478D02*
X939320D01*
X936272Y250430D02*
Y256526D01*
X920524Y266178D02*
X926620D01*
X923572Y263130D02*
Y269226D01*
X920524Y253478D02*
X926620D01*
X923572Y250430D02*
Y256526D01*
X907824Y266178D02*
X913920D01*
X910872Y263130D02*
Y269226D01*
X907824Y253478D02*
X913920D01*
X910872Y250430D02*
Y256526D01*
X895124Y266178D02*
X901220D01*
X898172Y263130D02*
Y269226D01*
X895124Y253478D02*
X901220D01*
X898172Y250430D02*
Y256526D01*
X949734Y205726D02*
X957862D01*
X953798Y201662D02*
Y209790D01*
X929668Y205726D02*
X937796D01*
X933732Y201662D02*
Y209790D01*
X909508Y205726D02*
X917636D01*
X913572Y201662D02*
Y209790D01*
X889508Y205726D02*
X897636D01*
X893572Y201662D02*
Y209790D01*
X804864Y404268D02*
X810960D01*
X807912Y401220D02*
Y407316D01*
X804864Y391568D02*
X810960D01*
X807912Y388520D02*
Y394616D01*
X792164Y404268D02*
X798260D01*
X795212Y401220D02*
Y407316D01*
X792164Y391568D02*
X798260D01*
X795212Y388520D02*
Y394616D01*
X779464Y404268D02*
X785560D01*
X782512Y401220D02*
Y407316D01*
X779464Y391568D02*
X785560D01*
X782512Y388520D02*
Y394616D01*
X766764Y404268D02*
X772860D01*
X769812Y401220D02*
Y407316D01*
X766764Y391568D02*
X772860D01*
X769812Y388520D02*
Y394616D01*
X754064Y404268D02*
X760160D01*
X757112Y401220D02*
Y407316D01*
X754064Y391568D02*
X760160D01*
X757112Y388520D02*
Y394616D01*
X808674Y343816D02*
X816802D01*
X812738Y339752D02*
Y347880D01*
X788608Y343816D02*
X796736D01*
X792672Y339752D02*
Y347880D01*
X768448Y343816D02*
X776576D01*
X772512Y339752D02*
Y347880D01*
X748448Y343816D02*
X756576D01*
X752512Y339752D02*
Y347880D01*
X945924Y404268D02*
X952020D01*
X948972Y401220D02*
Y407316D01*
X945924Y391568D02*
X952020D01*
X948972Y388520D02*
Y394616D01*
X933224Y404268D02*
X939320D01*
X936272Y401220D02*
Y407316D01*
X933224Y391568D02*
X939320D01*
X936272Y388520D02*
Y394616D01*
X920524Y404268D02*
X926620D01*
X923572Y401220D02*
Y407316D01*
X920524Y391568D02*
X926620D01*
X923572Y388520D02*
Y394616D01*
X907824Y404268D02*
X913920D01*
X910872Y401220D02*
Y407316D01*
X907824Y391568D02*
X913920D01*
X910872Y388520D02*
Y394616D01*
X895124Y404268D02*
X901220D01*
X898172Y401220D02*
Y407316D01*
X895124Y391568D02*
X901220D01*
X898172Y388520D02*
Y394616D01*
X949734Y343816D02*
X957862D01*
X953798Y339752D02*
Y347880D01*
X929668Y343816D02*
X937796D01*
X933732Y339752D02*
Y347880D01*
X909508Y343816D02*
X917636D01*
X913572Y339752D02*
Y347880D01*
X889508Y343816D02*
X897636D01*
X893572Y339752D02*
Y347880D01*
X804864Y542358D02*
X810960D01*
X807912Y539310D02*
Y545406D01*
X804864Y529658D02*
X810960D01*
X807912Y526610D02*
Y532706D01*
X792164Y542358D02*
X798260D01*
X795212Y539310D02*
Y545406D01*
X792164Y529658D02*
X798260D01*
X795212Y526610D02*
Y532706D01*
X779464Y542358D02*
X785560D01*
X782512Y539310D02*
Y545406D01*
X779464Y529658D02*
X785560D01*
X782512Y526610D02*
Y532706D01*
X766764Y542358D02*
X772860D01*
X769812Y539310D02*
Y545406D01*
X766764Y529658D02*
X772860D01*
X769812Y526610D02*
Y532706D01*
X754064Y542358D02*
X760160D01*
X757112Y539310D02*
Y545406D01*
X754064Y529658D02*
X760160D01*
X757112Y526610D02*
Y532706D01*
X808674Y481906D02*
X816802D01*
X812738Y477842D02*
Y485970D01*
X788608Y481906D02*
X796736D01*
X792672Y477842D02*
Y485970D01*
X768448Y481906D02*
X776576D01*
X772512Y477842D02*
Y485970D01*
X748448Y481906D02*
X756576D01*
X752512Y477842D02*
Y485970D01*
X945924Y542358D02*
X952020D01*
X948972Y539310D02*
Y545406D01*
X945924Y529658D02*
X952020D01*
X948972Y526610D02*
Y532706D01*
X933224Y542358D02*
X939320D01*
X936272Y539310D02*
Y545406D01*
X933224Y529658D02*
X939320D01*
X936272Y526610D02*
Y532706D01*
X920524Y542358D02*
X926620D01*
X923572Y539310D02*
Y545406D01*
X920524Y529658D02*
X926620D01*
X923572Y526610D02*
Y532706D01*
X907824Y542358D02*
X913920D01*
X910872Y539310D02*
Y545406D01*
X907824Y529658D02*
X913920D01*
X910872Y526610D02*
Y532706D01*
X895124Y542358D02*
X901220D01*
X898172Y539310D02*
Y545406D01*
X895124Y529658D02*
X901220D01*
X898172Y526610D02*
Y532706D01*
X949734Y481906D02*
X957862D01*
X953798Y477842D02*
Y485970D01*
X929668Y481906D02*
X937796D01*
X933732Y477842D02*
Y485970D01*
X909508Y481906D02*
X917636D01*
X913572Y477842D02*
Y485970D01*
X889508Y481906D02*
X897636D01*
X893572Y477842D02*
Y485970D01*
X804864Y680448D02*
X810960D01*
X807912Y677400D02*
Y683496D01*
X804864Y667748D02*
X810960D01*
X807912Y664700D02*
Y670796D01*
X792164Y680448D02*
X798260D01*
X795212Y677400D02*
Y683496D01*
X792164Y667748D02*
X798260D01*
X795212Y664700D02*
Y670796D01*
X779464Y680448D02*
X785560D01*
X782512Y677400D02*
Y683496D01*
X779464Y667748D02*
X785560D01*
X782512Y664700D02*
Y670796D01*
X766764Y680448D02*
X772860D01*
X769812Y677400D02*
Y683496D01*
X766764Y667748D02*
X772860D01*
X769812Y664700D02*
Y670796D01*
X754064Y680448D02*
X760160D01*
X757112Y677400D02*
Y683496D01*
X754064Y667748D02*
X760160D01*
X757112Y664700D02*
Y670796D01*
X808674Y619996D02*
X816802D01*
X812738Y615932D02*
Y624060D01*
X788608Y619996D02*
X796736D01*
X792672Y615932D02*
Y624060D01*
X768448Y619996D02*
X776576D01*
X772512Y615932D02*
Y624060D01*
X748448Y619996D02*
X756576D01*
X752512Y615932D02*
Y624060D01*
X945924Y680448D02*
X952020D01*
X948972Y677400D02*
Y683496D01*
X945924Y667748D02*
X952020D01*
X948972Y664700D02*
Y670796D01*
X933224Y680448D02*
X939320D01*
X936272Y677400D02*
Y683496D01*
X933224Y667748D02*
X939320D01*
X936272Y664700D02*
Y670796D01*
X920524Y680448D02*
X926620D01*
X923572Y677400D02*
Y683496D01*
X920524Y667748D02*
X926620D01*
X923572Y664700D02*
Y670796D01*
X907824Y680448D02*
X913920D01*
X910872Y677400D02*
Y683496D01*
X907824Y667748D02*
X913920D01*
X910872Y664700D02*
Y670796D01*
X895124Y680448D02*
X901220D01*
X898172Y677400D02*
Y683496D01*
X895124Y667748D02*
X901220D01*
X898172Y664700D02*
Y670796D01*
X949734Y619996D02*
X957862D01*
X953798Y615932D02*
Y624060D01*
X929668Y619996D02*
X937796D01*
X933732Y615932D02*
Y624060D01*
X909508Y619996D02*
X917636D01*
X913572Y615932D02*
Y624060D01*
X889508Y619996D02*
X897636D01*
X893572Y615932D02*
Y624060D01*
X804864Y818538D02*
X810960D01*
X807912Y815490D02*
Y821586D01*
X804864Y805838D02*
X810960D01*
X807912Y802790D02*
Y808886D01*
X792164Y818538D02*
X798260D01*
X795212Y815490D02*
Y821586D01*
X792164Y805838D02*
X798260D01*
X795212Y802790D02*
Y808886D01*
X779464Y818538D02*
X785560D01*
X782512Y815490D02*
Y821586D01*
X779464Y805838D02*
X785560D01*
X782512Y802790D02*
Y808886D01*
X766764Y818538D02*
X772860D01*
X769812Y815490D02*
Y821586D01*
X766764Y805838D02*
X772860D01*
X769812Y802790D02*
Y808886D01*
X754064Y818538D02*
X760160D01*
X757112Y815490D02*
Y821586D01*
X754064Y805838D02*
X760160D01*
X757112Y802790D02*
Y808886D01*
X808674Y758086D02*
X816802D01*
X812738Y754022D02*
Y762150D01*
X788608Y758086D02*
X796736D01*
X792672Y754022D02*
Y762150D01*
X768448Y758086D02*
X776576D01*
X772512Y754022D02*
Y762150D01*
X748448Y758086D02*
X756576D01*
X752512Y754022D02*
Y762150D01*
X945924Y818538D02*
X952020D01*
X948972Y815490D02*
Y821586D01*
X945924Y805838D02*
X952020D01*
X948972Y802790D02*
Y808886D01*
X933224Y818538D02*
X939320D01*
X936272Y815490D02*
Y821586D01*
X933224Y805838D02*
X939320D01*
X936272Y802790D02*
Y808886D01*
X920524Y818538D02*
X926620D01*
X923572Y815490D02*
Y821586D01*
X920524Y805838D02*
X926620D01*
X923572Y802790D02*
Y808886D01*
X907824Y818538D02*
X913920D01*
X910872Y815490D02*
Y821586D01*
X907824Y805838D02*
X913920D01*
X910872Y802790D02*
Y808886D01*
X895124Y818538D02*
X901220D01*
X898172Y815490D02*
Y821586D01*
X895124Y805838D02*
X901220D01*
X898172Y802790D02*
Y808886D01*
X949734Y758086D02*
X957862D01*
X953798Y754022D02*
Y762150D01*
X929668Y758086D02*
X937796D01*
X933732Y754022D02*
Y762150D01*
X909508Y758086D02*
X917636D01*
X913572Y754022D02*
Y762150D01*
X889508Y758086D02*
X897636D01*
X893572Y754022D02*
Y762150D01*
X804864Y956628D02*
X810960D01*
X807912Y953580D02*
Y959676D01*
X804864Y943928D02*
X810960D01*
X807912Y940880D02*
Y946976D01*
X792164Y956628D02*
X798260D01*
X795212Y953580D02*
Y959676D01*
X792164Y943928D02*
X798260D01*
X795212Y940880D02*
Y946976D01*
X779464Y956628D02*
X785560D01*
X782512Y953580D02*
Y959676D01*
X779464Y943928D02*
X785560D01*
X782512Y940880D02*
Y946976D01*
X766764Y956628D02*
X772860D01*
X769812Y953580D02*
Y959676D01*
X766764Y943928D02*
X772860D01*
X769812Y940880D02*
Y946976D01*
X754064Y956628D02*
X760160D01*
X757112Y953580D02*
Y959676D01*
X754064Y943928D02*
X760160D01*
X757112Y940880D02*
Y946976D01*
X808674Y896176D02*
X816802D01*
X812738Y892112D02*
Y900240D01*
X788608Y896176D02*
X796736D01*
X792672Y892112D02*
Y900240D01*
X768448Y896176D02*
X776576D01*
X772512Y892112D02*
Y900240D01*
X748448Y896176D02*
X756576D01*
X752512Y892112D02*
Y900240D01*
X945924Y956628D02*
X952020D01*
X948972Y953580D02*
Y959676D01*
X945924Y943928D02*
X952020D01*
X948972Y940880D02*
Y946976D01*
X933224Y956628D02*
X939320D01*
X936272Y953580D02*
Y959676D01*
X933224Y943928D02*
X939320D01*
X936272Y940880D02*
Y946976D01*
X920524Y956628D02*
X926620D01*
X923572Y953580D02*
Y959676D01*
X920524Y943928D02*
X926620D01*
X923572Y940880D02*
Y946976D01*
X907824Y956628D02*
X913920D01*
X910872Y953580D02*
Y959676D01*
X907824Y943928D02*
X913920D01*
X910872Y940880D02*
Y946976D01*
X895124Y956628D02*
X901220D01*
X898172Y953580D02*
Y959676D01*
X895124Y943928D02*
X901220D01*
X898172Y940880D02*
Y946976D01*
X949734Y896176D02*
X957862D01*
X953798Y892112D02*
Y900240D01*
X929668Y896176D02*
X937796D01*
X933732Y892112D02*
Y900240D01*
X909508Y896176D02*
X917636D01*
X913572Y892112D02*
Y900240D01*
X889508Y896176D02*
X897636D01*
X893572Y892112D02*
Y900240D01*
X663804Y128088D02*
X669900D01*
X666852Y125040D02*
Y131136D01*
X663804Y115388D02*
X669900D01*
X666852Y112340D02*
Y118436D01*
X651104Y128088D02*
X657200D01*
X654152Y125040D02*
Y131136D01*
X651104Y115388D02*
X657200D01*
X654152Y112340D02*
Y118436D01*
X638404Y128088D02*
X644500D01*
X641452Y125040D02*
Y131136D01*
X638404Y115388D02*
X644500D01*
X641452Y112340D02*
Y118436D01*
X625704Y128088D02*
X631800D01*
X628752Y125040D02*
Y131136D01*
X625704Y115388D02*
X631800D01*
X628752Y112340D02*
Y118436D01*
X613004Y128088D02*
X619100D01*
X616052Y125040D02*
Y131136D01*
X613004Y115388D02*
X619100D01*
X616052Y112340D02*
Y118436D01*
X667614Y67636D02*
X675742D01*
X671678Y63572D02*
Y71700D01*
X647548Y67636D02*
X655676D01*
X651612Y63572D02*
Y71700D01*
X627388Y67636D02*
X635516D01*
X631452Y63572D02*
Y71700D01*
X607388Y67636D02*
X615516D01*
X611452Y63572D02*
Y71700D01*
X663804Y266178D02*
X669900D01*
X666852Y263130D02*
Y269226D01*
X663804Y253478D02*
X669900D01*
X666852Y250430D02*
Y256526D01*
X651104Y266178D02*
X657200D01*
X654152Y263130D02*
Y269226D01*
X651104Y253478D02*
X657200D01*
X654152Y250430D02*
Y256526D01*
X638404Y266178D02*
X644500D01*
X641452Y263130D02*
Y269226D01*
X638404Y253478D02*
X644500D01*
X641452Y250430D02*
Y256526D01*
X625704Y266178D02*
X631800D01*
X628752Y263130D02*
Y269226D01*
X625704Y253478D02*
X631800D01*
X628752Y250430D02*
Y256526D01*
X613004Y266178D02*
X619100D01*
X616052Y263130D02*
Y269226D01*
X613004Y253478D02*
X619100D01*
X616052Y250430D02*
Y256526D01*
X667614Y205726D02*
X675742D01*
X671678Y201662D02*
Y209790D01*
X647548Y205726D02*
X655676D01*
X651612Y201662D02*
Y209790D01*
X627388Y205726D02*
X635516D01*
X631452Y201662D02*
Y209790D01*
X607388Y205726D02*
X615516D01*
X611452Y201662D02*
Y209790D01*
X663804Y404268D02*
X669900D01*
X666852Y401220D02*
Y407316D01*
X663804Y391568D02*
X669900D01*
X666852Y388520D02*
Y394616D01*
X651104Y404268D02*
X657200D01*
X654152Y401220D02*
Y407316D01*
X651104Y391568D02*
X657200D01*
X654152Y388520D02*
Y394616D01*
X638404Y404268D02*
X644500D01*
X641452Y401220D02*
Y407316D01*
X638404Y391568D02*
X644500D01*
X641452Y388520D02*
Y394616D01*
X625704Y404268D02*
X631800D01*
X628752Y401220D02*
Y407316D01*
X625704Y391568D02*
X631800D01*
X628752Y388520D02*
Y394616D01*
X613004Y404268D02*
X619100D01*
X616052Y401220D02*
Y407316D01*
X613004Y391568D02*
X619100D01*
X616052Y388520D02*
Y394616D01*
X667614Y343816D02*
X675742D01*
X671678Y339752D02*
Y347880D01*
X647548Y343816D02*
X655676D01*
X651612Y339752D02*
Y347880D01*
X627388Y343816D02*
X635516D01*
X631452Y339752D02*
Y347880D01*
X607388Y343816D02*
X615516D01*
X611452Y339752D02*
Y347880D01*
X663804Y542358D02*
X669900D01*
X666852Y539310D02*
Y545406D01*
X663804Y529658D02*
X669900D01*
X666852Y526610D02*
Y532706D01*
X651104Y542358D02*
X657200D01*
X654152Y539310D02*
Y545406D01*
X651104Y529658D02*
X657200D01*
X654152Y526610D02*
Y532706D01*
X638404Y542358D02*
X644500D01*
X641452Y539310D02*
Y545406D01*
X638404Y529658D02*
X644500D01*
X641452Y526610D02*
Y532706D01*
X625704Y542358D02*
X631800D01*
X628752Y539310D02*
Y545406D01*
X625704Y529658D02*
X631800D01*
X628752Y526610D02*
Y532706D01*
X613004Y542358D02*
X619100D01*
X616052Y539310D02*
Y545406D01*
X613004Y529658D02*
X619100D01*
X616052Y526610D02*
Y532706D01*
X667614Y481906D02*
X675742D01*
X671678Y477842D02*
Y485970D01*
X647548Y481906D02*
X655676D01*
X651612Y477842D02*
Y485970D01*
X627388Y481906D02*
X635516D01*
X631452Y477842D02*
Y485970D01*
X607388Y481906D02*
X615516D01*
X611452Y477842D02*
Y485970D01*
X663804Y680448D02*
X669900D01*
X666852Y677400D02*
Y683496D01*
X663804Y667748D02*
X669900D01*
X666852Y664700D02*
Y670796D01*
X651104Y680448D02*
X657200D01*
X654152Y677400D02*
Y683496D01*
X651104Y667748D02*
X657200D01*
X654152Y664700D02*
Y670796D01*
X638404Y680448D02*
X644500D01*
X641452Y677400D02*
Y683496D01*
X638404Y667748D02*
X644500D01*
X641452Y664700D02*
Y670796D01*
X625704Y680448D02*
X631800D01*
X628752Y677400D02*
Y683496D01*
X625704Y667748D02*
X631800D01*
X628752Y664700D02*
Y670796D01*
X613004Y680448D02*
X619100D01*
X616052Y677400D02*
Y683496D01*
X613004Y667748D02*
X619100D01*
X616052Y664700D02*
Y670796D01*
X667614Y619996D02*
X675742D01*
X671678Y615932D02*
Y624060D01*
X647548Y619996D02*
X655676D01*
X651612Y615932D02*
Y624060D01*
X627388Y619996D02*
X635516D01*
X631452Y615932D02*
Y624060D01*
X607388Y619996D02*
X615516D01*
X611452Y615932D02*
Y624060D01*
X663804Y818538D02*
X669900D01*
X666852Y815490D02*
Y821586D01*
X663804Y805838D02*
X669900D01*
X666852Y802790D02*
Y808886D01*
X651104Y818538D02*
X657200D01*
X654152Y815490D02*
Y821586D01*
X651104Y805838D02*
X657200D01*
X654152Y802790D02*
Y808886D01*
X638404Y818538D02*
X644500D01*
X641452Y815490D02*
Y821586D01*
X638404Y805838D02*
X644500D01*
X641452Y802790D02*
Y808886D01*
X625704Y818538D02*
X631800D01*
X628752Y815490D02*
Y821586D01*
X625704Y805838D02*
X631800D01*
X628752Y802790D02*
Y808886D01*
X613004Y818538D02*
X619100D01*
X616052Y815490D02*
Y821586D01*
X613004Y805838D02*
X619100D01*
X616052Y802790D02*
Y808886D01*
X667614Y758086D02*
X675742D01*
X671678Y754022D02*
Y762150D01*
X647548Y758086D02*
X655676D01*
X651612Y754022D02*
Y762150D01*
X627388Y758086D02*
X635516D01*
X631452Y754022D02*
Y762150D01*
X607388Y758086D02*
X615516D01*
X611452Y754022D02*
Y762150D01*
X663804Y956628D02*
X669900D01*
X666852Y953580D02*
Y959676D01*
X663804Y943928D02*
X669900D01*
X666852Y940880D02*
Y946976D01*
X651104Y956628D02*
X657200D01*
X654152Y953580D02*
Y959676D01*
X651104Y943928D02*
X657200D01*
X654152Y940880D02*
Y946976D01*
X638404Y956628D02*
X644500D01*
X641452Y953580D02*
Y959676D01*
X638404Y943928D02*
X644500D01*
X641452Y940880D02*
Y946976D01*
X625704Y956628D02*
X631800D01*
X628752Y953580D02*
Y959676D01*
X625704Y943928D02*
X631800D01*
X628752Y940880D02*
Y946976D01*
X613004Y956628D02*
X619100D01*
X616052Y953580D02*
Y959676D01*
X613004Y943928D02*
X619100D01*
X616052Y940880D02*
Y946976D01*
X667614Y896176D02*
X675742D01*
X671678Y892112D02*
Y900240D01*
X647548Y896176D02*
X655676D01*
X651612Y892112D02*
Y900240D01*
X627388Y896176D02*
X635516D01*
X631452Y892112D02*
Y900240D01*
X607388Y896176D02*
X615516D01*
X611452Y892112D02*
Y900240D01*
X381684Y128088D02*
X387780D01*
X384732Y125040D02*
Y131136D01*
X381684Y115388D02*
X387780D01*
X384732Y112340D02*
Y118436D01*
X368984Y128088D02*
X375080D01*
X372032Y125040D02*
Y131136D01*
X368984Y115388D02*
X375080D01*
X372032Y112340D02*
Y118436D01*
X356284Y128088D02*
X362380D01*
X359332Y125040D02*
Y131136D01*
X356284Y115388D02*
X362380D01*
X359332Y112340D02*
Y118436D01*
X343584Y128088D02*
X349680D01*
X346632Y125040D02*
Y131136D01*
X343584Y115388D02*
X349680D01*
X346632Y112340D02*
Y118436D01*
X330884Y128088D02*
X336980D01*
X333932Y125040D02*
Y131136D01*
X330884Y115388D02*
X336980D01*
X333932Y112340D02*
Y118436D01*
X385494Y67636D02*
X393622D01*
X389558Y63572D02*
Y71700D01*
X365428Y67636D02*
X373556D01*
X369492Y63572D02*
Y71700D01*
X345268Y67636D02*
X353396D01*
X349332Y63572D02*
Y71700D01*
X325268Y67636D02*
X333396D01*
X329332Y63572D02*
Y71700D01*
X522744Y128088D02*
X528840D01*
X525792Y125040D02*
Y131136D01*
X522744Y115388D02*
X528840D01*
X525792Y112340D02*
Y118436D01*
X510044Y128088D02*
X516140D01*
X513092Y125040D02*
Y131136D01*
X510044Y115388D02*
X516140D01*
X513092Y112340D02*
Y118436D01*
X497344Y128088D02*
X503440D01*
X500392Y125040D02*
Y131136D01*
X497344Y115388D02*
X503440D01*
X500392Y112340D02*
Y118436D01*
X484644Y128088D02*
X490740D01*
X487692Y125040D02*
Y131136D01*
X484644Y115388D02*
X490740D01*
X487692Y112340D02*
Y118436D01*
X471944Y128088D02*
X478040D01*
X474992Y125040D02*
Y131136D01*
X471944Y115388D02*
X478040D01*
X474992Y112340D02*
Y118436D01*
X526554Y67636D02*
X534682D01*
X530618Y63572D02*
Y71700D01*
X506488Y67636D02*
X514616D01*
X510552Y63572D02*
Y71700D01*
X486328Y67636D02*
X494456D01*
X490392Y63572D02*
Y71700D01*
X466328Y67636D02*
X474456D01*
X470392Y63572D02*
Y71700D01*
X381684Y266178D02*
X387780D01*
X384732Y263130D02*
Y269226D01*
X381684Y253478D02*
X387780D01*
X384732Y250430D02*
Y256526D01*
X368984Y266178D02*
X375080D01*
X372032Y263130D02*
Y269226D01*
X368984Y253478D02*
X375080D01*
X372032Y250430D02*
Y256526D01*
X356284Y266178D02*
X362380D01*
X359332Y263130D02*
Y269226D01*
X356284Y253478D02*
X362380D01*
X359332Y250430D02*
Y256526D01*
X343584Y266178D02*
X349680D01*
X346632Y263130D02*
Y269226D01*
X343584Y253478D02*
X349680D01*
X346632Y250430D02*
Y256526D01*
X330884Y266178D02*
X336980D01*
X333932Y263130D02*
Y269226D01*
X330884Y253478D02*
X336980D01*
X333932Y250430D02*
Y256526D01*
X385494Y205726D02*
X393622D01*
X389558Y201662D02*
Y209790D01*
X365428Y205726D02*
X373556D01*
X369492Y201662D02*
Y209790D01*
X345268Y205726D02*
X353396D01*
X349332Y201662D02*
Y209790D01*
X325268Y205726D02*
X333396D01*
X329332Y201662D02*
Y209790D01*
X522744Y266178D02*
X528840D01*
X525792Y263130D02*
Y269226D01*
X522744Y253478D02*
X528840D01*
X525792Y250430D02*
Y256526D01*
X510044Y266178D02*
X516140D01*
X513092Y263130D02*
Y269226D01*
X510044Y253478D02*
X516140D01*
X513092Y250430D02*
Y256526D01*
X497344Y266178D02*
X503440D01*
X500392Y263130D02*
Y269226D01*
X497344Y253478D02*
X503440D01*
X500392Y250430D02*
Y256526D01*
X484644Y266178D02*
X490740D01*
X487692Y263130D02*
Y269226D01*
X484644Y253478D02*
X490740D01*
X487692Y250430D02*
Y256526D01*
X471944Y266178D02*
X478040D01*
X474992Y263130D02*
Y269226D01*
X471944Y253478D02*
X478040D01*
X474992Y250430D02*
Y256526D01*
X526554Y205726D02*
X534682D01*
X530618Y201662D02*
Y209790D01*
X506488Y205726D02*
X514616D01*
X510552Y201662D02*
Y209790D01*
X486328Y205726D02*
X494456D01*
X490392Y201662D02*
Y209790D01*
X466328Y205726D02*
X474456D01*
X470392Y201662D02*
Y209790D01*
X381684Y404268D02*
X387780D01*
X384732Y401220D02*
Y407316D01*
X381684Y391568D02*
X387780D01*
X384732Y388520D02*
Y394616D01*
X368984Y404268D02*
X375080D01*
X372032Y401220D02*
Y407316D01*
X368984Y391568D02*
X375080D01*
X372032Y388520D02*
Y394616D01*
X356284Y404268D02*
X362380D01*
X359332Y401220D02*
Y407316D01*
X356284Y391568D02*
X362380D01*
X359332Y388520D02*
Y394616D01*
X343584Y404268D02*
X349680D01*
X346632Y401220D02*
Y407316D01*
X343584Y391568D02*
X349680D01*
X346632Y388520D02*
Y394616D01*
X330884Y404268D02*
X336980D01*
X333932Y401220D02*
Y407316D01*
X330884Y391568D02*
X336980D01*
X333932Y388520D02*
Y394616D01*
X385494Y343816D02*
X393622D01*
X389558Y339752D02*
Y347880D01*
X365428Y343816D02*
X373556D01*
X369492Y339752D02*
Y347880D01*
X345268Y343816D02*
X353396D01*
X349332Y339752D02*
Y347880D01*
X325268Y343816D02*
X333396D01*
X329332Y339752D02*
Y347880D01*
X522744Y404268D02*
X528840D01*
X525792Y401220D02*
Y407316D01*
X522744Y391568D02*
X528840D01*
X525792Y388520D02*
Y394616D01*
X510044Y404268D02*
X516140D01*
X513092Y401220D02*
Y407316D01*
X510044Y391568D02*
X516140D01*
X513092Y388520D02*
Y394616D01*
X497344Y404268D02*
X503440D01*
X500392Y401220D02*
Y407316D01*
X497344Y391568D02*
X503440D01*
X500392Y388520D02*
Y394616D01*
X484644Y404268D02*
X490740D01*
X487692Y401220D02*
Y407316D01*
X484644Y391568D02*
X490740D01*
X487692Y388520D02*
Y394616D01*
X471944Y404268D02*
X478040D01*
X474992Y401220D02*
Y407316D01*
X471944Y391568D02*
X478040D01*
X474992Y388520D02*
Y394616D01*
X526554Y343816D02*
X534682D01*
X530618Y339752D02*
Y347880D01*
X506488Y343816D02*
X514616D01*
X510552Y339752D02*
Y347880D01*
X486328Y343816D02*
X494456D01*
X490392Y339752D02*
Y347880D01*
X466328Y343816D02*
X474456D01*
X470392Y339752D02*
Y347880D01*
X381684Y542358D02*
X387780D01*
X384732Y539310D02*
Y545406D01*
X381684Y529658D02*
X387780D01*
X384732Y526610D02*
Y532706D01*
X368984Y542358D02*
X375080D01*
X372032Y539310D02*
Y545406D01*
X368984Y529658D02*
X375080D01*
X372032Y526610D02*
Y532706D01*
X356284Y542358D02*
X362380D01*
X359332Y539310D02*
Y545406D01*
X356284Y529658D02*
X362380D01*
X359332Y526610D02*
Y532706D01*
X343584Y542358D02*
X349680D01*
X346632Y539310D02*
Y545406D01*
X343584Y529658D02*
X349680D01*
X346632Y526610D02*
Y532706D01*
X330884Y542358D02*
X336980D01*
X333932Y539310D02*
Y545406D01*
X330884Y529658D02*
X336980D01*
X333932Y526610D02*
Y532706D01*
X385494Y481906D02*
X393622D01*
X389558Y477842D02*
Y485970D01*
X365428Y481906D02*
X373556D01*
X369492Y477842D02*
Y485970D01*
X345268Y481906D02*
X353396D01*
X349332Y477842D02*
Y485970D01*
X325268Y481906D02*
X333396D01*
X329332Y477842D02*
Y485970D01*
X522744Y542358D02*
X528840D01*
X525792Y539310D02*
Y545406D01*
X522744Y529658D02*
X528840D01*
X525792Y526610D02*
Y532706D01*
X510044Y542358D02*
X516140D01*
X513092Y539310D02*
Y545406D01*
X510044Y529658D02*
X516140D01*
X513092Y526610D02*
Y532706D01*
X497344Y542358D02*
X503440D01*
X500392Y539310D02*
Y545406D01*
X497344Y529658D02*
X503440D01*
X500392Y526610D02*
Y532706D01*
X484644Y542358D02*
X490740D01*
X487692Y539310D02*
Y545406D01*
X484644Y529658D02*
X490740D01*
X487692Y526610D02*
Y532706D01*
X471944Y542358D02*
X478040D01*
X474992Y539310D02*
Y545406D01*
X471944Y529658D02*
X478040D01*
X474992Y526610D02*
Y532706D01*
X526554Y481906D02*
X534682D01*
X530618Y477842D02*
Y485970D01*
X506488Y481906D02*
X514616D01*
X510552Y477842D02*
Y485970D01*
X486328Y481906D02*
X494456D01*
X490392Y477842D02*
Y485970D01*
X466328Y481906D02*
X474456D01*
X470392Y477842D02*
Y485970D01*
X381684Y680448D02*
X387780D01*
X384732Y677400D02*
Y683496D01*
X381684Y667748D02*
X387780D01*
X384732Y664700D02*
Y670796D01*
X368984Y680448D02*
X375080D01*
X372032Y677400D02*
Y683496D01*
X368984Y667748D02*
X375080D01*
X372032Y664700D02*
Y670796D01*
X356284Y680448D02*
X362380D01*
X359332Y677400D02*
Y683496D01*
X356284Y667748D02*
X362380D01*
X359332Y664700D02*
Y670796D01*
X343584Y680448D02*
X349680D01*
X346632Y677400D02*
Y683496D01*
X343584Y667748D02*
X349680D01*
X346632Y664700D02*
Y670796D01*
X330884Y680448D02*
X336980D01*
X333932Y677400D02*
Y683496D01*
X330884Y667748D02*
X336980D01*
X333932Y664700D02*
Y670796D01*
X385494Y619996D02*
X393622D01*
X389558Y615932D02*
Y624060D01*
X365428Y619996D02*
X373556D01*
X369492Y615932D02*
Y624060D01*
X345268Y619996D02*
X353396D01*
X349332Y615932D02*
Y624060D01*
X325268Y619996D02*
X333396D01*
X329332Y615932D02*
Y624060D01*
X522744Y680448D02*
X528840D01*
X525792Y677400D02*
Y683496D01*
X522744Y667748D02*
X528840D01*
X525792Y664700D02*
Y670796D01*
X510044Y680448D02*
X516140D01*
X513092Y677400D02*
Y683496D01*
X510044Y667748D02*
X516140D01*
X513092Y664700D02*
Y670796D01*
X497344Y680448D02*
X503440D01*
X500392Y677400D02*
Y683496D01*
X497344Y667748D02*
X503440D01*
X500392Y664700D02*
Y670796D01*
X484644Y680448D02*
X490740D01*
X487692Y677400D02*
Y683496D01*
X484644Y667748D02*
X490740D01*
X487692Y664700D02*
Y670796D01*
X471944Y680448D02*
X478040D01*
X474992Y677400D02*
Y683496D01*
X471944Y667748D02*
X478040D01*
X474992Y664700D02*
Y670796D01*
X526554Y619996D02*
X534682D01*
X530618Y615932D02*
Y624060D01*
X506488Y619996D02*
X514616D01*
X510552Y615932D02*
Y624060D01*
X486328Y619996D02*
X494456D01*
X490392Y615932D02*
Y624060D01*
X466328Y619996D02*
X474456D01*
X470392Y615932D02*
Y624060D01*
X381684Y818538D02*
X387780D01*
X384732Y815490D02*
Y821586D01*
X381684Y805838D02*
X387780D01*
X384732Y802790D02*
Y808886D01*
X368984Y818538D02*
X375080D01*
X372032Y815490D02*
Y821586D01*
X368984Y805838D02*
X375080D01*
X372032Y802790D02*
Y808886D01*
X356284Y818538D02*
X362380D01*
X359332Y815490D02*
Y821586D01*
X356284Y805838D02*
X362380D01*
X359332Y802790D02*
Y808886D01*
X343584Y818538D02*
X349680D01*
X346632Y815490D02*
Y821586D01*
X343584Y805838D02*
X349680D01*
X346632Y802790D02*
Y808886D01*
X330884Y818538D02*
X336980D01*
X333932Y815490D02*
Y821586D01*
X330884Y805838D02*
X336980D01*
X333932Y802790D02*
Y808886D01*
X385494Y758086D02*
X393622D01*
X389558Y754022D02*
Y762150D01*
X365428Y758086D02*
X373556D01*
X369492Y754022D02*
Y762150D01*
X345268Y758086D02*
X353396D01*
X349332Y754022D02*
Y762150D01*
X325268Y758086D02*
X333396D01*
X329332Y754022D02*
Y762150D01*
X522744Y818538D02*
X528840D01*
X525792Y815490D02*
Y821586D01*
X522744Y805838D02*
X528840D01*
X525792Y802790D02*
Y808886D01*
X510044Y818538D02*
X516140D01*
X513092Y815490D02*
Y821586D01*
X510044Y805838D02*
X516140D01*
X513092Y802790D02*
Y808886D01*
X497344Y818538D02*
X503440D01*
X500392Y815490D02*
Y821586D01*
X497344Y805838D02*
X503440D01*
X500392Y802790D02*
Y808886D01*
X484644Y818538D02*
X490740D01*
X487692Y815490D02*
Y821586D01*
X484644Y805838D02*
X490740D01*
X487692Y802790D02*
Y808886D01*
X471944Y818538D02*
X478040D01*
X474992Y815490D02*
Y821586D01*
X471944Y805838D02*
X478040D01*
X474992Y802790D02*
Y808886D01*
X526554Y758086D02*
X534682D01*
X530618Y754022D02*
Y762150D01*
X506488Y758086D02*
X514616D01*
X510552Y754022D02*
Y762150D01*
X486328Y758086D02*
X494456D01*
X490392Y754022D02*
Y762150D01*
X466328Y758086D02*
X474456D01*
X470392Y754022D02*
Y762150D01*
X381684Y956628D02*
X387780D01*
X384732Y953580D02*
Y959676D01*
X381684Y943928D02*
X387780D01*
X384732Y940880D02*
Y946976D01*
X368984Y956628D02*
X375080D01*
X372032Y953580D02*
Y959676D01*
X368984Y943928D02*
X375080D01*
X372032Y940880D02*
Y946976D01*
X356284Y956628D02*
X362380D01*
X359332Y953580D02*
Y959676D01*
X356284Y943928D02*
X362380D01*
X359332Y940880D02*
Y946976D01*
X343584Y956628D02*
X349680D01*
X346632Y953580D02*
Y959676D01*
X343584Y943928D02*
X349680D01*
X346632Y940880D02*
Y946976D01*
X330884Y956628D02*
X336980D01*
X333932Y953580D02*
Y959676D01*
X330884Y943928D02*
X336980D01*
X333932Y940880D02*
Y946976D01*
X385494Y896176D02*
X393622D01*
X389558Y892112D02*
Y900240D01*
X365428Y896176D02*
X373556D01*
X369492Y892112D02*
Y900240D01*
X345268Y896176D02*
X353396D01*
X349332Y892112D02*
Y900240D01*
X325268Y896176D02*
X333396D01*
X329332Y892112D02*
Y900240D01*
X522744Y956628D02*
X528840D01*
X525792Y953580D02*
Y959676D01*
X522744Y943928D02*
X528840D01*
X525792Y940880D02*
Y946976D01*
X510044Y956628D02*
X516140D01*
X513092Y953580D02*
Y959676D01*
X510044Y943928D02*
X516140D01*
X513092Y940880D02*
Y946976D01*
X497344Y956628D02*
X503440D01*
X500392Y953580D02*
Y959676D01*
X497344Y943928D02*
X503440D01*
X500392Y940880D02*
Y946976D01*
X484644Y956628D02*
X490740D01*
X487692Y953580D02*
Y959676D01*
X484644Y943928D02*
X490740D01*
X487692Y940880D02*
Y946976D01*
X471944Y956628D02*
X478040D01*
X474992Y953580D02*
Y959676D01*
X471944Y943928D02*
X478040D01*
X474992Y940880D02*
Y946976D01*
X526554Y896176D02*
X534682D01*
X530618Y892112D02*
Y900240D01*
X506488Y896176D02*
X514616D01*
X510552Y892112D02*
Y900240D01*
X486328Y896176D02*
X494456D01*
X490392Y892112D02*
Y900240D01*
X466328Y896176D02*
X474456D01*
X470392Y892112D02*
Y900240D01*
X99569Y128093D02*
X105665D01*
X102617Y125045D02*
Y131141D01*
X99569Y115393D02*
X105665D01*
X102617Y112345D02*
Y118441D01*
X86869Y128093D02*
X92965D01*
X89917Y125045D02*
Y131141D01*
X86869Y115393D02*
X92965D01*
X89917Y112345D02*
Y118441D01*
X74169Y128093D02*
X80265D01*
X77217Y125045D02*
Y131141D01*
X74169Y115393D02*
X80265D01*
X77217Y112345D02*
Y118441D01*
X61469Y128093D02*
X67565D01*
X64517Y125045D02*
Y131141D01*
X61469Y115393D02*
X67565D01*
X64517Y112345D02*
Y118441D01*
X48769Y128093D02*
X54865D01*
X51817Y125045D02*
Y131141D01*
X48769Y115393D02*
X54865D01*
X51817Y112345D02*
Y118441D01*
X103379Y67641D02*
X111507D01*
X107443Y63577D02*
Y71705D01*
X83313Y67641D02*
X91441D01*
X87377Y63577D02*
Y71705D01*
X63153Y67641D02*
X71281D01*
X67217Y63577D02*
Y71705D01*
X43153Y67641D02*
X51281D01*
X47217Y63577D02*
Y71705D01*
X240629Y128093D02*
X246725D01*
X243677Y125045D02*
Y131141D01*
X240629Y115393D02*
X246725D01*
X243677Y112345D02*
Y118441D01*
X227929Y128093D02*
X234025D01*
X230977Y125045D02*
Y131141D01*
X227929Y115393D02*
X234025D01*
X230977Y112345D02*
Y118441D01*
X215229Y128093D02*
X221325D01*
X218277Y125045D02*
Y131141D01*
X215229Y115393D02*
X221325D01*
X218277Y112345D02*
Y118441D01*
X202529Y128093D02*
X208625D01*
X205577Y125045D02*
Y131141D01*
X202529Y115393D02*
X208625D01*
X205577Y112345D02*
Y118441D01*
X189829Y128093D02*
X195925D01*
X192877Y125045D02*
Y131141D01*
X189829Y115393D02*
X195925D01*
X192877Y112345D02*
Y118441D01*
X244439Y67641D02*
X252567D01*
X248503Y63577D02*
Y71705D01*
X224373Y67641D02*
X232501D01*
X228437Y63577D02*
Y71705D01*
X204213Y67641D02*
X212341D01*
X208277Y63577D02*
Y71705D01*
X184213Y67641D02*
X192341D01*
X188277Y63577D02*
Y71705D01*
X99569Y266183D02*
X105665D01*
X102617Y263135D02*
Y269231D01*
X99569Y253483D02*
X105665D01*
X102617Y250435D02*
Y256531D01*
X86869Y266183D02*
X92965D01*
X89917Y263135D02*
Y269231D01*
X86869Y253483D02*
X92965D01*
X89917Y250435D02*
Y256531D01*
X74169Y266183D02*
X80265D01*
X77217Y263135D02*
Y269231D01*
X74169Y253483D02*
X80265D01*
X77217Y250435D02*
Y256531D01*
X61469Y266183D02*
X67565D01*
X64517Y263135D02*
Y269231D01*
X61469Y253483D02*
X67565D01*
X64517Y250435D02*
Y256531D01*
X48769Y266183D02*
X54865D01*
X51817Y263135D02*
Y269231D01*
X48769Y253483D02*
X54865D01*
X51817Y250435D02*
Y256531D01*
X103379Y205731D02*
X111507D01*
X107443Y201667D02*
Y209795D01*
X83313Y205731D02*
X91441D01*
X87377Y201667D02*
Y209795D01*
X63153Y205731D02*
X71281D01*
X67217Y201667D02*
Y209795D01*
X43153Y205731D02*
X51281D01*
X47217Y201667D02*
Y209795D01*
X240629Y266183D02*
X246725D01*
X243677Y263135D02*
Y269231D01*
X240629Y253483D02*
X246725D01*
X243677Y250435D02*
Y256531D01*
X227929Y266183D02*
X234025D01*
X230977Y263135D02*
Y269231D01*
X227929Y253483D02*
X234025D01*
X230977Y250435D02*
Y256531D01*
X215229Y266183D02*
X221325D01*
X218277Y263135D02*
Y269231D01*
X215229Y253483D02*
X221325D01*
X218277Y250435D02*
Y256531D01*
X202529Y266183D02*
X208625D01*
X205577Y263135D02*
Y269231D01*
X202529Y253483D02*
X208625D01*
X205577Y250435D02*
Y256531D01*
X189829Y266183D02*
X195925D01*
X192877Y263135D02*
Y269231D01*
X189829Y253483D02*
X195925D01*
X192877Y250435D02*
Y256531D01*
X244439Y205731D02*
X252567D01*
X248503Y201667D02*
Y209795D01*
X224373Y205731D02*
X232501D01*
X228437Y201667D02*
Y209795D01*
X204213Y205731D02*
X212341D01*
X208277Y201667D02*
Y209795D01*
X184213Y205731D02*
X192341D01*
X188277Y201667D02*
Y209795D01*
X99569Y404273D02*
X105665D01*
X102617Y401225D02*
Y407321D01*
X99569Y391573D02*
X105665D01*
X102617Y388525D02*
Y394621D01*
X86869Y404273D02*
X92965D01*
X89917Y401225D02*
Y407321D01*
X86869Y391573D02*
X92965D01*
X89917Y388525D02*
Y394621D01*
X74169Y404273D02*
X80265D01*
X77217Y401225D02*
Y407321D01*
X74169Y391573D02*
X80265D01*
X77217Y388525D02*
Y394621D01*
X61469Y404273D02*
X67565D01*
X64517Y401225D02*
Y407321D01*
X61469Y391573D02*
X67565D01*
X64517Y388525D02*
Y394621D01*
X48769Y404273D02*
X54865D01*
X51817Y401225D02*
Y407321D01*
X48769Y391573D02*
X54865D01*
X51817Y388525D02*
Y394621D01*
X103379Y343821D02*
X111507D01*
X107443Y339757D02*
Y347885D01*
X83313Y343821D02*
X91441D01*
X87377Y339757D02*
Y347885D01*
X63153Y343821D02*
X71281D01*
X67217Y339757D02*
Y347885D01*
X43153Y343821D02*
X51281D01*
X47217Y339757D02*
Y347885D01*
X240629Y404273D02*
X246725D01*
X243677Y401225D02*
Y407321D01*
X240629Y391573D02*
X246725D01*
X243677Y388525D02*
Y394621D01*
X227929Y404273D02*
X234025D01*
X230977Y401225D02*
Y407321D01*
X227929Y391573D02*
X234025D01*
X230977Y388525D02*
Y394621D01*
X215229Y404273D02*
X221325D01*
X218277Y401225D02*
Y407321D01*
X215229Y391573D02*
X221325D01*
X218277Y388525D02*
Y394621D01*
X202529Y404273D02*
X208625D01*
X205577Y401225D02*
Y407321D01*
X202529Y391573D02*
X208625D01*
X205577Y388525D02*
Y394621D01*
X189829Y404273D02*
X195925D01*
X192877Y401225D02*
Y407321D01*
X189829Y391573D02*
X195925D01*
X192877Y388525D02*
Y394621D01*
X244439Y343821D02*
X252567D01*
X248503Y339757D02*
Y347885D01*
X224373Y343821D02*
X232501D01*
X228437Y339757D02*
Y347885D01*
X204213Y343821D02*
X212341D01*
X208277Y339757D02*
Y347885D01*
X184213Y343821D02*
X192341D01*
X188277Y339757D02*
Y347885D01*
X99569Y542363D02*
X105665D01*
X102617Y539315D02*
Y545411D01*
X99569Y529663D02*
X105665D01*
X102617Y526615D02*
Y532711D01*
X86869Y542363D02*
X92965D01*
X89917Y539315D02*
Y545411D01*
X86869Y529663D02*
X92965D01*
X89917Y526615D02*
Y532711D01*
X74169Y542363D02*
X80265D01*
X77217Y539315D02*
Y545411D01*
X74169Y529663D02*
X80265D01*
X77217Y526615D02*
Y532711D01*
X61469Y542363D02*
X67565D01*
X64517Y539315D02*
Y545411D01*
X61469Y529663D02*
X67565D01*
X64517Y526615D02*
Y532711D01*
X48769Y542363D02*
X54865D01*
X51817Y539315D02*
Y545411D01*
X48769Y529663D02*
X54865D01*
X51817Y526615D02*
Y532711D01*
X103379Y481911D02*
X111507D01*
X107443Y477847D02*
Y485975D01*
X83313Y481911D02*
X91441D01*
X87377Y477847D02*
Y485975D01*
X63153Y481911D02*
X71281D01*
X67217Y477847D02*
Y485975D01*
X43153Y481911D02*
X51281D01*
X47217Y477847D02*
Y485975D01*
X240629Y542363D02*
X246725D01*
X243677Y539315D02*
Y545411D01*
X240629Y529663D02*
X246725D01*
X243677Y526615D02*
Y532711D01*
X227929Y542363D02*
X234025D01*
X230977Y539315D02*
Y545411D01*
X227929Y529663D02*
X234025D01*
X230977Y526615D02*
Y532711D01*
X215229Y542363D02*
X221325D01*
X218277Y539315D02*
Y545411D01*
X215229Y529663D02*
X221325D01*
X218277Y526615D02*
Y532711D01*
X202529Y542363D02*
X208625D01*
X205577Y539315D02*
Y545411D01*
X202529Y529663D02*
X208625D01*
X205577Y526615D02*
Y532711D01*
X189829Y542363D02*
X195925D01*
X192877Y539315D02*
Y545411D01*
X189829Y529663D02*
X195925D01*
X192877Y526615D02*
Y532711D01*
X244439Y481911D02*
X252567D01*
X248503Y477847D02*
Y485975D01*
X224373Y481911D02*
X232501D01*
X228437Y477847D02*
Y485975D01*
X204213Y481911D02*
X212341D01*
X208277Y477847D02*
Y485975D01*
X184213Y481911D02*
X192341D01*
X188277Y477847D02*
Y485975D01*
X99569Y680453D02*
X105665D01*
X102617Y677405D02*
Y683501D01*
X99569Y667753D02*
X105665D01*
X102617Y664705D02*
Y670801D01*
X86869Y680453D02*
X92965D01*
X89917Y677405D02*
Y683501D01*
X86869Y667753D02*
X92965D01*
X89917Y664705D02*
Y670801D01*
X74169Y680453D02*
X80265D01*
X77217Y677405D02*
Y683501D01*
X74169Y667753D02*
X80265D01*
X77217Y664705D02*
Y670801D01*
X61469Y680453D02*
X67565D01*
X64517Y677405D02*
Y683501D01*
X61469Y667753D02*
X67565D01*
X64517Y664705D02*
Y670801D01*
X48769Y680453D02*
X54865D01*
X51817Y677405D02*
Y683501D01*
X48769Y667753D02*
X54865D01*
X51817Y664705D02*
Y670801D01*
X103379Y620001D02*
X111507D01*
X107443Y615937D02*
Y624065D01*
X83313Y620001D02*
X91441D01*
X87377Y615937D02*
Y624065D01*
X63153Y620001D02*
X71281D01*
X67217Y615937D02*
Y624065D01*
X43153Y620001D02*
X51281D01*
X47217Y615937D02*
Y624065D01*
X240629Y680453D02*
X246725D01*
X243677Y677405D02*
Y683501D01*
X240629Y667753D02*
X246725D01*
X243677Y664705D02*
Y670801D01*
X227929Y680453D02*
X234025D01*
X230977Y677405D02*
Y683501D01*
X227929Y667753D02*
X234025D01*
X230977Y664705D02*
Y670801D01*
X215229Y680453D02*
X221325D01*
X218277Y677405D02*
Y683501D01*
X215229Y667753D02*
X221325D01*
X218277Y664705D02*
Y670801D01*
X202529Y680453D02*
X208625D01*
X205577Y677405D02*
Y683501D01*
X202529Y667753D02*
X208625D01*
X205577Y664705D02*
Y670801D01*
X189829Y680453D02*
X195925D01*
X192877Y677405D02*
Y683501D01*
X189829Y667753D02*
X195925D01*
X192877Y664705D02*
Y670801D01*
X244439Y620001D02*
X252567D01*
X248503Y615937D02*
Y624065D01*
X224373Y620001D02*
X232501D01*
X228437Y615937D02*
Y624065D01*
X204213Y620001D02*
X212341D01*
X208277Y615937D02*
Y624065D01*
X184213Y620001D02*
X192341D01*
X188277Y615937D02*
Y624065D01*
X99569Y818543D02*
X105665D01*
X102617Y815495D02*
Y821591D01*
X99569Y805843D02*
X105665D01*
X102617Y802795D02*
Y808891D01*
X86869Y818543D02*
X92965D01*
X89917Y815495D02*
Y821591D01*
X86869Y805843D02*
X92965D01*
X89917Y802795D02*
Y808891D01*
X74169Y818543D02*
X80265D01*
X77217Y815495D02*
Y821591D01*
X74169Y805843D02*
X80265D01*
X77217Y802795D02*
Y808891D01*
X61469Y818543D02*
X67565D01*
X64517Y815495D02*
Y821591D01*
X61469Y805843D02*
X67565D01*
X64517Y802795D02*
Y808891D01*
X48769Y818543D02*
X54865D01*
X51817Y815495D02*
Y821591D01*
X48769Y805843D02*
X54865D01*
X51817Y802795D02*
Y808891D01*
X103379Y758091D02*
X111507D01*
X107443Y754027D02*
Y762155D01*
X83313Y758091D02*
X91441D01*
X87377Y754027D02*
Y762155D01*
X63153Y758091D02*
X71281D01*
X67217Y754027D02*
Y762155D01*
X43153Y758091D02*
X51281D01*
X47217Y754027D02*
Y762155D01*
X240629Y818543D02*
X246725D01*
X243677Y815495D02*
Y821591D01*
X240629Y805843D02*
X246725D01*
X243677Y802795D02*
Y808891D01*
X227929Y818543D02*
X234025D01*
X230977Y815495D02*
Y821591D01*
X227929Y805843D02*
X234025D01*
X230977Y802795D02*
Y808891D01*
X215229Y818543D02*
X221325D01*
X218277Y815495D02*
Y821591D01*
X215229Y805843D02*
X221325D01*
X218277Y802795D02*
Y808891D01*
X202529Y818543D02*
X208625D01*
X205577Y815495D02*
Y821591D01*
X202529Y805843D02*
X208625D01*
X205577Y802795D02*
Y808891D01*
X189829Y818543D02*
X195925D01*
X192877Y815495D02*
Y821591D01*
X189829Y805843D02*
X195925D01*
X192877Y802795D02*
Y808891D01*
X244439Y758091D02*
X252567D01*
X248503Y754027D02*
Y762155D01*
X224373Y758091D02*
X232501D01*
X228437Y754027D02*
Y762155D01*
X204213Y758091D02*
X212341D01*
X208277Y754027D02*
Y762155D01*
X184213Y758091D02*
X192341D01*
X188277Y754027D02*
Y762155D01*
X99569Y956633D02*
X105665D01*
X102617Y953585D02*
Y959681D01*
X99569Y943933D02*
X105665D01*
X102617Y940885D02*
Y946981D01*
X86869Y956633D02*
X92965D01*
X89917Y953585D02*
Y959681D01*
X86869Y943933D02*
X92965D01*
X89917Y940885D02*
Y946981D01*
X74169Y956633D02*
X80265D01*
X77217Y953585D02*
Y959681D01*
X74169Y943933D02*
X80265D01*
X77217Y940885D02*
Y946981D01*
X61469Y956633D02*
X67565D01*
X64517Y953585D02*
Y959681D01*
X61469Y943933D02*
X67565D01*
X64517Y940885D02*
Y946981D01*
X48769Y956633D02*
X54865D01*
X51817Y953585D02*
Y959681D01*
X48769Y943933D02*
X54865D01*
X51817Y940885D02*
Y946981D01*
X103379Y896181D02*
X111507D01*
X107443Y892117D02*
Y900245D01*
X83313Y896181D02*
X91441D01*
X87377Y892117D02*
Y900245D01*
X63153Y896181D02*
X71281D01*
X67217Y892117D02*
Y900245D01*
X43153Y896181D02*
X51281D01*
X47217Y892117D02*
Y900245D01*
X240629Y956633D02*
X246725D01*
X243677Y953585D02*
Y959681D01*
X240629Y943933D02*
X246725D01*
X243677Y940885D02*
Y946981D01*
X227929Y956633D02*
X234025D01*
X230977Y953585D02*
Y959681D01*
X227929Y943933D02*
X234025D01*
X230977Y940885D02*
Y946981D01*
X215229Y956633D02*
X221325D01*
X218277Y953585D02*
Y959681D01*
X215229Y943933D02*
X221325D01*
X218277Y940885D02*
Y946981D01*
X202529Y956633D02*
X208625D01*
X205577Y953585D02*
Y959681D01*
X202529Y943933D02*
X208625D01*
X205577Y940885D02*
Y946981D01*
X189829Y956633D02*
X195925D01*
X192877Y953585D02*
Y959681D01*
X189829Y943933D02*
X195925D01*
X192877Y940885D02*
Y946981D01*
X244439Y896181D02*
X252567D01*
X248503Y892117D02*
Y900245D01*
X224373Y896181D02*
X232501D01*
X228437Y892117D02*
Y900245D01*
X204213Y896181D02*
X212341D01*
X208277Y892117D02*
Y900245D01*
X184213Y896181D02*
X192341D01*
X188277Y892117D02*
Y900245D01*
M02*
