G04 Layer_Color=16711935*
%FSLAX44Y44*%
%MOMM*%
G71*
G01*
G75*
%ADD14C,0.2540*%
%ADD30C,0.2000*%
%ADD31C,0.0000*%
D14*
X0Y0D02*
Y1000000D01*
X1000000D01*
Y0D02*
Y1000000D01*
X0Y0D02*
X1000000D01*
X147740D02*
Y1000000D01*
X288800Y0D02*
Y1000000D01*
X429860Y0D02*
Y1000000D01*
X570920Y0D02*
Y1000000D01*
X711980Y0D02*
Y1000000D01*
X853040Y0D02*
Y1000000D01*
X0Y155130D02*
X1000000D01*
X0Y293220D02*
X1000000D01*
X0Y431310D02*
X1000000D01*
X0Y569400D02*
X1000000D01*
X0Y707490D02*
X1000000D01*
X0Y983670D02*
X1000000D01*
X0Y845580D02*
X1000000D01*
X6680Y0D02*
Y1000000D01*
X994100Y0D02*
Y1000000D01*
X0Y17040D02*
X1000000D01*
D30*
X1015000Y162997D02*
X1019998Y153000D01*
X1024997Y162997D01*
X1044990Y153000D02*
X1052488D01*
X1054987Y155499D01*
X1052488Y157998D01*
X1047489D01*
X1044990Y160498D01*
X1047489Y162997D01*
X1054987D01*
X1069982D02*
X1062485D01*
X1059985Y160498D01*
Y155499D01*
X1062485Y153000D01*
X1069982D01*
X1077480D02*
X1082478D01*
X1084977Y155499D01*
Y160498D01*
X1082478Y162997D01*
X1077480D01*
X1074981Y160498D01*
Y155499D01*
X1077480Y153000D01*
X1089976Y162997D02*
Y153000D01*
Y157998D01*
X1092475Y160498D01*
X1094974Y162997D01*
X1097473D01*
X1112468Y153000D02*
X1107470D01*
X1104971Y155499D01*
Y160498D01*
X1107470Y162997D01*
X1112468D01*
X1114968Y160498D01*
Y157998D01*
X1104971D01*
X1014000Y299997D02*
X1018998Y290000D01*
X1023997Y299997D01*
X1043990Y290000D02*
X1051488D01*
X1053987Y292499D01*
X1051488Y294998D01*
X1046489D01*
X1043990Y297498D01*
X1046489Y299997D01*
X1053987D01*
X1068982D02*
X1061485D01*
X1058985Y297498D01*
Y292499D01*
X1061485Y290000D01*
X1068982D01*
X1076480D02*
X1081478D01*
X1083977Y292499D01*
Y297498D01*
X1081478Y299997D01*
X1076480D01*
X1073981Y297498D01*
Y292499D01*
X1076480Y290000D01*
X1088976Y299997D02*
Y290000D01*
Y294998D01*
X1091475Y297498D01*
X1093974Y299997D01*
X1096473D01*
X1111468Y290000D02*
X1106470D01*
X1103971Y292499D01*
Y297498D01*
X1106470Y299997D01*
X1111468D01*
X1113968Y297498D01*
Y294998D01*
X1103971D01*
X1012000Y440997D02*
X1016998Y431000D01*
X1021997Y440997D01*
X1041990Y431000D02*
X1049488D01*
X1051987Y433499D01*
X1049488Y435998D01*
X1044490D01*
X1041990Y438498D01*
X1044490Y440997D01*
X1051987D01*
X1066982D02*
X1059485D01*
X1056985Y438498D01*
Y433499D01*
X1059485Y431000D01*
X1066982D01*
X1074480D02*
X1079478D01*
X1081977Y433499D01*
Y438498D01*
X1079478Y440997D01*
X1074480D01*
X1071981Y438498D01*
Y433499D01*
X1074480Y431000D01*
X1086976Y440997D02*
Y431000D01*
Y435998D01*
X1089475Y438498D01*
X1091974Y440997D01*
X1094473D01*
X1109468Y431000D02*
X1104470D01*
X1101971Y433499D01*
Y438498D01*
X1104470Y440997D01*
X1109468D01*
X1111968Y438498D01*
Y435998D01*
X1101971D01*
X1013000Y578997D02*
X1017998Y569000D01*
X1022997Y578997D01*
X1042990Y569000D02*
X1050488D01*
X1052987Y571499D01*
X1050488Y573998D01*
X1045490D01*
X1042990Y576498D01*
X1045490Y578997D01*
X1052987D01*
X1067982D02*
X1060485D01*
X1057985Y576498D01*
Y571499D01*
X1060485Y569000D01*
X1067982D01*
X1075480D02*
X1080478D01*
X1082977Y571499D01*
Y576498D01*
X1080478Y578997D01*
X1075480D01*
X1072981Y576498D01*
Y571499D01*
X1075480Y569000D01*
X1087976Y578997D02*
Y569000D01*
Y573998D01*
X1090475Y576498D01*
X1092974Y578997D01*
X1095473D01*
X1110468Y569000D02*
X1105470D01*
X1102971Y571499D01*
Y576498D01*
X1105470Y578997D01*
X1110468D01*
X1112968Y576498D01*
Y573998D01*
X1102971D01*
X1014000Y713997D02*
X1018998Y704000D01*
X1023997Y713997D01*
X1043990Y704000D02*
X1051488D01*
X1053987Y706499D01*
X1051488Y708998D01*
X1046489D01*
X1043990Y711498D01*
X1046489Y713997D01*
X1053987D01*
X1068982D02*
X1061485D01*
X1058985Y711498D01*
Y706499D01*
X1061485Y704000D01*
X1068982D01*
X1076480D02*
X1081478D01*
X1083977Y706499D01*
Y711498D01*
X1081478Y713997D01*
X1076480D01*
X1073981Y711498D01*
Y706499D01*
X1076480Y704000D01*
X1088976Y713997D02*
Y704000D01*
Y708998D01*
X1091475Y711498D01*
X1093974Y713997D01*
X1096473D01*
X1111468Y704000D02*
X1106470D01*
X1103971Y706499D01*
Y711498D01*
X1106470Y713997D01*
X1111468D01*
X1113968Y711498D01*
Y708998D01*
X1103971D01*
X1021000Y851997D02*
X1025998Y842000D01*
X1030997Y851997D01*
X1050990Y842000D02*
X1058488D01*
X1060987Y844499D01*
X1058488Y846998D01*
X1053490D01*
X1050990Y849498D01*
X1053490Y851997D01*
X1060987D01*
X1075982D02*
X1068485D01*
X1065985Y849498D01*
Y844499D01*
X1068485Y842000D01*
X1075982D01*
X1083480D02*
X1088478D01*
X1090977Y844499D01*
Y849498D01*
X1088478Y851997D01*
X1083480D01*
X1080981Y849498D01*
Y844499D01*
X1083480Y842000D01*
X1095976Y851997D02*
Y842000D01*
Y846998D01*
X1098475Y849498D01*
X1100974Y851997D01*
X1103473D01*
X1118468Y842000D02*
X1113470D01*
X1110971Y844499D01*
Y849498D01*
X1113470Y851997D01*
X1118468D01*
X1120968Y849498D01*
Y846998D01*
X1110971D01*
X1013000Y987997D02*
X1017998Y978000D01*
X1022997Y987997D01*
X1042990Y978000D02*
X1050488D01*
X1052987Y980499D01*
X1050488Y982998D01*
X1045490D01*
X1042990Y985498D01*
X1045490Y987997D01*
X1052987D01*
X1067982D02*
X1060485D01*
X1057985Y985498D01*
Y980499D01*
X1060485Y978000D01*
X1067982D01*
X1075480D02*
X1080478D01*
X1082977Y980499D01*
Y985498D01*
X1080478Y987997D01*
X1075480D01*
X1072981Y985498D01*
Y980499D01*
X1075480Y978000D01*
X1087976Y987997D02*
Y978000D01*
Y982998D01*
X1090475Y985498D01*
X1092974Y987997D01*
X1095473D01*
X1110468Y978000D02*
X1105470D01*
X1102971Y980499D01*
Y985498D01*
X1105470Y987997D01*
X1110468D01*
X1112968Y985498D01*
Y982998D01*
X1102971D01*
X143003Y-116000D02*
X153000Y-111002D01*
X143003Y-106003D01*
X153000Y-86010D02*
Y-78512D01*
X150501Y-76013D01*
X148002Y-78512D01*
Y-83511D01*
X145502Y-86010D01*
X143003Y-83511D01*
Y-76013D01*
Y-61018D02*
Y-68515D01*
X145502Y-71015D01*
X150501D01*
X153000Y-68515D01*
Y-61018D01*
Y-53520D02*
Y-48522D01*
X150501Y-46023D01*
X145502D01*
X143003Y-48522D01*
Y-53520D01*
X145502Y-56019D01*
X150501D01*
X153000Y-53520D01*
X143003Y-41024D02*
X153000D01*
X148002D01*
X145502Y-38525D01*
X143003Y-36026D01*
Y-33527D01*
X153000Y-18532D02*
Y-23530D01*
X150501Y-26029D01*
X145502D01*
X143003Y-23530D01*
Y-18532D01*
X145502Y-16032D01*
X148002D01*
Y-26029D01*
X283003Y-115000D02*
X293000Y-110002D01*
X283003Y-105003D01*
X293000Y-85010D02*
Y-77512D01*
X290501Y-75013D01*
X288002Y-77512D01*
Y-82510D01*
X285502Y-85010D01*
X283003Y-82510D01*
Y-75013D01*
Y-60018D02*
Y-67515D01*
X285502Y-70015D01*
X290501D01*
X293000Y-67515D01*
Y-60018D01*
Y-52520D02*
Y-47522D01*
X290501Y-45023D01*
X285502D01*
X283003Y-47522D01*
Y-52520D01*
X285502Y-55019D01*
X290501D01*
X293000Y-52520D01*
X283003Y-40024D02*
X293000D01*
X288002D01*
X285502Y-37525D01*
X283003Y-35026D01*
Y-32527D01*
X293000Y-17532D02*
Y-22530D01*
X290501Y-25029D01*
X285502D01*
X283003Y-22530D01*
Y-17532D01*
X285502Y-15032D01*
X288002D01*
Y-25029D01*
X423003Y-106000D02*
X433000Y-101002D01*
X423003Y-96003D01*
X433000Y-76010D02*
Y-68512D01*
X430501Y-66013D01*
X428002Y-68512D01*
Y-73510D01*
X425502Y-76010D01*
X423003Y-73510D01*
Y-66013D01*
Y-51018D02*
Y-58515D01*
X425502Y-61015D01*
X430501D01*
X433000Y-58515D01*
Y-51018D01*
Y-43520D02*
Y-38522D01*
X430501Y-36023D01*
X425502D01*
X423003Y-38522D01*
Y-43520D01*
X425502Y-46019D01*
X430501D01*
X433000Y-43520D01*
X423003Y-31024D02*
X433000D01*
X428002D01*
X425502Y-28525D01*
X423003Y-26026D01*
Y-23527D01*
X433000Y-8532D02*
Y-13530D01*
X430501Y-16029D01*
X425502D01*
X423003Y-13530D01*
Y-8532D01*
X425502Y-6032D01*
X428002D01*
Y-16029D01*
X567003Y-109000D02*
X577000Y-104002D01*
X567003Y-99003D01*
X577000Y-79010D02*
Y-71512D01*
X574501Y-69013D01*
X572002Y-71512D01*
Y-76511D01*
X569502Y-79010D01*
X567003Y-76511D01*
Y-69013D01*
Y-54018D02*
Y-61515D01*
X569502Y-64015D01*
X574501D01*
X577000Y-61515D01*
Y-54018D01*
Y-46520D02*
Y-41522D01*
X574501Y-39023D01*
X569502D01*
X567003Y-41522D01*
Y-46520D01*
X569502Y-49019D01*
X574501D01*
X577000Y-46520D01*
X567003Y-34024D02*
X577000D01*
X572002D01*
X569502Y-31525D01*
X567003Y-29026D01*
Y-26527D01*
X577000Y-11532D02*
Y-16530D01*
X574501Y-19029D01*
X569502D01*
X567003Y-16530D01*
Y-11532D01*
X569502Y-9032D01*
X572002D01*
Y-19029D01*
X707003Y-111000D02*
X717000Y-106002D01*
X707003Y-101003D01*
X717000Y-81010D02*
Y-73512D01*
X714501Y-71013D01*
X712002Y-73512D01*
Y-78510D01*
X709502Y-81010D01*
X707003Y-78510D01*
Y-71013D01*
Y-56018D02*
Y-63515D01*
X709502Y-66015D01*
X714501D01*
X717000Y-63515D01*
Y-56018D01*
Y-48520D02*
Y-43522D01*
X714501Y-41023D01*
X709502D01*
X707003Y-43522D01*
Y-48520D01*
X709502Y-51019D01*
X714501D01*
X717000Y-48520D01*
X707003Y-36024D02*
X717000D01*
X712002D01*
X709502Y-33525D01*
X707003Y-31026D01*
Y-28527D01*
X717000Y-13532D02*
Y-18530D01*
X714501Y-21029D01*
X709502D01*
X707003Y-18530D01*
Y-13532D01*
X709502Y-11032D01*
X712002D01*
Y-21029D01*
X850003Y-111000D02*
X860000Y-106002D01*
X850003Y-101003D01*
X860000Y-81010D02*
Y-73512D01*
X857501Y-71013D01*
X855002Y-73512D01*
Y-78510D01*
X852502Y-81010D01*
X850003Y-78510D01*
Y-71013D01*
Y-56018D02*
Y-63515D01*
X852502Y-66015D01*
X857501D01*
X860000Y-63515D01*
Y-56018D01*
Y-48520D02*
Y-43522D01*
X857501Y-41023D01*
X852502D01*
X850003Y-43522D01*
Y-48520D01*
X852502Y-51019D01*
X857501D01*
X860000Y-48520D01*
X850003Y-36024D02*
X860000D01*
X855002D01*
X852502Y-33525D01*
X850003Y-31026D01*
Y-28527D01*
X860000Y-13532D02*
Y-18530D01*
X857501Y-21029D01*
X852502D01*
X850003Y-18530D01*
Y-13532D01*
X852502Y-11032D01*
X855002D01*
Y-21029D01*
X982003Y-110000D02*
X992000Y-105002D01*
X982003Y-100003D01*
X992000Y-80010D02*
Y-72512D01*
X989501Y-70013D01*
X987002Y-72512D01*
Y-77510D01*
X984502Y-80010D01*
X982003Y-77510D01*
Y-70013D01*
Y-55018D02*
Y-62515D01*
X984502Y-65015D01*
X989501D01*
X992000Y-62515D01*
Y-55018D01*
Y-47520D02*
Y-42522D01*
X989501Y-40023D01*
X984502D01*
X982003Y-42522D01*
Y-47520D01*
X984502Y-50019D01*
X989501D01*
X992000Y-47520D01*
X982003Y-35024D02*
X992000D01*
X987002D01*
X984502Y-32525D01*
X982003Y-30026D01*
Y-27527D01*
X992000Y-12532D02*
Y-17530D01*
X989501Y-20029D01*
X984502D01*
X982003Y-17530D01*
Y-12532D01*
X984502Y-10032D01*
X987002D01*
Y-20029D01*
X1024000Y27997D02*
X1028998Y18000D01*
X1033997Y27997D01*
X1053990Y18000D02*
X1061488D01*
X1063987Y20499D01*
X1061488Y22998D01*
X1056489D01*
X1053990Y25498D01*
X1056489Y27997D01*
X1063987D01*
X1078982D02*
X1071485D01*
X1068985Y25498D01*
Y20499D01*
X1071485Y18000D01*
X1078982D01*
X1086480D02*
X1091478D01*
X1093977Y20499D01*
Y25498D01*
X1091478Y27997D01*
X1086480D01*
X1083981Y25498D01*
Y20499D01*
X1086480Y18000D01*
X1098976Y27997D02*
Y18000D01*
Y22998D01*
X1101475Y25498D01*
X1103974Y27997D01*
X1106473D01*
X1121468Y18000D02*
X1116470D01*
X1113971Y20499D01*
Y25498D01*
X1116470Y27997D01*
X1121468D01*
X1123968Y25498D01*
Y22998D01*
X1113971D01*
X7003Y-122000D02*
X17000Y-117002D01*
X7003Y-112003D01*
X17000Y-92010D02*
Y-84512D01*
X14501Y-82013D01*
X12002Y-84512D01*
Y-89510D01*
X9502Y-92010D01*
X7003Y-89510D01*
Y-82013D01*
Y-67018D02*
Y-74515D01*
X9502Y-77015D01*
X14501D01*
X17000Y-74515D01*
Y-67018D01*
Y-59520D02*
Y-54522D01*
X14501Y-52023D01*
X9502D01*
X7003Y-54522D01*
Y-59520D01*
X9502Y-62019D01*
X14501D01*
X17000Y-59520D01*
X7003Y-47024D02*
X17000D01*
X12002D01*
X9502Y-44525D01*
X7003Y-42026D01*
Y-39527D01*
X17000Y-24532D02*
Y-29530D01*
X14501Y-32029D01*
X9502D01*
X7003Y-29530D01*
Y-24532D01*
X9502Y-22032D01*
X12002D01*
Y-32029D01*
D31*
X716980Y21916D02*
Y149932D01*
X848044D01*
X847790Y21840D02*
X848044Y149932D01*
X716980Y21916D02*
X847790Y21840D01*
X858040Y21916D02*
Y149932D01*
X989104D01*
X988850Y21840D02*
X989104Y149932D01*
X858040Y21916D02*
X988850Y21840D01*
X716980Y160006D02*
Y288022D01*
X848044D01*
X847790Y159930D02*
X848044Y288022D01*
X716980Y160006D02*
X847790Y159930D01*
X858040Y160006D02*
Y288022D01*
X989104D01*
X988850Y159930D02*
X989104Y288022D01*
X858040Y160006D02*
X988850Y159930D01*
X716980Y298096D02*
Y426112D01*
X848044D01*
X847790Y298020D02*
X848044Y426112D01*
X716980Y298096D02*
X847790Y298020D01*
X858040Y298096D02*
Y426112D01*
X989104D01*
X988850Y298020D02*
X989104Y426112D01*
X858040Y298096D02*
X988850Y298020D01*
X716980Y436186D02*
Y564202D01*
X848044D01*
X847790Y436110D02*
X848044Y564202D01*
X716980Y436186D02*
X847790Y436110D01*
X858040Y436186D02*
Y564202D01*
X989104D01*
X988850Y436110D02*
X989104Y564202D01*
X858040Y436186D02*
X988850Y436110D01*
X716980Y574276D02*
Y702292D01*
X848044D01*
X847790Y574200D02*
X848044Y702292D01*
X716980Y574276D02*
X847790Y574200D01*
X858040Y574276D02*
Y702292D01*
X989104D01*
X988850Y574200D02*
X989104Y702292D01*
X858040Y574276D02*
X988850Y574200D01*
X716980Y712366D02*
Y840382D01*
X848044D01*
X847790Y712290D02*
X848044Y840382D01*
X716980Y712366D02*
X847790Y712290D01*
X858040Y712366D02*
Y840382D01*
X989104D01*
X988850Y712290D02*
X989104Y840382D01*
X858040Y712366D02*
X988850Y712290D01*
X716980Y850456D02*
Y978472D01*
X848044D01*
X847790Y850380D02*
X848044Y978472D01*
X716980Y850456D02*
X847790Y850380D01*
X858040Y850456D02*
Y978472D01*
X989104D01*
X988850Y850380D02*
X989104Y978472D01*
X858040Y850456D02*
X988850Y850380D01*
X575920Y21916D02*
Y149932D01*
X706984D01*
X706730Y21840D02*
X706984Y149932D01*
X575920Y21916D02*
X706730Y21840D01*
X575920Y160006D02*
Y288022D01*
X706984D01*
X706730Y159930D02*
X706984Y288022D01*
X575920Y160006D02*
X706730Y159930D01*
X575920Y298096D02*
Y426112D01*
X706984D01*
X706730Y298020D02*
X706984Y426112D01*
X575920Y298096D02*
X706730Y298020D01*
X575920Y436186D02*
Y564202D01*
X706984D01*
X706730Y436110D02*
X706984Y564202D01*
X575920Y436186D02*
X706730Y436110D01*
X575920Y574276D02*
Y702292D01*
X706984D01*
X706730Y574200D02*
X706984Y702292D01*
X575920Y574276D02*
X706730Y574200D01*
X575920Y712366D02*
Y840382D01*
X706984D01*
X706730Y712290D02*
X706984Y840382D01*
X575920Y712366D02*
X706730Y712290D01*
X575920Y850456D02*
Y978472D01*
X706984D01*
X706730Y850380D02*
X706984Y978472D01*
X575920Y850456D02*
X706730Y850380D01*
X293800Y21916D02*
Y149932D01*
X424864D01*
X424610Y21840D02*
X424864Y149932D01*
X293800Y21916D02*
X424610Y21840D01*
X434860Y21916D02*
Y149932D01*
X565924D01*
X565670Y21840D02*
X565924Y149932D01*
X434860Y21916D02*
X565670Y21840D01*
X293800Y160006D02*
Y288022D01*
X424864D01*
X424610Y159930D02*
X424864Y288022D01*
X293800Y160006D02*
X424610Y159930D01*
X434860Y160006D02*
Y288022D01*
X565924D01*
X565670Y159930D02*
X565924Y288022D01*
X434860Y160006D02*
X565670Y159930D01*
X293800Y298096D02*
Y426112D01*
X424864D01*
X424610Y298020D02*
X424864Y426112D01*
X293800Y298096D02*
X424610Y298020D01*
X434860Y298096D02*
Y426112D01*
X565924D01*
X565670Y298020D02*
X565924Y426112D01*
X434860Y298096D02*
X565670Y298020D01*
X293800Y436186D02*
Y564202D01*
X424864D01*
X424610Y436110D02*
X424864Y564202D01*
X293800Y436186D02*
X424610Y436110D01*
X434860Y436186D02*
Y564202D01*
X565924D01*
X565670Y436110D02*
X565924Y564202D01*
X434860Y436186D02*
X565670Y436110D01*
X293800Y574276D02*
Y702292D01*
X424864D01*
X424610Y574200D02*
X424864Y702292D01*
X293800Y574276D02*
X424610Y574200D01*
X434860Y574276D02*
Y702292D01*
X565924D01*
X565670Y574200D02*
X565924Y702292D01*
X434860Y574276D02*
X565670Y574200D01*
X293800Y712366D02*
Y840382D01*
X424864D01*
X424610Y712290D02*
X424864Y840382D01*
X293800Y712366D02*
X424610Y712290D01*
X434860Y712366D02*
Y840382D01*
X565924D01*
X565670Y712290D02*
X565924Y840382D01*
X434860Y712366D02*
X565670Y712290D01*
X293800Y850456D02*
Y978472D01*
X424864D01*
X424610Y850380D02*
X424864Y978472D01*
X293800Y850456D02*
X424610Y850380D01*
X434860Y850456D02*
Y978472D01*
X565924D01*
X565670Y850380D02*
X565924Y978472D01*
X434860Y850456D02*
X565670Y850380D01*
X11685Y21921D02*
Y149937D01*
X142749D01*
X142495Y21845D02*
X142749Y149937D01*
X11685Y21921D02*
X142495Y21845D01*
X152745Y21921D02*
Y149937D01*
X283809D01*
X283555Y21845D02*
X283809Y149937D01*
X152745Y21921D02*
X283555Y21845D01*
X11685Y160011D02*
Y288027D01*
X142749D01*
X142495Y159935D02*
X142749Y288027D01*
X11685Y160011D02*
X142495Y159935D01*
X152745Y160011D02*
Y288027D01*
X283809D01*
X283555Y159935D02*
X283809Y288027D01*
X152745Y160011D02*
X283555Y159935D01*
X11685Y298101D02*
Y426117D01*
X142749D01*
X142495Y298025D02*
X142749Y426117D01*
X11685Y298101D02*
X142495Y298025D01*
X152745Y298101D02*
Y426117D01*
X283809D01*
X283555Y298025D02*
X283809Y426117D01*
X152745Y298101D02*
X283555Y298025D01*
X11685Y436191D02*
Y564207D01*
X142749D01*
X142495Y436115D02*
X142749Y564207D01*
X11685Y436191D02*
X142495Y436115D01*
X152745Y436191D02*
Y564207D01*
X283809D01*
X283555Y436115D02*
X283809Y564207D01*
X152745Y436191D02*
X283555Y436115D01*
X11685Y574281D02*
Y702297D01*
X142749D01*
X142495Y574205D02*
X142749Y702297D01*
X11685Y574281D02*
X142495Y574205D01*
X152745Y574281D02*
Y702297D01*
X283809D01*
X283555Y574205D02*
X283809Y702297D01*
X152745Y574281D02*
X283555Y574205D01*
X11685Y712371D02*
Y840387D01*
X142749D01*
X142495Y712295D02*
X142749Y840387D01*
X11685Y712371D02*
X142495Y712295D01*
X152745Y712371D02*
Y840387D01*
X283809D01*
X283555Y712295D02*
X283809Y840387D01*
X152745Y712371D02*
X283555Y712295D01*
X11685Y850461D02*
Y978477D01*
X142749D01*
X142495Y850385D02*
X142749Y978477D01*
X11685Y850461D02*
X142495Y850385D01*
X152745Y850461D02*
Y978477D01*
X283809D01*
X283555Y850385D02*
X283809Y978477D01*
X152745Y850461D02*
X283555Y850385D01*
M02*
