G75*
%MOIN*%
%OFA0B0*%
%FSLAX25Y25*%
%IPPOS*%
%LPD*%
%AMOC8*
5,1,8,0,0,1.08239X$1,22.5*
%
%ADD10C,0.00000*%
%ADD11R,0.05150X0.05150*%
%ADD12C,0.05150*%
%ADD13C,0.04362*%
%ADD14C,0.01600*%
D10*
X0005000Y0010000D02*
X0005000Y0060361D01*
X0056501Y0060361D01*
X0056470Y0009970D01*
X0005000Y0010000D01*
D11*
X0018989Y0028000D03*
D12*
X0026863Y0028000D03*
X0034737Y0028000D03*
X0042611Y0028000D03*
D13*
X0040800Y0046800D03*
X0040800Y0051800D03*
X0035800Y0051800D03*
X0035800Y0046800D03*
X0030800Y0046800D03*
X0030800Y0051800D03*
X0025800Y0051800D03*
X0025800Y0046800D03*
X0020800Y0046800D03*
X0020800Y0051800D03*
D14*
X0016800Y0051800D01*
X0015000Y0050000D01*
X0015000Y0045000D01*
X0020000Y0040000D01*
X0022737Y0040000D01*
X0034737Y0028000D01*
X0035000Y0035000D02*
X0025800Y0044200D01*
X0025800Y0046800D01*
X0025800Y0051800D02*
X0025800Y0053500D01*
X0023300Y0056000D01*
X0016000Y0056000D01*
X0010000Y0050000D01*
X0010000Y0036989D01*
X0018989Y0028000D01*
X0026863Y0028000D02*
X0027000Y0027863D01*
X0027000Y0022900D01*
X0029900Y0020000D01*
X0045000Y0020000D01*
X0050000Y0025000D01*
X0050000Y0030000D01*
X0045000Y0035000D01*
X0035000Y0035000D01*
M02*
