G75*
%MOIN*%
%OFA0B0*%
%FSLAX25Y25*%
%IPPOS*%
%LPD*%
%AMOC8*
5,1,8,0,0,1.08239X$1,22.5*
%
%ADD10C,0.00000*%
%ADD11C,0.00300*%
%ADD12C,0.00591*%
%ADD13C,0.00800*%
D10*
X0005000Y0010000D02*
X0005000Y0060361D01*
X0056501Y0060361D01*
X0056470Y0009970D01*
X0005000Y0010000D01*
D11*
X0012778Y0034150D02*
X0012778Y0036002D01*
X0013395Y0036619D01*
X0015246Y0036619D01*
X0015246Y0034150D01*
X0016467Y0034150D02*
X0017702Y0034150D01*
X0017085Y0034150D02*
X0017085Y0036619D01*
X0017702Y0036619D01*
X0017085Y0037853D02*
X0017085Y0038470D01*
X0020761Y0036619D02*
X0021378Y0036619D01*
X0022613Y0035384D01*
X0022613Y0034150D02*
X0022613Y0036619D01*
X0023827Y0036002D02*
X0023827Y0035384D01*
X0026296Y0035384D01*
X0026296Y0034767D02*
X0026296Y0036002D01*
X0025679Y0036619D01*
X0024444Y0036619D01*
X0023827Y0036002D01*
X0024444Y0034150D02*
X0025679Y0034150D01*
X0026296Y0034767D01*
X0027510Y0035384D02*
X0027510Y0036002D01*
X0028127Y0036619D01*
X0029362Y0036619D01*
X0029979Y0036002D01*
X0029979Y0034767D01*
X0029362Y0034150D01*
X0028127Y0034150D01*
X0027510Y0035384D02*
X0029979Y0035384D01*
X0031200Y0034150D02*
X0031817Y0034767D01*
X0031817Y0037236D01*
X0032434Y0036619D02*
X0031200Y0036619D01*
X0033649Y0036002D02*
X0033649Y0035384D01*
X0036117Y0035384D01*
X0036117Y0034767D02*
X0036117Y0036002D01*
X0035500Y0036619D01*
X0034266Y0036619D01*
X0033649Y0036002D01*
X0034266Y0034150D02*
X0035500Y0034150D01*
X0036117Y0034767D01*
X0037332Y0034150D02*
X0039183Y0034150D01*
X0039801Y0034767D01*
X0039801Y0036002D01*
X0039183Y0036619D01*
X0037332Y0036619D01*
X0037332Y0033533D01*
X0037949Y0032916D01*
X0038566Y0032916D01*
X0041015Y0034150D02*
X0042867Y0034150D01*
X0043484Y0034767D01*
X0043484Y0036002D01*
X0042867Y0036619D01*
X0041015Y0036619D01*
X0041015Y0037853D02*
X0041015Y0034150D01*
X0044698Y0034150D02*
X0046550Y0034150D01*
X0047167Y0034767D01*
X0046550Y0035384D01*
X0044698Y0035384D01*
X0044698Y0036002D02*
X0044698Y0034150D01*
X0044698Y0036002D02*
X0045315Y0036619D01*
X0046550Y0036619D01*
X0048381Y0037236D02*
X0048998Y0037853D01*
X0050233Y0037853D01*
X0050850Y0037236D01*
X0050850Y0034767D01*
X0050233Y0034150D01*
X0048998Y0034150D01*
X0048381Y0034767D01*
X0048381Y0036002D01*
X0049616Y0036002D01*
X0049850Y0021353D02*
X0048615Y0021353D01*
X0047998Y0020736D01*
X0047998Y0020119D01*
X0050467Y0017650D01*
X0047998Y0017650D01*
X0046784Y0018267D02*
X0046167Y0017650D01*
X0044932Y0017650D01*
X0044315Y0018267D01*
X0044315Y0019502D01*
X0045549Y0019502D01*
X0044315Y0020736D02*
X0044932Y0021353D01*
X0046167Y0021353D01*
X0046784Y0020736D01*
X0046784Y0018267D01*
X0049232Y0016253D02*
X0049232Y0012550D01*
X0047998Y0012550D02*
X0050467Y0012550D01*
X0052916Y0012550D02*
X0051681Y0015019D01*
X0050467Y0015019D02*
X0049232Y0016253D01*
X0051681Y0018267D02*
X0051681Y0019502D01*
X0052916Y0019502D01*
X0054150Y0020736D02*
X0054150Y0018267D01*
X0053533Y0017650D01*
X0052298Y0017650D01*
X0051681Y0018267D01*
X0051681Y0020736D02*
X0052298Y0021353D01*
X0053533Y0021353D01*
X0054150Y0020736D01*
X0050467Y0020736D02*
X0049850Y0021353D01*
X0044325Y0016253D02*
X0044942Y0015636D01*
X0044942Y0013167D01*
X0042473Y0015636D01*
X0042473Y0013167D01*
X0043091Y0012550D01*
X0044325Y0012550D01*
X0044942Y0013167D01*
X0046167Y0013167D02*
X0046167Y0012550D01*
X0046784Y0012550D01*
X0046784Y0013167D01*
X0046167Y0013167D01*
X0044325Y0016253D02*
X0043091Y0016253D01*
X0042473Y0015636D01*
X0039417Y0017650D02*
X0039417Y0020119D01*
X0038183Y0021353D01*
X0036949Y0020119D01*
X0036949Y0017650D01*
X0036949Y0019502D02*
X0039417Y0019502D01*
X0040632Y0019502D02*
X0043101Y0019502D01*
X0054150Y0015019D02*
X0052916Y0012550D01*
X0019543Y0034150D02*
X0018926Y0034150D01*
X0018926Y0034767D01*
X0019543Y0034767D01*
X0019543Y0034150D01*
X0011563Y0036619D02*
X0010946Y0037236D01*
X0010946Y0038470D01*
D12*
X0011680Y0022861D02*
X0013120Y0022861D01*
X0013313Y0020956D01*
X0013954Y0020751D01*
X0014552Y0020443D01*
X0016036Y0021654D01*
X0017054Y0020636D01*
X0015843Y0019152D01*
X0016151Y0018554D01*
X0016356Y0017913D01*
X0018261Y0017720D01*
X0018261Y0016280D01*
X0016356Y0016087D01*
X0016151Y0015446D01*
X0015843Y0014848D01*
X0017054Y0013364D01*
X0016036Y0012346D01*
X0014552Y0013557D01*
X0013954Y0013249D01*
X0013106Y0015295D01*
X0013485Y0015507D01*
X0013803Y0015801D01*
X0014045Y0016162D01*
X0014195Y0016569D01*
X0014246Y0017000D01*
X0014193Y0017439D01*
X0014037Y0017852D01*
X0013788Y0018217D01*
X0013459Y0018511D01*
X0013069Y0018720D01*
X0012641Y0018829D01*
X0012199Y0018834D01*
X0011769Y0018734D01*
X0011375Y0018534D01*
X0011040Y0018246D01*
X0010782Y0017887D01*
X0010618Y0017477D01*
X0010555Y0017040D01*
X0010599Y0016600D01*
X0010745Y0016184D01*
X0010986Y0015814D01*
X0011309Y0015512D01*
X0011694Y0015295D01*
X0010846Y0013249D01*
X0010248Y0013557D01*
X0008764Y0012346D01*
X0007746Y0013364D01*
X0008957Y0014848D01*
X0008649Y0015446D01*
X0008444Y0016087D01*
X0006539Y0016280D01*
X0006539Y0017720D01*
X0008444Y0017913D01*
X0008649Y0018554D01*
X0008957Y0019152D01*
X0007746Y0020636D01*
X0008764Y0021654D01*
X0010248Y0020443D01*
X0010846Y0020751D01*
X0011487Y0020956D01*
X0011680Y0022861D01*
X0011630Y0022370D02*
X0013170Y0022370D01*
X0013230Y0021781D02*
X0011570Y0021781D01*
X0011511Y0021192D02*
X0013289Y0021192D01*
X0014241Y0020603D02*
X0010559Y0020603D01*
X0010052Y0020603D02*
X0007773Y0020603D01*
X0008253Y0020014D02*
X0016547Y0020014D01*
X0017027Y0020603D02*
X0014748Y0020603D01*
X0015470Y0021192D02*
X0016497Y0021192D01*
X0016066Y0019425D02*
X0008734Y0019425D01*
X0008794Y0018836D02*
X0016006Y0018836D01*
X0016250Y0018247D02*
X0013754Y0018247D01*
X0014110Y0017658D02*
X0018261Y0017658D01*
X0018261Y0017069D02*
X0014237Y0017069D01*
X0014162Y0016480D02*
X0018261Y0016480D01*
X0016294Y0015891D02*
X0013863Y0015891D01*
X0013118Y0015302D02*
X0016077Y0015302D01*
X0015954Y0014712D02*
X0013348Y0014712D01*
X0013592Y0014123D02*
X0016434Y0014123D01*
X0016915Y0013534D02*
X0014579Y0013534D01*
X0014508Y0013534D02*
X0013836Y0013534D01*
X0015301Y0012945D02*
X0016635Y0012945D01*
X0016046Y0012356D02*
X0016024Y0012356D01*
X0011682Y0015302D02*
X0008723Y0015302D01*
X0008846Y0014712D02*
X0011452Y0014712D01*
X0011208Y0014123D02*
X0008366Y0014123D01*
X0007885Y0013534D02*
X0010221Y0013534D01*
X0010292Y0013534D02*
X0010964Y0013534D01*
X0009499Y0012945D02*
X0008165Y0012945D01*
X0008754Y0012356D02*
X0008776Y0012356D01*
X0008506Y0015891D02*
X0010936Y0015891D01*
X0010641Y0016480D02*
X0006539Y0016480D01*
X0006539Y0017069D02*
X0010559Y0017069D01*
X0010690Y0017658D02*
X0006539Y0017658D01*
X0008550Y0018247D02*
X0011040Y0018247D01*
X0009330Y0021192D02*
X0008303Y0021192D01*
D13*
X0018595Y0043394D02*
X0018595Y0055206D01*
X0043005Y0055206D01*
X0043005Y0043394D01*
X0018595Y0043394D01*
M02*
