G75*
%MOIN*%
%OFA0B0*%
%FSLAX25Y25*%
%IPPOS*%
%LPD*%
%AMOC8*
5,1,8,0,0,1.08239X$1,22.5*
%
%ADD10C,0.00000*%
%ADD11C,0.00400*%
%ADD12C,0.01000*%
%ADD13C,0.00300*%
%ADD14R,0.09900X0.01400*%
%ADD15R,0.01400X0.09900*%
%ADD16R,0.05800X0.01500*%
%ADD17R,0.01400X0.03300*%
%ADD18R,0.03300X0.01400*%
%ADD19C,0.00500*%
%ADD20C,0.00600*%
D10*
X0005000Y0010000D02*
X0005000Y0060361D01*
X0056501Y0060361D01*
X0056470Y0009970D01*
X0005000Y0010000D01*
D11*
X0047800Y0050500D02*
X0051270Y0055704D01*
X0047800Y0055704D02*
X0051270Y0050500D01*
D12*
X0053300Y0049300D02*
X0053300Y0056800D01*
X0045800Y0056800D01*
X0045800Y0049300D01*
X0053300Y0049300D01*
X0050485Y0036661D02*
X0011115Y0036661D01*
X0011115Y0019339D01*
X0011115Y0016976D01*
X0018202Y0016976D01*
X0018202Y0019339D01*
X0043398Y0019339D01*
X0043398Y0016976D01*
X0050485Y0016976D01*
X0050485Y0019339D01*
X0050485Y0036661D01*
X0050485Y0033906D02*
X0050485Y0022094D01*
X0050485Y0019339D02*
X0043398Y0019339D01*
X0018202Y0019339D02*
X0011115Y0019339D01*
D13*
X0019148Y0016548D02*
X0019148Y0015580D01*
X0019631Y0015097D01*
X0021566Y0015097D01*
X0019631Y0017031D01*
X0021566Y0017031D01*
X0022050Y0016548D01*
X0022050Y0015580D01*
X0021566Y0015097D01*
X0021566Y0014085D02*
X0019631Y0014085D01*
X0019148Y0013601D01*
X0019148Y0012150D01*
X0022050Y0012150D01*
X0022050Y0013601D01*
X0021566Y0014085D01*
X0019148Y0016548D02*
X0019631Y0017031D01*
X0025648Y0016164D02*
X0028550Y0016164D01*
X0028550Y0015197D02*
X0028550Y0017131D01*
X0026615Y0015197D02*
X0025648Y0016164D01*
X0026131Y0014185D02*
X0025648Y0013701D01*
X0025648Y0012250D01*
X0028550Y0012250D01*
X0028550Y0013701D01*
X0028066Y0014185D01*
X0026131Y0014185D01*
X0033848Y0014185D02*
X0033848Y0012250D01*
X0035299Y0012250D01*
X0034815Y0013217D01*
X0034815Y0013701D01*
X0035299Y0014185D01*
X0036266Y0014185D01*
X0036750Y0013701D01*
X0036750Y0012734D01*
X0036266Y0012250D01*
X0035783Y0015197D02*
X0033848Y0015197D01*
X0033848Y0017131D02*
X0035783Y0017131D01*
X0036750Y0016164D01*
X0035783Y0015197D01*
X0041448Y0014401D02*
X0041448Y0013434D01*
X0041931Y0012950D01*
X0043866Y0012950D01*
X0044350Y0013434D01*
X0044350Y0014401D01*
X0043866Y0014885D01*
X0042899Y0014885D01*
X0042899Y0013917D01*
X0041931Y0014885D02*
X0041448Y0014401D01*
D14*
X0012150Y0048700D03*
X0012150Y0057200D03*
D15*
X0007900Y0052950D03*
X0016400Y0052950D03*
D16*
X0012900Y0054350D03*
D17*
X0010700Y0052450D03*
D18*
X0012650Y0051500D03*
D19*
X0011115Y0031937D02*
X0011115Y0024063D01*
D20*
X0006391Y0039957D02*
X0023320Y0039957D01*
X0023320Y0049313D01*
X0038280Y0049313D01*
X0038280Y0039957D01*
X0055209Y0039957D01*
X0055209Y0058643D01*
X0006391Y0058643D01*
X0006391Y0039957D01*
M02*
