G75*
%MOIN*%
%OFA0B0*%
%FSLAX25Y25*%
%IPPOS*%
%LPD*%
%AMOC8*
5,1,8,0,0,1.08239X$1,22.5*
%
%ADD10C,0.00000*%
%ADD11C,0.00400*%
%ADD12C,0.01000*%
%ADD13C,0.00200*%
%ADD14C,0.00300*%
%ADD15C,0.00500*%
%ADD16C,0.00600*%
%ADD17R,0.01500X0.10500*%
%ADD18R,0.10500X0.01500*%
%ADD19R,0.06000X0.01500*%
%ADD20R,0.01500X0.03000*%
%ADD21R,0.03000X0.01500*%
D10*
X0005000Y0010000D02*
X0005000Y0060361D01*
X0056501Y0060361D01*
X0056470Y0009970D01*
X0005000Y0010000D01*
D11*
X0048500Y0050500D02*
X0050235Y0050500D01*
X0049367Y0050500D02*
X0049367Y0055704D01*
X0048500Y0055704D02*
X0050235Y0055704D01*
D12*
X0053300Y0056800D02*
X0045800Y0056800D01*
X0045800Y0049300D01*
X0053300Y0049300D01*
X0053300Y0056800D01*
X0050485Y0036661D02*
X0011115Y0036661D01*
X0011115Y0019339D01*
X0011115Y0016976D01*
X0018202Y0016976D01*
X0018202Y0019339D01*
X0043398Y0019339D01*
X0043398Y0016976D01*
X0050485Y0016976D01*
X0050485Y0019339D01*
X0050485Y0036661D01*
X0050485Y0033906D02*
X0050485Y0022094D01*
X0050485Y0019339D02*
X0043398Y0019339D01*
X0018202Y0019339D02*
X0011115Y0019339D01*
D13*
X0018998Y0016787D02*
X0018998Y0016420D01*
X0018998Y0016787D02*
X0021200Y0016787D01*
X0021200Y0016420D02*
X0021200Y0017154D01*
X0021200Y0015678D02*
X0021200Y0014577D01*
X0020833Y0014210D01*
X0020099Y0014210D01*
X0019732Y0014577D01*
X0019732Y0015678D01*
X0019365Y0013468D02*
X0018998Y0013101D01*
X0018998Y0012367D01*
X0019365Y0012000D01*
X0019732Y0012000D01*
X0020099Y0012367D01*
X0020099Y0013101D01*
X0020466Y0013468D01*
X0020833Y0013468D01*
X0021200Y0013101D01*
X0021200Y0012367D01*
X0020833Y0012000D01*
X0025498Y0012267D02*
X0025865Y0011900D01*
X0026232Y0011900D01*
X0026599Y0012267D01*
X0026599Y0013001D01*
X0026966Y0013368D01*
X0027333Y0013368D01*
X0027700Y0013001D01*
X0027700Y0012267D01*
X0027333Y0011900D01*
X0025865Y0013368D02*
X0025498Y0013001D01*
X0025498Y0012267D01*
X0026599Y0014110D02*
X0026232Y0014477D01*
X0026232Y0015578D01*
X0026232Y0016687D02*
X0026232Y0017421D01*
X0026599Y0017788D01*
X0027700Y0017788D01*
X0027700Y0016687D01*
X0027333Y0016320D01*
X0026966Y0016687D01*
X0026966Y0017788D01*
X0027700Y0015578D02*
X0025498Y0015578D01*
X0026599Y0014110D02*
X0027333Y0014110D01*
X0027700Y0014477D01*
X0027700Y0015578D01*
D14*
X0033648Y0015597D02*
X0035583Y0015597D01*
X0036550Y0016564D01*
X0035583Y0017531D01*
X0033648Y0017531D01*
X0033648Y0014585D02*
X0033648Y0012650D01*
X0035099Y0012650D01*
X0034615Y0013617D01*
X0034615Y0014101D01*
X0035099Y0014585D01*
X0036066Y0014585D01*
X0036550Y0014101D01*
X0036550Y0013134D01*
X0036066Y0012650D01*
X0041448Y0013434D02*
X0041931Y0012950D01*
X0043866Y0012950D01*
X0044350Y0013434D01*
X0044350Y0014401D01*
X0043866Y0014885D01*
X0042899Y0014885D01*
X0042899Y0013917D01*
X0041931Y0014885D02*
X0041448Y0014401D01*
X0041448Y0013434D01*
D15*
X0011115Y0024063D02*
X0011115Y0031937D01*
D16*
X0006391Y0039957D02*
X0023320Y0039957D01*
X0023320Y0049313D01*
X0038280Y0049313D01*
X0038280Y0039957D01*
X0055209Y0039957D01*
X0055209Y0058643D01*
X0006391Y0058643D01*
X0006391Y0039957D01*
D17*
X0007850Y0052750D03*
X0016850Y0052750D03*
D18*
X0012350Y0048250D03*
X0012350Y0057250D03*
D19*
X0013100Y0054250D03*
D20*
X0010850Y0052000D03*
D21*
X0013100Y0051250D03*
M02*
