G75*
%MOIN*%
%OFA0B0*%
%FSLAX25Y25*%
%IPPOS*%
%LPD*%
%AMOC8*
5,1,8,0,0,1.08239X$1,22.5*
%
%ADD10C,0.00000*%
%ADD11C,0.00300*%
%ADD12C,0.00591*%
%ADD13C,0.00800*%
D10*
X0005000Y0010000D02*
X0005000Y0060361D01*
X0056501Y0060361D01*
X0056470Y0009970D01*
X0005000Y0010000D01*
D11*
X0012578Y0033950D02*
X0012578Y0035802D01*
X0013195Y0036419D01*
X0015046Y0036419D01*
X0015046Y0033950D01*
X0016267Y0033950D02*
X0017502Y0033950D01*
X0016885Y0033950D02*
X0016885Y0036419D01*
X0017502Y0036419D01*
X0016885Y0037653D02*
X0016885Y0038270D01*
X0020561Y0036419D02*
X0021178Y0036419D01*
X0022413Y0035184D01*
X0023627Y0035184D02*
X0026096Y0035184D01*
X0026096Y0034567D02*
X0026096Y0035802D01*
X0025479Y0036419D01*
X0024244Y0036419D01*
X0023627Y0035802D01*
X0023627Y0035184D01*
X0024244Y0033950D02*
X0025479Y0033950D01*
X0026096Y0034567D01*
X0027310Y0035184D02*
X0029779Y0035184D01*
X0029779Y0034567D02*
X0029779Y0035802D01*
X0029162Y0036419D01*
X0027927Y0036419D01*
X0027310Y0035802D01*
X0027310Y0035184D01*
X0027927Y0033950D02*
X0029162Y0033950D01*
X0029779Y0034567D01*
X0031000Y0033950D02*
X0031617Y0034567D01*
X0031617Y0037036D01*
X0032234Y0036419D02*
X0031000Y0036419D01*
X0033449Y0035802D02*
X0033449Y0035184D01*
X0035917Y0035184D01*
X0035917Y0034567D02*
X0035917Y0035802D01*
X0035300Y0036419D01*
X0034066Y0036419D01*
X0033449Y0035802D01*
X0034066Y0033950D02*
X0035300Y0033950D01*
X0035917Y0034567D01*
X0037132Y0033950D02*
X0038983Y0033950D01*
X0039601Y0034567D01*
X0039601Y0035802D01*
X0038983Y0036419D01*
X0037132Y0036419D01*
X0037132Y0033333D01*
X0037749Y0032716D01*
X0038366Y0032716D01*
X0040815Y0033950D02*
X0042667Y0033950D01*
X0043284Y0034567D01*
X0043284Y0035802D01*
X0042667Y0036419D01*
X0040815Y0036419D01*
X0040815Y0037653D02*
X0040815Y0033950D01*
X0044498Y0033950D02*
X0046350Y0033950D01*
X0046967Y0034567D01*
X0046350Y0035184D01*
X0044498Y0035184D01*
X0044498Y0035802D02*
X0044498Y0033950D01*
X0044498Y0035802D02*
X0045115Y0036419D01*
X0046350Y0036419D01*
X0048181Y0037036D02*
X0048798Y0037653D01*
X0050033Y0037653D01*
X0050650Y0037036D01*
X0050650Y0034567D01*
X0050033Y0033950D01*
X0048798Y0033950D01*
X0048181Y0034567D01*
X0048181Y0035802D01*
X0049416Y0035802D01*
X0049950Y0021353D02*
X0048715Y0021353D01*
X0048098Y0020736D01*
X0048098Y0020119D01*
X0050567Y0017650D01*
X0048098Y0017650D01*
X0046884Y0018267D02*
X0046267Y0017650D01*
X0045032Y0017650D01*
X0044415Y0018267D01*
X0044415Y0019502D01*
X0045649Y0019502D01*
X0044415Y0020736D02*
X0045032Y0021353D01*
X0046267Y0021353D01*
X0046884Y0020736D01*
X0046884Y0018267D01*
X0049232Y0016253D02*
X0049232Y0012550D01*
X0047998Y0012550D02*
X0050467Y0012550D01*
X0052916Y0012550D02*
X0051681Y0015019D01*
X0050467Y0015019D02*
X0049232Y0016253D01*
X0051781Y0018267D02*
X0051781Y0019502D01*
X0053016Y0019502D01*
X0054250Y0020736D02*
X0054250Y0018267D01*
X0053633Y0017650D01*
X0052398Y0017650D01*
X0051781Y0018267D01*
X0051781Y0020736D02*
X0052398Y0021353D01*
X0053633Y0021353D01*
X0054250Y0020736D01*
X0050567Y0020736D02*
X0049950Y0021353D01*
X0044325Y0016253D02*
X0044942Y0015636D01*
X0044942Y0013167D01*
X0042473Y0015636D01*
X0042473Y0013167D01*
X0043091Y0012550D01*
X0044325Y0012550D01*
X0044942Y0013167D01*
X0046167Y0013167D02*
X0046167Y0012550D01*
X0046784Y0012550D01*
X0046784Y0013167D01*
X0046167Y0013167D01*
X0044325Y0016253D02*
X0043091Y0016253D01*
X0042473Y0015636D01*
X0039517Y0018267D02*
X0038900Y0017650D01*
X0037666Y0017650D01*
X0037049Y0018267D01*
X0037049Y0021353D01*
X0039517Y0021353D02*
X0039517Y0018267D01*
X0040732Y0019502D02*
X0043201Y0019502D01*
X0054150Y0015019D02*
X0052916Y0012550D01*
X0022413Y0033950D02*
X0022413Y0036419D01*
X0019343Y0034567D02*
X0019343Y0033950D01*
X0018726Y0033950D01*
X0018726Y0034567D01*
X0019343Y0034567D01*
X0011363Y0036419D02*
X0010746Y0037036D01*
X0010746Y0038270D01*
D12*
X0011680Y0022861D02*
X0013120Y0022861D01*
X0013313Y0020956D01*
X0013954Y0020751D01*
X0014552Y0020443D01*
X0016036Y0021654D01*
X0017054Y0020636D01*
X0015843Y0019152D01*
X0016151Y0018554D01*
X0016356Y0017913D01*
X0018261Y0017720D01*
X0018261Y0016280D01*
X0016356Y0016087D01*
X0016151Y0015446D01*
X0015843Y0014848D01*
X0017054Y0013364D01*
X0016036Y0012346D01*
X0014552Y0013557D01*
X0013954Y0013249D01*
X0013106Y0015295D01*
X0013485Y0015507D01*
X0013803Y0015801D01*
X0014045Y0016162D01*
X0014195Y0016569D01*
X0014246Y0017000D01*
X0014193Y0017439D01*
X0014037Y0017852D01*
X0013788Y0018217D01*
X0013459Y0018511D01*
X0013069Y0018720D01*
X0012641Y0018829D01*
X0012199Y0018834D01*
X0011769Y0018734D01*
X0011375Y0018534D01*
X0011040Y0018246D01*
X0010782Y0017887D01*
X0010618Y0017477D01*
X0010555Y0017040D01*
X0010599Y0016600D01*
X0010745Y0016184D01*
X0010986Y0015814D01*
X0011309Y0015512D01*
X0011694Y0015295D01*
X0010846Y0013249D01*
X0010248Y0013557D01*
X0008764Y0012346D01*
X0007746Y0013364D01*
X0008957Y0014848D01*
X0008649Y0015446D01*
X0008444Y0016087D01*
X0006539Y0016280D01*
X0006539Y0017720D01*
X0008444Y0017913D01*
X0008649Y0018554D01*
X0008957Y0019152D01*
X0007746Y0020636D01*
X0008764Y0021654D01*
X0010248Y0020443D01*
X0010846Y0020751D01*
X0011487Y0020956D01*
X0011680Y0022861D01*
X0011630Y0022370D02*
X0013170Y0022370D01*
X0013230Y0021781D02*
X0011570Y0021781D01*
X0011511Y0021192D02*
X0013289Y0021192D01*
X0014241Y0020603D02*
X0010559Y0020603D01*
X0010052Y0020603D02*
X0007773Y0020603D01*
X0008253Y0020014D02*
X0016547Y0020014D01*
X0017027Y0020603D02*
X0014748Y0020603D01*
X0015470Y0021192D02*
X0016497Y0021192D01*
X0016066Y0019425D02*
X0008734Y0019425D01*
X0008794Y0018836D02*
X0016006Y0018836D01*
X0016250Y0018247D02*
X0013754Y0018247D01*
X0014110Y0017658D02*
X0018261Y0017658D01*
X0018261Y0017069D02*
X0014237Y0017069D01*
X0014162Y0016480D02*
X0018261Y0016480D01*
X0016294Y0015891D02*
X0013863Y0015891D01*
X0013118Y0015302D02*
X0016077Y0015302D01*
X0015954Y0014712D02*
X0013348Y0014712D01*
X0013592Y0014123D02*
X0016434Y0014123D01*
X0016915Y0013534D02*
X0014579Y0013534D01*
X0014508Y0013534D02*
X0013836Y0013534D01*
X0015301Y0012945D02*
X0016635Y0012945D01*
X0016046Y0012356D02*
X0016024Y0012356D01*
X0011682Y0015302D02*
X0008723Y0015302D01*
X0008846Y0014712D02*
X0011452Y0014712D01*
X0011208Y0014123D02*
X0008366Y0014123D01*
X0007885Y0013534D02*
X0010221Y0013534D01*
X0010292Y0013534D02*
X0010964Y0013534D01*
X0009499Y0012945D02*
X0008165Y0012945D01*
X0008754Y0012356D02*
X0008776Y0012356D01*
X0008506Y0015891D02*
X0010936Y0015891D01*
X0010641Y0016480D02*
X0006539Y0016480D01*
X0006539Y0017069D02*
X0010559Y0017069D01*
X0010690Y0017658D02*
X0006539Y0017658D01*
X0008550Y0018247D02*
X0011040Y0018247D01*
X0009330Y0021192D02*
X0008303Y0021192D01*
D13*
X0018595Y0043394D02*
X0018595Y0055206D01*
X0043005Y0055206D01*
X0043005Y0043394D01*
X0018595Y0043394D01*
M02*
