G75*
%MOIN*%
%OFA0B0*%
%FSLAX25Y25*%
%IPPOS*%
%LPD*%
%AMOC8*
5,1,8,0,0,1.08239X$1,22.5*
%
%ADD10C,0.00000*%
%ADD11C,0.00400*%
%ADD12C,0.01000*%
%ADD13C,0.00300*%
%ADD14C,0.00500*%
%ADD15C,0.00600*%
%ADD16R,0.01500X0.10500*%
%ADD17R,0.10500X0.01500*%
%ADD18R,0.06000X0.01500*%
%ADD19R,0.01500X0.03000*%
%ADD20R,0.03000X0.01500*%
D10*
X0005000Y0010000D02*
X0005000Y0060361D01*
X0056501Y0060361D01*
X0056470Y0009970D01*
X0005000Y0010000D01*
D11*
X0047700Y0051367D02*
X0048567Y0050500D01*
X0050302Y0050500D01*
X0051170Y0051367D01*
X0051170Y0055704D01*
X0047700Y0055704D02*
X0047700Y0051367D01*
D12*
X0045800Y0049300D02*
X0053300Y0049300D01*
X0053300Y0056800D01*
X0045800Y0056800D01*
X0045800Y0049300D01*
X0050485Y0036661D02*
X0011115Y0036661D01*
X0011115Y0019339D01*
X0011115Y0016976D01*
X0018202Y0016976D01*
X0018202Y0019339D01*
X0043398Y0019339D01*
X0043398Y0016976D01*
X0050485Y0016976D01*
X0050485Y0019339D01*
X0050485Y0036661D01*
X0050485Y0033906D02*
X0050485Y0022094D01*
X0050485Y0019339D02*
X0043398Y0019339D01*
X0018202Y0019339D02*
X0011115Y0019339D01*
D13*
X0018048Y0013301D02*
X0018048Y0011850D01*
X0020950Y0011850D01*
X0019983Y0011850D02*
X0019983Y0013301D01*
X0019499Y0013785D01*
X0018531Y0013785D01*
X0018048Y0013301D01*
X0019015Y0014797D02*
X0020950Y0016731D01*
X0020950Y0014797D02*
X0019015Y0016731D01*
X0020950Y0013785D02*
X0019983Y0012817D01*
X0025348Y0012817D02*
X0028250Y0012817D01*
X0028250Y0014797D02*
X0026315Y0016731D01*
X0026315Y0014797D02*
X0028250Y0016731D01*
X0025348Y0013785D02*
X0025348Y0011850D01*
X0033848Y0011750D02*
X0035299Y0011750D01*
X0034815Y0012717D01*
X0034815Y0013201D01*
X0035299Y0013685D01*
X0036266Y0013685D01*
X0036750Y0013201D01*
X0036750Y0012234D01*
X0036266Y0011750D01*
X0033848Y0011750D02*
X0033848Y0013685D01*
X0033848Y0014697D02*
X0035783Y0014697D01*
X0036750Y0015664D01*
X0035783Y0016631D01*
X0033848Y0016631D01*
X0041548Y0014601D02*
X0041548Y0013634D01*
X0042031Y0013150D01*
X0043966Y0013150D01*
X0044450Y0013634D01*
X0044450Y0014601D01*
X0043966Y0015085D01*
X0042999Y0015085D01*
X0042999Y0014117D01*
X0042031Y0015085D02*
X0041548Y0014601D01*
D14*
X0011115Y0024063D02*
X0011115Y0031937D01*
D15*
X0006391Y0039957D02*
X0023320Y0039957D01*
X0023320Y0049313D01*
X0038280Y0049313D01*
X0038280Y0039957D01*
X0055209Y0039957D01*
X0055209Y0058643D01*
X0006391Y0058643D01*
X0006391Y0039957D01*
D16*
X0007950Y0052650D03*
X0016950Y0052650D03*
D17*
X0012450Y0048150D03*
X0012450Y0057150D03*
D18*
X0013200Y0054150D03*
D19*
X0010950Y0051900D03*
D20*
X0013200Y0051150D03*
M02*
