G75*
%MOIN*%
%OFA0B0*%
%FSLAX25Y25*%
%IPPOS*%
%LPD*%
%AMOC8*
5,1,8,0,0,1.08239X$1,22.5*
%
%ADD10C,0.00000*%
%ADD11R,0.05150X0.05150*%
%ADD12C,0.05150*%
%ADD13C,0.04362*%
%ADD14C,0.01600*%
D10*
X0005000Y0010000D02*
X0005000Y0060361D01*
X0056501Y0060361D01*
X0056470Y0009970D01*
X0005000Y0010000D01*
D11*
X0018989Y0028000D03*
D12*
X0026863Y0028000D03*
X0034737Y0028000D03*
X0042611Y0028000D03*
D13*
X0040800Y0046800D03*
X0040800Y0051800D03*
X0035800Y0051800D03*
X0035800Y0046800D03*
X0030800Y0046800D03*
X0030800Y0051800D03*
X0025800Y0051800D03*
X0025800Y0046800D03*
X0020800Y0046800D03*
X0020800Y0051800D03*
D14*
X0016800Y0051800D01*
X0011700Y0046700D01*
X0011700Y0023700D01*
X0015400Y0020000D01*
X0030000Y0020000D01*
X0034737Y0024737D01*
X0034737Y0028000D01*
X0033863Y0035000D02*
X0040000Y0035000D01*
X0044600Y0039600D01*
X0044600Y0053200D01*
X0041600Y0056200D01*
X0028600Y0056200D01*
X0025800Y0053400D01*
X0025800Y0051800D01*
X0030800Y0046800D02*
X0030000Y0046000D01*
X0030000Y0040000D01*
X0018989Y0028989D01*
X0018989Y0028000D01*
X0026863Y0028000D02*
X0033863Y0035000D01*
M02*
