G75*
%MOIN*%
%OFA0B0*%
%FSLAX25Y25*%
%IPPOS*%
%LPD*%
%AMOC8*
5,1,8,0,0,1.08239X$1,22.5*
%
%ADD10C,0.00000*%
%ADD11R,0.05150X0.05150*%
%ADD12C,0.05150*%
%ADD13C,0.04362*%
%ADD14C,0.01000*%
D10*
X0005000Y0010000D02*
X0005000Y0060361D01*
X0056501Y0060361D01*
X0056470Y0009970D01*
X0005000Y0010000D01*
D11*
X0018989Y0028000D03*
D12*
X0026863Y0028000D03*
X0034737Y0028000D03*
X0042611Y0028000D03*
D13*
X0040800Y0046800D03*
X0040800Y0051800D03*
X0035800Y0051800D03*
X0035800Y0046800D03*
X0030800Y0046800D03*
X0030800Y0051800D03*
X0025800Y0051800D03*
X0025800Y0046800D03*
X0020800Y0046800D03*
X0020800Y0051800D03*
D14*
X0017879Y0054933D02*
X0007100Y0054933D01*
X0007100Y0053934D02*
X0017050Y0053934D01*
X0017171Y0054225D02*
X0016519Y0052652D01*
X0016519Y0050948D01*
X0017171Y0049375D01*
X0017246Y0049300D01*
X0017171Y0049225D01*
X0016519Y0047652D01*
X0016519Y0045948D01*
X0017171Y0044375D01*
X0018375Y0043171D01*
X0019948Y0042519D01*
X0021652Y0042519D01*
X0023225Y0043171D01*
X0023300Y0043246D01*
X0023375Y0043171D01*
X0024948Y0042519D01*
X0026652Y0042519D01*
X0028225Y0043171D01*
X0028300Y0043246D01*
X0028375Y0043171D01*
X0029948Y0042519D01*
X0031652Y0042519D01*
X0033225Y0043171D01*
X0033300Y0043246D01*
X0033375Y0043171D01*
X0034948Y0042519D01*
X0036652Y0042519D01*
X0038225Y0043171D01*
X0038300Y0043246D01*
X0038375Y0043171D01*
X0039948Y0042519D01*
X0041652Y0042519D01*
X0043225Y0043171D01*
X0044429Y0044375D01*
X0045081Y0045948D01*
X0045081Y0047652D01*
X0044429Y0049225D01*
X0043876Y0049778D01*
X0044062Y0050056D01*
X0044340Y0050726D01*
X0044481Y0051437D01*
X0044481Y0051709D01*
X0040891Y0051709D01*
X0040891Y0051891D01*
X0044481Y0051891D01*
X0044481Y0052163D01*
X0044340Y0052874D01*
X0044062Y0053544D01*
X0043659Y0054147D01*
X0043147Y0054659D01*
X0042544Y0055062D01*
X0041874Y0055340D01*
X0041163Y0055481D01*
X0040891Y0055481D01*
X0040891Y0051891D01*
X0040709Y0051891D01*
X0040709Y0055481D01*
X0040437Y0055481D01*
X0039726Y0055340D01*
X0039056Y0055062D01*
X0038778Y0054876D01*
X0038225Y0055429D01*
X0036652Y0056081D01*
X0034948Y0056081D01*
X0033375Y0055429D01*
X0033300Y0055354D01*
X0033225Y0055429D01*
X0031652Y0056081D01*
X0029948Y0056081D01*
X0028375Y0055429D01*
X0028300Y0055354D01*
X0028225Y0055429D01*
X0026652Y0056081D01*
X0024948Y0056081D01*
X0023375Y0055429D01*
X0023300Y0055354D01*
X0023225Y0055429D01*
X0021652Y0056081D01*
X0019948Y0056081D01*
X0018375Y0055429D01*
X0017171Y0054225D01*
X0016637Y0052936D02*
X0007100Y0052936D01*
X0007100Y0051937D02*
X0016519Y0051937D01*
X0016523Y0050939D02*
X0007100Y0050939D01*
X0007100Y0049940D02*
X0016936Y0049940D01*
X0017053Y0048942D02*
X0007100Y0048942D01*
X0007100Y0047943D02*
X0016640Y0047943D01*
X0016519Y0046945D02*
X0007100Y0046945D01*
X0007100Y0045946D02*
X0016520Y0045946D01*
X0016933Y0044948D02*
X0007100Y0044948D01*
X0007100Y0043949D02*
X0017596Y0043949D01*
X0018906Y0042951D02*
X0007100Y0042951D01*
X0007100Y0041952D02*
X0054390Y0041952D01*
X0054389Y0040954D02*
X0007100Y0040954D01*
X0007100Y0039955D02*
X0054388Y0039955D01*
X0054388Y0038957D02*
X0007100Y0038957D01*
X0007100Y0037958D02*
X0054387Y0037958D01*
X0054387Y0036960D02*
X0007100Y0036960D01*
X0007100Y0035961D02*
X0054386Y0035961D01*
X0054385Y0034963D02*
X0007100Y0034963D01*
X0007100Y0033964D02*
X0054385Y0033964D01*
X0054384Y0032966D02*
X0007100Y0032966D01*
X0007100Y0031967D02*
X0014837Y0031967D01*
X0014314Y0031445D02*
X0014314Y0024555D01*
X0015544Y0023325D01*
X0022434Y0023325D01*
X0023664Y0024555D01*
X0023664Y0024588D01*
X0024215Y0024037D01*
X0025933Y0023325D01*
X0027793Y0023325D01*
X0029511Y0024037D01*
X0030800Y0025326D01*
X0032089Y0024037D01*
X0033807Y0023325D01*
X0035667Y0023325D01*
X0037385Y0024037D01*
X0038700Y0025352D01*
X0039008Y0026096D01*
X0039126Y0025864D01*
X0039503Y0025345D01*
X0039956Y0024892D01*
X0040475Y0024515D01*
X0041047Y0024224D01*
X0041657Y0024026D01*
X0042290Y0023925D01*
X0042324Y0023925D01*
X0042324Y0027713D01*
X0042898Y0027713D01*
X0042898Y0028287D01*
X0046686Y0028287D01*
X0046686Y0028321D01*
X0046585Y0028954D01*
X0046387Y0029564D01*
X0046096Y0030136D01*
X0045719Y0030655D01*
X0045266Y0031108D01*
X0044747Y0031485D01*
X0044175Y0031776D01*
X0043565Y0031974D01*
X0042932Y0032075D01*
X0042898Y0032075D01*
X0042898Y0028287D01*
X0042324Y0028287D01*
X0042324Y0032075D01*
X0042290Y0032075D01*
X0041657Y0031974D01*
X0041047Y0031776D01*
X0040475Y0031485D01*
X0039956Y0031108D01*
X0039503Y0030655D01*
X0039126Y0030136D01*
X0039008Y0029904D01*
X0038700Y0030648D01*
X0037385Y0031963D01*
X0035667Y0032675D01*
X0033807Y0032675D01*
X0032089Y0031963D01*
X0030800Y0030674D01*
X0029511Y0031963D01*
X0027793Y0032675D01*
X0025933Y0032675D01*
X0024215Y0031963D01*
X0023664Y0031412D01*
X0023664Y0031445D01*
X0022434Y0032675D01*
X0015544Y0032675D01*
X0014314Y0031445D01*
X0014314Y0030969D02*
X0007100Y0030969D01*
X0007100Y0029970D02*
X0014314Y0029970D01*
X0014314Y0028972D02*
X0007100Y0028972D01*
X0007100Y0027973D02*
X0014314Y0027973D01*
X0014314Y0026975D02*
X0007100Y0026975D01*
X0007100Y0025976D02*
X0014314Y0025976D01*
X0014314Y0024978D02*
X0007100Y0024978D01*
X0007100Y0023979D02*
X0014890Y0023979D01*
X0007100Y0022981D02*
X0054378Y0022981D01*
X0054379Y0023979D02*
X0043272Y0023979D01*
X0043565Y0024026D02*
X0042932Y0023925D01*
X0042898Y0023925D01*
X0042898Y0027713D01*
X0046686Y0027713D01*
X0046686Y0027679D01*
X0046585Y0027046D01*
X0046387Y0026436D01*
X0046096Y0025864D01*
X0045719Y0025345D01*
X0045266Y0024892D01*
X0044747Y0024515D01*
X0044175Y0024224D01*
X0043565Y0024026D01*
X0042898Y0023979D02*
X0042324Y0023979D01*
X0041950Y0023979D02*
X0037246Y0023979D01*
X0038326Y0024978D02*
X0039871Y0024978D01*
X0039069Y0025976D02*
X0038959Y0025976D01*
X0042324Y0025976D02*
X0042898Y0025976D01*
X0042898Y0024978D02*
X0042324Y0024978D01*
X0042324Y0026975D02*
X0042898Y0026975D01*
X0042898Y0027973D02*
X0054381Y0027973D01*
X0054382Y0028972D02*
X0046580Y0028972D01*
X0046180Y0029970D02*
X0054382Y0029970D01*
X0054383Y0030969D02*
X0045405Y0030969D01*
X0043587Y0031967D02*
X0054384Y0031967D01*
X0054380Y0026975D02*
X0046562Y0026975D01*
X0046153Y0025976D02*
X0054380Y0025976D01*
X0054379Y0024978D02*
X0045351Y0024978D01*
X0042898Y0028972D02*
X0042324Y0028972D01*
X0042324Y0029970D02*
X0042898Y0029970D01*
X0042898Y0030969D02*
X0042324Y0030969D01*
X0042324Y0031967D02*
X0042898Y0031967D01*
X0041635Y0031967D02*
X0037375Y0031967D01*
X0038379Y0030969D02*
X0039817Y0030969D01*
X0039042Y0029970D02*
X0038981Y0029970D01*
X0032099Y0031967D02*
X0029501Y0031967D01*
X0030505Y0030969D02*
X0031095Y0030969D01*
X0031148Y0024978D02*
X0030452Y0024978D01*
X0029372Y0023979D02*
X0032228Y0023979D01*
X0024354Y0023979D02*
X0023088Y0023979D01*
X0023141Y0031967D02*
X0024225Y0031967D01*
X0023906Y0042951D02*
X0022694Y0042951D01*
X0027694Y0042951D02*
X0028906Y0042951D01*
X0032694Y0042951D02*
X0033906Y0042951D01*
X0037694Y0042951D02*
X0038906Y0042951D01*
X0042694Y0042951D02*
X0054390Y0042951D01*
X0054391Y0043949D02*
X0044004Y0043949D01*
X0044667Y0044948D02*
X0054391Y0044948D01*
X0054392Y0045946D02*
X0045080Y0045946D01*
X0045081Y0046945D02*
X0054393Y0046945D01*
X0054393Y0047943D02*
X0044960Y0047943D01*
X0044547Y0048942D02*
X0054394Y0048942D01*
X0054394Y0049940D02*
X0043985Y0049940D01*
X0044382Y0050939D02*
X0054395Y0050939D01*
X0054396Y0051937D02*
X0044481Y0051937D01*
X0044314Y0052936D02*
X0054396Y0052936D01*
X0054397Y0053934D02*
X0043801Y0053934D01*
X0042737Y0054933D02*
X0054397Y0054933D01*
X0054398Y0055932D02*
X0037013Y0055932D01*
X0038721Y0054933D02*
X0038863Y0054933D01*
X0040709Y0054933D02*
X0040891Y0054933D01*
X0040891Y0053934D02*
X0040709Y0053934D01*
X0040709Y0052936D02*
X0040891Y0052936D01*
X0040891Y0051937D02*
X0040709Y0051937D01*
X0034587Y0055932D02*
X0032013Y0055932D01*
X0029587Y0055932D02*
X0027013Y0055932D01*
X0024587Y0055932D02*
X0022013Y0055932D01*
X0019587Y0055932D02*
X0007100Y0055932D01*
X0007100Y0056930D02*
X0054399Y0056930D01*
X0054399Y0057929D02*
X0007100Y0057929D01*
X0007100Y0058261D02*
X0054400Y0058261D01*
X0054371Y0012071D01*
X0007100Y0012099D01*
X0007100Y0058261D01*
X0007100Y0021982D02*
X0054377Y0021982D01*
X0054377Y0020984D02*
X0007100Y0020984D01*
X0007100Y0019985D02*
X0054376Y0019985D01*
X0054376Y0018987D02*
X0007100Y0018987D01*
X0007100Y0017988D02*
X0054375Y0017988D01*
X0054374Y0016990D02*
X0007100Y0016990D01*
X0007100Y0015991D02*
X0054374Y0015991D01*
X0054373Y0014993D02*
X0007100Y0014993D01*
X0007100Y0013994D02*
X0054373Y0013994D01*
X0054372Y0012996D02*
X0007100Y0012996D01*
M02*
